{
.appVersion = "1277";
copyright = "Copyright 2010 Google Inc. All Rights Reserved.";
customParameters = (
{
name = glyphOrder;
value = (
.notdef,
.null,
nonmarkingreturn,
space,
exclam,
quotedbl,
numbersign,
dollar,
percent,
ampersand,
quotesingle,
parenleft,
parenright,
asterisk,
plus,
comma,
hyphen,
period,
slash,
zero,
one,
two,
three,
four,
five,
six,
seven,
eight,
nine,
colon,
semicolon,
less,
equal,
greater,
question,
at,
A,
B,
C,
D,
E,
F,
G,
H,
I,
J,
K,
L,
M,
N,
O,
P,
Q,
R,
S,
T,
U,
V,
W,
X,
Y,
Z,
bracketleft,
backslash,
bracketright,
asciicircum,
underscore,
grave,
a,
b,
c,
d,
e,
f,
g,
h,
i,
j,
k,
l,
m,
n,
o,
p,
q,
r,
s,
t,
u,
v,
w,
x,
y,
z,
braceleft,
bar,
braceright,
asciitilde,
Adieresis,
Aring,
Ccedilla,
Eacute,
Ntilde,
Odieresis,
Udieresis,
aacute,
agrave,
acircumflex,
adieresis,
atilde,
aring,
ccedilla,
eacute,
egrave,
ecircumflex,
edieresis,
iacute,
igrave,
icircumflex,
idieresis,
ntilde,
oacute,
ograve,
ocircumflex,
odieresis,
otilde,
uacute,
ugrave,
ucircumflex,
udieresis,
dagger,
degree,
cent,
sterling,
section,
bullet,
paragraph,
germandbls,
registered,
copyright,
trademark,
acute,
dieresis,
notequal,
AE,
Oslash,
infinity,
plusminus,
lessequal,
greaterequal,
yen,
mu1,
partialdiff,
summation,
product,
integral,
ordfeminine,
ordmasculine,
Ohm,
ae,
oslash,
questiondown,
exclamdown,
logicalnot,
radical,
florin,
approxequal,
uni2206,
guillemotleft,
guillemotright,
ellipsis,
Agrave,
Atilde,
Otilde,
OE,
oe,
endash,
emdash,
quotedblleft,
quotedblright,
quoteleft,
quoteright,
divide,
lozenge,
ydieresis,
Ydieresis,
fraction,
Euro,
guilsinglleft,
guilsinglright,
fi,
fl,
daggerdbl,
periodcentered,
quotesinglbase,
quotedblbase,
perthousand,
Acircumflex,
Ecircumflex,
Aacute,
Edieresis,
Egrave,
Iacute,
Icircumflex,
Idieresis,
Igrave,
Oacute,
Ocircumflex,
Ograve,
Uacute,
Ucircumflex,
Ugrave,
dotlessi,
circumflex,
tilde,
uni02C9,
breve,
dotaccent,
ring,
cedilla,
hungarumlaut,
ogonek,
caron,
Lslash,
lslash,
Scaron,
scaron,
Zcaron,
zcaron,
brokenbar,
Eth,
eth,

glyphs = (
{
glyphname = .notdef;
lastChange = "2019-12-17 17:45:32 +0000";
layers = (
{
layerId = "AF7A9115-5511-47E4-B81C-CE1A1F9990A7";
paths = (
{
closed = 1;
nodes = (
"1082 0 LINE",
"1082 1349 LINE",
"147 1349 LINE",
"147 0 LINE"
);
},
{
closed = 1;
nodes = (
"963 119 LINE",
"266 119 LINE",
"266 1230 LINE",
"963 1230 LINE"
);
}
);
userData = {
assembly = "PUSHB[ ]\011/* 5 values pushed */
5 1 3 6 0 
SVTCA[0]\011/* SetFreedomAndProjectionVectorToAxis */
MDAP[1]\011/* MoveDirectAbsPt */
MDRP[01101]\011/* MoveDirectRelPt */
MIAP[1]\011/* MoveIndirectAbsPt */
MDRP[01101]\011/* MoveDirectRelPt */
IUP[1]\011/* InterpolateUntPts */
IUP[0]\011/* InterpolateUntPts */";
};
width = 1229;
}
);
note = .notdef;
},
{
glyphname = exclam;
lastChange = "2019-12-17 17:45:32 +0000";
layers = (
{
layerId = "AF7A9115-5511-47E4-B81C-CE1A1F9990A7";
paths = (
{
closed = 1;
nodes = (
"919 1349 LINE",
"625 1349 LINE",
"478 426 LINE",
"708 426 LINE"
);
},
{
closed = 1;
nodes = (
"651 0 LINE",
"703 270 LINE",
"415 270 LINE",
"363 0 LINE"
);
}
);
userData = {
assembly = "NPUSHB[ ]\011/* 11 values pushed */
1 5 64 4 5 158 91 4 3 2 3 
SVTCA[0]\011/* SetFreedomAndProjectionVectorToAxis */
MIAP[1]\011/* MoveIndirectAbsPt */
SHP[1]\011/* ShiftPointByLastPoint */
MDAP[1]\011/* MoveDirectAbsPt */
CALL[ ]\011/* CallFunction */
SVTCA[0]\011/* SetFreedomAndProjectionVectorToAxis */
SMD[ ]\011/* SetMinimumDistance */
RTG[ ]\011/* RoundToGrid */
SRP0[ ]\011/* SetRefPoint0 */
MDRP[01110]\011/* MoveDirectRelPt */
IUP[1]\011/* InterpolateUntPts */
IUP[0]\011/* InterpolateUntPts */";
};
width = 1229;
}
);
note = exclam;
unicode = 0021;
},
{
glyphname = quotedbl;
lastChange = "2019-12-17 17:45:32 +0000";
layers = (
{
layerId = "AF7A9115-5511-47E4-B81C-CE1A1F9990A7";
paths = (
{
closed = 1;
nodes = (
"1165 1485 LINE",
"890 1485 LINE",
"802 844 LINE",
"1001 844 LINE"
);
},
{
closed = 1;
nodes = (
"707 1485 LINE",
"434 1485 LINE",
"346 844 LINE",
"545 844 LINE"
);
}
);
userData = {
assembly = "NPUSHB[ ]\011/* 9 values pushed */
5 0 2 0 169 91 6 2 0 
SVTCA[0]\011/* SetFreedomAndProjectionVectorToAxis */
MIAP[1]\011/* MoveIndirectAbsPt */
SHP[1]\011/* ShiftPointByLastPoint */
CALL[ ]\011/* CallFunction */
SRP1[ ]\011/* SetRefPoint1 */
SVTCA[0]\011/* SetFreedomAndProjectionVectorToAxis */
SHP[1]\011/* ShiftPointByLastPoint */
IUP[1]\011/* InterpolateUntPts */
IUP[0]\011/* InterpolateUntPts */";
};
width = 1229;
}
);
note = quotedbl;
unicode = 0022;
},
{
glyphname = numbersign;
lastChange = "2019-12-17 17:45:32 +0000";
layers = (
{
layerId = "AF7A9115-5511-47E4-B81C-CE1A1F9990A7";
paths = (
{
closed = 1;
nodes = (
"1225 835 LINE",
"1254 983 LINE",
"1069 983 LINE",
"1218 1349 LINE",
"1065 1349 LINE",
"915 983 LINE",
"607 983 LINE",
"756 1349 LINE",
"603 1349 LINE",
"453 983 LINE",
"194 983 LINE",
"165 835 LINE",
"392 835 LINE",
"259 511 LINE",
"53 511 LINE",
"24 362 LINE",
"198 362 LINE",
"50 0 LINE",
"203 0 LINE",
"351 362 LINE",
"660 362 LINE",
"511 0 LINE",
"666 0 LINE",
"814 362 LINE",
"1084 362 LINE",
"1113 511 LINE",
"876 511 LINE",
"1008 835 LINE"
);
},
{
closed = 1;
nodes = (
"854 835 LINE",
"721 511 LINE",
"412 511 LINE",
"545 835 LINE"
);
}
);
userData = {
assembly = "NPUSHB[ ]\011/* 42 values pushed */
11 8 7 4 12 13 12 175 89 30 29 14 1 13 31 28 15 0 16 17 16 175 89 25 22 21 18 17 13 17 13 17 5 24 23 20 19 3 10 9 6 5 
SVTCA[0]\011/* SetFreedomAndProjectionVectorToAxis */
MDAP[1]\011/* MoveDirectAbsPt */
SHP[1]\011/* ShiftPointByLastPoint */
SHP[1]\011/* ShiftPointByLastPoint */
SHP[1]\011/* ShiftPointByLastPoint */
MIAP[1]\011/* MoveIndirectAbsPt */
SHP[1]\011/* ShiftPointByLastPoint */
SHP[1]\011/* ShiftPointByLastPoint */
SHP[1]\011/* ShiftPointByLastPoint */
SRP2[ ]\011/* SetRefPoint2 */
IP[ ]\011/* InterpolatePts */
IP[ ]\011/* InterpolatePts */
MDAP[1]\011/* MoveDirectAbsPt */
MDAP[1]\011/* MoveDirectAbsPt */
SRP1[ ]\011/* SetRefPoint1 */
SHP[1]\011/* ShiftPointByLastPoint */
SHP[1]\011/* ShiftPointByLastPoint */
SHP[1]\011/* ShiftPointByLastPoint */
SHP[1]\011/* ShiftPointByLastPoint */
CALL[ ]\011/* CallFunction */
SRP1[ ]\011/* SetRefPoint1 */
SVTCA[0]\011/* SetFreedomAndProjectionVectorToAxis */
SHP[1]\011/* ShiftPointByLastPoint */
SHP[1]\011/* ShiftPointByLastPoint */
SHP[1]\011/* ShiftPointByLastPoint */
SHP[1]\011/* ShiftPointByLastPoint */
SRP1[ ]\011/* SetRefPoint1 */
SHP[1]\011/* ShiftPointByLastPoint */
SHP[1]\011/* ShiftPointByLastPoint */
SHP[1]\011/* ShiftPointByLastPoint */
SHP[1]\011/* ShiftPointByLastPoint */
CALL[ ]\011/* CallFunction */
SRP1[ ]\011/* SetRefPoint1 */
SVTCA[0]\011/* SetFreedomAndProjectionVectorToAxis */
SHP[1]\011/* ShiftPointByLastPoint */
SHP[1]\011/* ShiftPointByLastPoint */
SHP[1]\011/* ShiftPointByLastPoint */
SHP[1]\011/* ShiftPointByLastPoint */
IUP[1]\011/* InterpolateUntPts */
IUP[0]\011/* InterpolateUntPts */";
};
width = 1229;
}
);
note = numbersign;
unicode = 0023;
},
{
glyphname = dollar;
lastChange = "2019-12-17 17:45:32 +0000";
layers = (
{
layerId = "AF7A9115-5511-47E4-B81C-CE1A1F9990A7";
paths = (
{
closed = 1;
nodes = (
"567 4 LINE",
"707 10 OFFCURVE",
"917 81 OFFCURVE",
"1059 208 OFFCURVE",
"1133 391 OFFCURVE",
"1133 485 QCURVE SMOOTH",
"1133 572 OFFCURVE",
"1055 692 OFFCURVE",
"911 774 OFFCURVE",
"746 815 QCURVE SMOOTH",
"725 819 LINE",
"794 1171 LINE",
"943 1150 OFFCURVE",
"943 985 QCURVE SMOOTH",
"943 978 LINE",
"1215 1017 LINE",
"1206 1199 OFFCURVE",
"1026 1360 OFFCURVE",
"832 1367 QCURVE",
"858 1501 LINE",
"749 1501 LINE",
"723 1367 LINE",
"596 1362 OFFCURVE",
"398 1296 OFFCURVE",
"264 1174 OFFCURVE",
"199 1006 OFFCURVE",
"199 920 QCURVE SMOOTH",
"199 804 OFFCURVE",
"353 652 OFFCURVE",
"544 606 QCURVE",
"548 606 OFFCURVE",
"571 601 OFFCURVE",
"573 599 QCURVE",
"497 208 LINE",
"398 218 OFFCURVE",
"305 316 OFFCURVE",
"305 425 QCURVE SMOOTH",
"305 436 LINE",
"40 389 LINE",
"40 196 OFFCURVE",
"244 9 OFFCURVE",
"457 1 QCURVE",
"424 -171 LINE",
"533 -171 LINE"
);
},
{
closed = 1;
nodes = (
"621 843 LINE",
"538 873 OFFCURVE",
"493 903 OFFCURVE",
"467 945 OFFCURVE",
"467 977 QCURVE",
"471 1015 LINE",
"500 1161 OFFCURVE",
"685 1175 QCURVE"
);
},
{
closed = 1;
nodes = (
"867 371 OFFCURVE",
"810 270 OFFCURVE",
"692 214 OFFCURVE",
"606 208 QCURVE",
"678 575 LINE",
"717 563 OFFCURVE",
"785 542 OFFCURVE",
"837 510 OFFCURVE",
"867 464 OFFCURVE",
"867 428 QCURVE SMOOTH"
);
}
);
userData = {
assembly = "NPUSHB[ ]\011/* 41 values pushed */
32 44 22 44 115 89 24 23 64 46 51 33 11 57 52 6 2 20 29 1 2 29 1 13 4 29 25 22 7 58 10 2 10 115 89 1 0 43 6 2 26 
SVTCA[0]\011/* SetFreedomAndProjectionVectorToAxis */
MIAP[1]\011/* MoveIndirectAbsPt */
SHP[1]\011/* ShiftPointByLastPoint */
SHP[1]\011/* ShiftPointByLastPoint */
MDRP[01101]\011/* MoveDirectRelPt */
SHP[0]\011/* ShiftPointByLastPoint */
CALL[ ]\011/* CallFunction */
SRP1[ ]\011/* SetRefPoint1 */
SVTCA[0]\011/* SetFreedomAndProjectionVectorToAxis */
SHP[1]\011/* ShiftPointByLastPoint */
RTG[ ]\011/* RoundToGrid */
MIAP[1]\011/* MoveIndirectAbsPt */
SHP[1]\011/* ShiftPointByLastPoint */
SHP[1]\011/* ShiftPointByLastPoint */
SDS[ ]\011/* SetDeltaShiftInGState */
SDB[ ]\011/* SetDeltaBaseInGState */
DELTAP1[ ]\011/* DeltaExceptionP1 */
DELTAP1[ ]\011/* DeltaExceptionP1 */
SRP2[ ]\011/* SetRefPoint2 */
SLOOP[ ]\011/* SetLoopVariable */
IP[ ]\011/* InterpolatePts */
SMD[ ]\011/* SetMinimumDistance */
MDRP[01101]\011/* MoveDirectRelPt */
SHP[0]\011/* ShiftPointByLastPoint */
CALL[ ]\011/* CallFunction */
SRP1[ ]\011/* SetRefPoint1 */
SVTCA[0]\011/* SetFreedomAndProjectionVectorToAxis */
SHP[1]\011/* ShiftPointByLastPoint */
IUP[1]\011/* InterpolateUntPts */
IUP[0]\011/* InterpolateUntPts */";
};
width = 1229;
}
);
note = dollar;
unicode = 0024;
},
{
glyphname = percent;
lastChange = "2019-12-17 17:45:32 +0000";
layers = (
{
layerId = "AF7A9115-5511-47E4-B81C-CE1A1F9990A7";
paths = (
{
closed = 1;
nodes = (
"1328 1353 LINE",
"1151 1353 LINE",
"-44 0 LINE",
"131 0 LINE"
);
},
{
closed = 1;
nodes = (
"359 1361 OFFCURVE",
"226 1301 OFFCURVE",
"131 1173 OFFCURVE",
"82 988 OFFCURVE",
"82 912 QCURVE SMOOTH",
"82 684 OFFCURVE",
"315 684 QCURVE SMOOTH",
"404 684 OFFCURVE",
"537 751 OFFCURVE",
"633 883 OFFCURVE",
"680 1062 OFFCURVE",
"680 1141 QCURVE SMOOTH",
"680 1361 OFFCURVE",
"451 1361 QCURVE SMOOTH"
);
},
{
closed = 1;
nodes = (
"503 1059 OFFCURVE",
"460 899 OFFCURVE",
"389 824 OFFCURVE",
"344 824 QCURVE SMOOTH",
"259 824 OFFCURVE",
"259 931 QCURVE SMOOTH",
"259 990 OFFCURVE",
"303 1154 OFFCURVE",
"372 1226 OFFCURVE",
"422 1226 QCURVE SMOOTH",
"461 1226 OFFCURVE",
"503 1180 OFFCURVE",
"503 1123 QCURVE SMOOTH"
);
},
{
closed = 1;
nodes = (
"878 665 OFFCURVE",
"745 603 OFFCURVE",
"652 475 OFFCURVE",
"603 292 OFFCURVE",
"603 216 QCURVE SMOOTH",
"603 -12 OFFCURVE",
"836 -12 QCURVE SMOOTH",
"952 -12 OFFCURVE",
"1115 106 OFFCURVE",
"1201 330 OFFCURVE",
"1201 444 QCURVE SMOOTH",
"1201 665 OFFCURVE",
"971 665 QCURVE SMOOTH"
);
},
{
closed = 1;
nodes = (
"1024 363 OFFCURVE",
"981 203 OFFCURVE",
"910 128 OFFCURVE",
"865 128 QCURVE SMOOTH",
"780 128 OFFCURVE",
"780 235 QCURVE SMOOTH",
"780 294 OFFCURVE",
"824 458 OFFCURVE",
"893 530 OFFCURVE",
"943 530 QCURVE SMOOTH",
"982 530 OFFCURVE",
"1024 484 OFFCURVE",
"1024 427 QCURVE SMOOTH"
);
}
);
userData = {
assembly = "NPUSHB[ ]\011/* 33 values pushed */
31 47 182 89 37 31 183 91 37 53 182 89 37 19 11 27 182 89 4 11 183 91 4 21 182 89 4 4 3 2 3 1 0 
SVTCA[0]\011/* SetFreedomAndProjectionVectorToAxis */
MDAP[1]\011/* MoveDirectAbsPt */
SHP[0]\011/* ShiftPointByLastPoint */
MIAP[1]\011/* MoveIndirectAbsPt */
SHP[1]\011/* ShiftPointByLastPoint */
MIAP[1]\011/* MoveIndirectAbsPt */
CALL[ ]\011/* CallFunction */
CALL[ ]\011/* CallFunction */
CALL[ ]\011/* CallFunction */
SVTCA[0]\011/* SetFreedomAndProjectionVectorToAxis */
RTG[ ]\011/* RoundToGrid */
MIAP[1]\011/* MoveIndirectAbsPt */
CALL[ ]\011/* CallFunction */
CALL[ ]\011/* CallFunction */
CALL[ ]\011/* CallFunction */
IUP[1]\011/* InterpolateUntPts */
IUP[0]\011/* InterpolateUntPts */";
};
width = 1229;
}
);
note = percent;
unicode = 0025;
},
{
glyphname = ampersand;
lastChange = "2019-12-17 17:45:32 +0000";
layers = (
{
layerId = "AF7A9115-5511-47E4-B81C-CE1A1F9990A7";
paths = (
{
closed = 1;
nodes = (
"188 698 OFFCURVE",
"-19 434 OFFCURVE",
"-19 275 QCURVE SMOOTH",
"-19 132 OFFCURVE",
"173 -19 OFFCURVE",
"358 -19 QCURVE SMOOTH",
"557 -19 OFFCURVE",
"741 104 QCURVE",
"856 -11 OFFCURVE",
"1019 -11 QCURVE SMOOTH",
"1076 -11 OFFCURVE",
"1118 10 QCURVE",
"1156 206 LINE",
"1116 189 OFFCURVE",
"1060 189 QCURVE SMOOTH",
"974 189 OFFCURVE",
"905 262 QCURVE",
"1055 459 OFFCURVE",
"1144 697 QCURVE",
"946 724 LINE",
"882 553 OFFCURVE",
"775 400 QCURVE",
"683 532 OFFCURVE",
"619 702 QCURVE",
"794 776 OFFCURVE",
"976 904 OFFCURVE",
"1063 1046 OFFCURVE",
"1063 1132 QCURVE SMOOTH",
"1063 1237 OFFCURVE",
"908 1357 OFFCURVE",
"775 1357 QCURVE SMOOTH",
"642 1357 OFFCURVE",
"444 1257 OFFCURVE",
"345 1071 OFFCURVE",
"345 958 QCURVE SMOOTH",
"345 866 OFFCURVE",
"372 779 QCURVE"
);
},
{
closed = 1;
nodes = (
"507 163 OFFCURVE",
"404 163 QCURVE SMOOTH",
"321 163 OFFCURVE",
"230 244 OFFCURVE",
"230 320 QCURVE SMOOTH",
"230 407 OFFCURVE",
"332 554 OFFCURVE",
"420 599 QCURVE",
"485 421 OFFCURVE",
"612 239 QCURVE"
);
},
{
closed = 1;
nodes = (
"845 1034 OFFCURVE",
"734 925 OFFCURVE",
"577 859 QCURVE",
"556 920 OFFCURVE",
"556 986 QCURVE SMOOTH",
"556 1082 OFFCURVE",
"656 1195 OFFCURVE",
"741 1195 QCURVE SMOOTH",
"794 1195 OFFCURVE",
"845 1144 OFFCURVE",
"845 1102 QCURVE SMOOTH"
);
}
);
userData = {
assembly = "NPUSHB[ ]\011/* 57 values pushed */
4 15 20 15 2 13 3 15 39 1 15 13 1 0 55 1 15 5 55 13 39 15 20 37 29 7 31 6 31 45 81 89 31 22 0 17 16 17 2 9 3 17 17 6 27 27 22 80 89 27 22 6 50 81 89 6 3 
SVTCA[0]\011/* SetFreedomAndProjectionVectorToAxis */
MIAP[1]\011/* MoveIndirectAbsPt */
CALL[ ]\011/* CallFunction */
SVTCA[0]\011/* SetFreedomAndProjectionVectorToAxis */
RTG[ ]\011/* RoundToGrid */
MIAP[1]\011/* MoveIndirectAbsPt */
CALL[ ]\011/* CallFunction */
SRP1[ ]\011/* SetRefPoint1 */
SRP2[ ]\011/* SetRefPoint2 */
SVTCA[0]\011/* SetFreedomAndProjectionVectorToAxis */
IP[ ]\011/* InterpolatePts */
RTG[ ]\011/* RoundToGrid */
MDAP[1]\011/* MoveDirectAbsPt */
SDS[ ]\011/* SetDeltaShiftInGState */
SDB[ ]\011/* SetDeltaBaseInGState */
DELTAP1[ ]\011/* DeltaExceptionP1 */
MIAP[1]\011/* MoveIndirectAbsPt */
CALL[ ]\011/* CallFunction */
SRP1[ ]\011/* SetRefPoint1 */
SRP2[ ]\011/* SetRefPoint2 */
SVTCA[0]\011/* SetFreedomAndProjectionVectorToAxis */
SLOOP[ ]\011/* SetLoopVariable */
IP[ ]\011/* InterpolatePts */
SDS[ ]\011/* SetDeltaShiftInGState */
SDB[ ]\011/* SetDeltaBaseInGState */
DELTAP1[ ]\011/* DeltaExceptionP1 */
DELTAP1[ ]\011/* DeltaExceptionP1 */
DELTAP1[ ]\011/* DeltaExceptionP1 */
SDS[ ]\011/* SetDeltaShiftInGState */
SDB[ ]\011/* SetDeltaBaseInGState */
DELTAP1[ ]\011/* DeltaExceptionP1 */
IUP[1]\011/* InterpolateUntPts */
IUP[0]\011/* InterpolateUntPts */";
};
width = 1229;
}
);
note = ampersand;
unicode = 0026;
},
{
glyphname = quotesingle;
lastChange = "2019-12-17 17:45:32 +0000";
layers = (
{
layerId = "AF7A9115-5511-47E4-B81C-CE1A1F9990A7";
paths = (
{
closed = 1;
nodes = (
"935 1485 LINE",
"662 1485 LINE",
"574 844 LINE",
"773 844 LINE"
);
}
);
userData = {
assembly = "PUSHB[ ]\011/* 6 values pushed */
2 0 169 91 2 0 
SVTCA[0]\011/* SetFreedomAndProjectionVectorToAxis */
MIAP[1]\011/* MoveIndirectAbsPt */
CALL[ ]\011/* CallFunction */
IUP[1]\011/* InterpolateUntPts */
IUP[0]\011/* InterpolateUntPts */";
};
width = 1229;
}
);
note = quotesingle;
unicode = 0027;
},
{
glyphname = parenleft;
lastChange = "2019-12-17 17:45:32 +0000";
layers = (
{
layerId = "AF7A9115-5511-47E4-B81C-CE1A1F9990A7";
paths = (
{
closed = 1;
nodes = (
"734 -425 LINE",
"584 -117 OFFCURVE",
"584 193 QCURVE SMOOTH",
"584 398 OFFCURVE",
"698 866 OFFCURVE",
"920 1273 OFFCURVE",
"1105 1484 QCURVE",
"824 1484 LINE",
"644 1282 OFFCURVE",
"422 874 OFFCURVE",
"305 387 OFFCURVE",
"305 181 QCURVE SMOOTH",
"305 -129 OFFCURVE",
"453 -425 QCURVE"
);
}
);
userData = {
assembly = "PUSHB[ ]\011/* 4 values pushed */
6 0 0 27 
SVTCA[0]\011/* SetFreedomAndProjectionVectorToAxis */
MIAP[1]\011/* MoveIndirectAbsPt */
MIAP[1]\011/* MoveIndirectAbsPt */
IUP[1]\011/* InterpolateUntPts */
IUP[0]\011/* InterpolateUntPts */";
};
width = 1229;
}
);
note = parenleft;
unicode = 0028;
},
{
glyphname = parenright;
lastChange = "2019-12-17 17:45:32 +0000";
layers = (
{
layerId = "AF7A9115-5511-47E4-B81C-CE1A1F9990A7";
paths = (
{
closed = 1;
nodes = (
"400 -425 LINE",
"586 -217 OFFCURVE",
"807 196 OFFCURVE",
"920 680 OFFCURVE",
"920 880 QCURVE SMOOTH",
"920 1186 OFFCURVE",
"771 1484 QCURVE",
"490 1484 LINE",
"567 1328 OFFCURVE",
"641 1028 OFFCURVE",
"641 866 QCURVE SMOOTH",
"641 663 OFFCURVE",
"528 195 OFFCURVE",
"308 -211 OFFCURVE",
"119 -425 QCURVE"
);
}
);
userData = {
assembly = "PUSHB[ ]\011/* 4 values pushed */
7 0 0 27 
SVTCA[0]\011/* SetFreedomAndProjectionVectorToAxis */
MIAP[1]\011/* MoveIndirectAbsPt */
MIAP[1]\011/* MoveIndirectAbsPt */
IUP[1]\011/* InterpolateUntPts */
IUP[0]\011/* InterpolateUntPts */";
};
width = 1229;
}
);
note = parenright;
unicode = 0029;
},
{
glyphname = asterisk;
lastChange = "2019-12-17 17:45:32 +0000";
layers = (
{
layerId = "AF7A9115-5511-47E4-B81C-CE1A1F9990A7";
paths = (
{
closed = 1;
nodes = (
"907 1483 LINE",
"692 1483 LINE",
"657 1209 LINE",
"438 1313 LINE",
"332 1116 LINE",
"570 1055 LINE",
"339 844 LINE",
"501 721 LINE",
"699 973 LINE",
"796 721 LINE",
"1004 842 LINE",
"859 1055 LINE",
"1121 1116 LINE",
"1091 1313 LINE",
"836 1209 LINE"
);
}
);
userData = {
assembly = "PUSHB[ ]\011/* 6 values pushed */
0 5 1 5 13 0 
SVTCA[0]\011/* SetFreedomAndProjectionVectorToAxis */
MIAP[1]\011/* MoveIndirectAbsPt */
MDRP[01101]\011/* MoveDirectRelPt */
DELTAP1[ ]\011/* DeltaExceptionP1 */
IUP[1]\011/* InterpolateUntPts */
IUP[0]\011/* InterpolateUntPts */";
};
width = 1229;
}
);
note = asterisk;
unicode = 002A;
},
{
glyphname = plus;
lastChange = "2019-12-17 17:45:32 +0000";
layers = (
{
layerId = "AF7A9115-5511-47E4-B81C-CE1A1F9990A7";
paths = (
{
closed = 1;
nodes = (
"1128 569 LINE",
"1128 793 LINE",
"726 793 LINE",
"726 1201 LINE",
"500 1201 LINE",
"500 793 LINE",
"101 793 LINE",
"101 569 LINE",
"500 569 LINE",
"500 161 LINE",
"726 161 LINE",
"726 569 LINE"
);
}
);
userData = {
assembly = "NPUSHB[ ]\011/* 9 values pushed */
0 4 5 4 173 89 9 5 179 
SVTCA[0]\011/* SetFreedomAndProjectionVectorToAxis */
MIAP[1]\011/* MoveIndirectAbsPt */
SHP[1]\011/* ShiftPointByLastPoint */
CALL[ ]\011/* CallFunction */
SRP1[ ]\011/* SetRefPoint1 */
SVTCA[0]\011/* SetFreedomAndProjectionVectorToAxis */
SHP[1]\011/* ShiftPointByLastPoint */
IUP[1]\011/* InterpolateUntPts */
IUP[0]\011/* InterpolateUntPts */";
};
width = 1229;
}
);
note = plus;
unicode = 002B;
},
{
glyphname = comma;
lastChange = "2019-12-17 17:45:32 +0000";
layers = (
{
layerId = "AF7A9115-5511-47E4-B81C-CE1A1F9990A7";
paths = (
{
closed = 1;
nodes = (
"255 -363 LINE",
"695 299 LINE",
"380 299 LINE",
"82 -363 LINE"
);
}
);
userData = {
assembly = "PUSHB[ ]\011/* 5 values pushed */
1 0 156 91 1 
SVTCA[0]\011/* SetFreedomAndProjectionVectorToAxis */
MDAP[1]\011/* MoveDirectAbsPt */
CALL[ ]\011/* CallFunction */
IUP[1]\011/* InterpolateUntPts */
IUP[0]\011/* InterpolateUntPts */";
};
width = 1229;
}
);
note = comma;
unicode = 002C;
},
{
glyphname = hyphen;
lastChange = "2019-12-17 17:45:32 +0000";
layers = (
{
layerId = "AF7A9115-5511-47E4-B81C-CE1A1F9990A7";
paths = (
{
closed = 1;
nodes = (
"879 409 LINE",
"926 653 LINE",
"346 653 LINE",
"299 409 LINE"
);
}
);
userData = {
assembly = "PUSHB[ ]\011/* 5 values pushed */
1 0 187 89 1 
SVTCA[0]\011/* SetFreedomAndProjectionVectorToAxis */
MDAP[1]\011/* MoveDirectAbsPt */
CALL[ ]\011/* CallFunction */
IUP[1]\011/* InterpolateUntPts */
IUP[0]\011/* InterpolateUntPts */";
};
width = 1229;
}
);
note = hyphen;
unicode = "002D,00AD";
},
{
glyphname = period;
lastChange = "2019-12-17 17:45:32 +0000";
layers = (
{
layerId = "AF7A9115-5511-47E4-B81C-CE1A1F9990A7";
paths = (
{
closed = 1;
nodes = (
"654 0 LINE",
"713 305 LINE",
"424 305 LINE",
"365 0 LINE"
);
}
);
userData = {
assembly = "PUSHB[ ]\011/* 5 values pushed */
0 1 155 91 0 
SVTCA[0]\011/* SetFreedomAndProjectionVectorToAxis */
MDAP[1]\011/* MoveDirectAbsPt */
CALL[ ]\011/* CallFunction */
IUP[1]\011/* InterpolateUntPts */
IUP[0]\011/* InterpolateUntPts */";
};
width = 1229;
}
);
note = period;
unicode = 002E;
},
{
glyphname = slash;
lastChange = "2019-12-17 17:45:32 +0000";
layers = (
{
layerId = "AF7A9115-5511-47E4-B81C-CE1A1F9990A7";
paths = (
{
closed = 1;
nodes = (
"212 -20 LINE",
"1321 1484 LINE",
"1093 1484 LINE",
"-20 -20 LINE"
);
}
);
userData = {
assembly = "PUSHB[ ]\011/* 6 values pushed */
2 1 0 3 0 19 
SVTCA[0]\011/* SetFreedomAndProjectionVectorToAxis */
MIAP[1]\011/* MoveIndirectAbsPt */
SHP[0]\011/* ShiftPointByLastPoint */
MIAP[1]\011/* MoveIndirectAbsPt */
SHP[1]\011/* ShiftPointByLastPoint */
IUP[1]\011/* InterpolateUntPts */
IUP[0]\011/* InterpolateUntPts */";
};
width = 1229;
}
);
note = slash;
unicode = 002F;
},
{
glyphname = zero;
lastChange = "2019-12-17 17:45:32 +0000";
layers = (
{
layerId = "AF7A9115-5511-47E4-B81C-CE1A1F9990A7";
paths = (
{
closed = 1;
nodes = (
"654 -20 OFFCURVE",
"898 120 OFFCURVE",
"1074 403 OFFCURVE",
"1168 799 OFFCURVE",
"1168 952 QCURVE SMOOTH",
"1168 1370 OFFCURVE",
"780 1370 QCURVE SMOOTH",
"615 1370 OFFCURVE",
"379 1238 OFFCURVE",
"211 965 OFFCURVE",
"114 563 OFFCURVE",
"114 408 QCURVE SMOOTH",
"114 197 OFFCURVE",
"311 -20 OFFCURVE",
"502 -20 QCURVE SMOOTH"
);
},
{
closed = 1;
nodes = (
"891 838 OFFCURVE",
"796 399 OFFCURVE",
"659 201 OFFCURVE",
"547 201 QCURVE SMOOTH",
"471 201 OFFCURVE",
"389 288 OFFCURVE",
"389 393 QCURVE SMOOTH",
"389 526 OFFCURVE",
"489 969 OFFCURVE",
"621 1150 OFFCURVE",
"736 1150 QCURVE SMOOTH",
"816 1150 OFFCURVE",
"891 1059 OFFCURVE",
"891 963 QCURVE SMOOTH"
);
},
{
closed = 1;
nodes = (
"726 555 LINE",
"774 804 LINE",
"559 804 LINE",
"511 555 LINE"
);
}
);
userData = {
assembly = "NPUSHB[ ]\011/* 39 values pushed */
15 29 31 29 2 13 29 64 15 30 31 30 63 30 79 30 143 30 191 30 6 21 3 30 30 8 0 8 18 116 89 8 7 0 25 116 89 0 25 
SVTCA[0]\011/* SetFreedomAndProjectionVectorToAxis */
MIAP[1]\011/* MoveIndirectAbsPt */
CALL[ ]\011/* CallFunction */
SVTCA[0]\011/* SetFreedomAndProjectionVectorToAxis */
RTG[ ]\011/* RoundToGrid */
MIAP[1]\011/* MoveIndirectAbsPt */
CALL[ ]\011/* CallFunction */
SRP1[ ]\011/* SetRefPoint1 */
SRP2[ ]\011/* SetRefPoint2 */
SVTCA[0]\011/* SetFreedomAndProjectionVectorToAxis */
IP[ ]\011/* InterpolatePts */
RTG[ ]\011/* RoundToGrid */
MDAP[1]\011/* MoveDirectAbsPt */
SDS[ ]\011/* SetDeltaShiftInGState */
SDB[ ]\011/* SetDeltaBaseInGState */
DELTAP1[ ]\011/* DeltaExceptionP1 */
SMD[ ]\011/* SetMinimumDistance */
MDRP[01101]\011/* MoveDirectRelPt */
SDB[ ]\011/* SetDeltaBaseInGState */
DELTAP1[ ]\011/* DeltaExceptionP1 */
IUP[1]\011/* InterpolateUntPts */
IUP[0]\011/* InterpolateUntPts */";
};
width = 1229;
}
);
note = zero;
unicode = 0030;
},
{
glyphname = one;
lastChange = "2019-12-17 17:45:32 +0000";
layers = (
{
layerId = "AF7A9115-5511-47E4-B81C-CE1A1F9990A7";
paths = (
{
closed = 1;
nodes = (
"1037 0 LINE",
"1078 209 LINE",
"755 209 LINE",
"976 1349 LINE",
"710 1349 LINE",
"634 1243 OFFCURVE",
"391 1120 OFFCURVE",
"251 1120 QCURVE",
"209 906 LINE",
"336 906 OFFCURVE",
"591 1017 OFFCURVE",
"647 1100 QCURVE",
"474 209 LINE",
"85 209 LINE",
"44 0 LINE"
);
}
);
userData = {
assembly = "NPUSHB[ ]\011/* 27 values pushed */
15 3 31 3 2 14 3 3 10 6 7 6 115 89 7 7 11 10 6 12 2 0 2 115 89 0 24 
SVTCA[0]\011/* SetFreedomAndProjectionVectorToAxis */
MIAP[1]\011/* MoveIndirectAbsPt */
CALL[ ]\011/* CallFunction */
SRP1[ ]\011/* SetRefPoint1 */
SVTCA[0]\011/* SetFreedomAndProjectionVectorToAxis */
SHP[1]\011/* ShiftPointByLastPoint */
RTG[ ]\011/* RoundToGrid */
MIAP[1]\011/* MoveIndirectAbsPt */
SHP[1]\011/* ShiftPointByLastPoint */
SHP[1]\011/* ShiftPointByLastPoint */
MDAP[1]\011/* MoveDirectAbsPt */
CALL[ ]\011/* CallFunction */
SRP1[ ]\011/* SetRefPoint1 */
SRP2[ ]\011/* SetRefPoint2 */
SVTCA[0]\011/* SetFreedomAndProjectionVectorToAxis */
IP[ ]\011/* InterpolatePts */
SDS[ ]\011/* SetDeltaShiftInGState */
SDB[ ]\011/* SetDeltaBaseInGState */
DELTAP1[ ]\011/* DeltaExceptionP1 */
IUP[1]\011/* InterpolateUntPts */
IUP[0]\011/* InterpolateUntPts */";
};
width = 1229;
}
);
note = one;
unicode = 0031;
},
{
glyphname = two;
lastChange = "2019-12-17 17:45:32 +0000";
layers = (
{
layerId = "AF7A9115-5511-47E4-B81C-CE1A1F9990A7";
paths = (
{
closed = 1;
nodes = (
"1004 0 LINE",
"1049 231 LINE",
"395 231 LINE",
"436 298 OFFCURVE",
"594 427 OFFCURVE",
"821 581 QCURVE SMOOTH",
"998 702 OFFCURVE",
"1184 940 OFFCURVE",
"1184 1074 QCURVE SMOOTH",
"1184 1212 OFFCURVE",
"967 1370 OFFCURVE",
"776 1370 QCURVE SMOOTH",
"565 1370 OFFCURVE",
"279 1163 OFFCURVE",
"218 968 QCURVE",
"498 952 LINE",
"531 1049 OFFCURVE",
"645 1146 OFFCURVE",
"735 1146 QCURVE SMOOTH",
"814 1146 OFFCURVE",
"893 1083 OFFCURVE",
"893 1027 QCURVE SMOOTH",
"893 949 OFFCURVE",
"748 799 OFFCURVE",
"560 670 QCURVE SMOOTH",
"211 430 OFFCURVE",
"56 195 QCURVE",
"18 0 LINE"
);
}
);
userData = {
assembly = "NPUSHB[ ]\011/* 24 values pushed */
15 19 1 14 4 19 6 0 12 16 16 9 116 89 16 7 1 25 0 25 117 89 0 24 
SVTCA[0]\011/* SetFreedomAndProjectionVectorToAxis */
MIAP[1]\011/* MoveIndirectAbsPt */
CALL[ ]\011/* CallFunction */
SRP1[ ]\011/* SetRefPoint1 */
SVTCA[0]\011/* SetFreedomAndProjectionVectorToAxis */
SHP[1]\011/* ShiftPointByLastPoint */
RTG[ ]\011/* RoundToGrid */
MIAP[1]\011/* MoveIndirectAbsPt */
CALL[ ]\011/* CallFunction */
SRP1[ ]\011/* SetRefPoint1 */
SVTCA[0]\011/* SetFreedomAndProjectionVectorToAxis */
SHP[1]\011/* ShiftPointByLastPoint */
SRP2[ ]\011/* SetRefPoint2 */
IP[ ]\011/* InterpolatePts */
IP[ ]\011/* InterpolatePts */
SDS[ ]\011/* SetDeltaShiftInGState */
SDB[ ]\011/* SetDeltaBaseInGState */
DELTAP1[ ]\011/* DeltaExceptionP1 */
IUP[1]\011/* InterpolateUntPts */
IUP[0]\011/* InterpolateUntPts */";
};
width = 1229;
}
);
note = two;
unicode = 0032;
},
{
glyphname = three;
lastChange = "2019-12-17 17:45:32 +0000";
layers = (
{
layerId = "AF7A9115-5511-47E4-B81C-CE1A1F9990A7";
paths = (
{
closed = 1;
nodes = (
"641 -23 OFFCURVE",
"859 46 OFFCURVE",
"1013 171 OFFCURVE",
"1099 354 OFFCURVE",
"1099 435 QCURVE SMOOTH",
"1099 541 OFFCURVE",
"954 674 OFFCURVE",
"817 691 QCURVE",
"818 695 LINE",
"934 717 OFFCURVE",
"1102 826 OFFCURVE",
"1187 989 OFFCURVE",
"1187 1076 QCURVE SMOOTH",
"1187 1215 OFFCURVE",
"967 1370 OFFCURVE",
"770 1370 QCURVE SMOOTH",
"560 1370 OFFCURVE",
"262 1177 OFFCURVE",
"206 997 QCURVE",
"483 977 LINE",
"533 1146 OFFCURVE",
"722 1146 QCURVE SMOOTH",
"804 1146 OFFCURVE",
"892 1071 OFFCURVE",
"892 1009 QCURVE SMOOTH",
"892 915 OFFCURVE",
"737 799 OFFCURVE",
"601 799 QCURVE SMOOTH",
"509 799 LINE",
"465 572 LINE",
"563 572 LINE SMOOTH",
"684 572 OFFCURVE",
"812 497 OFFCURVE",
"812 428 QCURVE SMOOTH",
"812 371 OFFCURVE",
"746 263 OFFCURVE",
"626 205 OFFCURVE",
"549 205 QCURVE SMOOTH",
"350 205 OFFCURVE",
"350 376 QCURVE SMOOTH",
"350 393 LINE",
"60 368 LINE",
"59 358 OFFCURVE",
"59 329 QCURVE SMOOTH",
"59 155 OFFCURVE",
"290 -23 OFFCURVE",
"506 -23 QCURVE SMOOTH"
);
}
);
userData = {
assembly = "NPUSHB[ ]\011/* 34 values pushed */
38 18 17 18 17 117 89 15 18 31 18 159 18 3 16 3 18 18 0 27 31 31 25 116 89 31 7 0 9 116 89 6 0 25 
SVTCA[0]\011/* SetFreedomAndProjectionVectorToAxis */
MIAP[1]\011/* MoveIndirectAbsPt */
SHP[0]\011/* ShiftPointByLastPoint */
CALL[ ]\011/* CallFunction */
SVTCA[0]\011/* SetFreedomAndProjectionVectorToAxis */
RTG[ ]\011/* RoundToGrid */
MIAP[1]\011/* MoveIndirectAbsPt */
CALL[ ]\011/* CallFunction */
SRP1[ ]\011/* SetRefPoint1 */
SVTCA[0]\011/* SetFreedomAndProjectionVectorToAxis */
SHP[1]\011/* ShiftPointByLastPoint */
SRP2[ ]\011/* SetRefPoint2 */
IP[ ]\011/* InterpolatePts */
RTG[ ]\011/* RoundToGrid */
MDAP[1]\011/* MoveDirectAbsPt */
SDS[ ]\011/* SetDeltaShiftInGState */
SDB[ ]\011/* SetDeltaBaseInGState */
DELTAP1[ ]\011/* DeltaExceptionP1 */
CALL[ ]\011/* CallFunction */
SRP1[ ]\011/* SetRefPoint1 */
SRP2[ ]\011/* SetRefPoint2 */
SVTCA[0]\011/* SetFreedomAndProjectionVectorToAxis */
IP[ ]\011/* InterpolatePts */
IUP[1]\011/* InterpolateUntPts */
IUP[0]\011/* InterpolateUntPts */";
};
width = 1229;
}
);
note = three;
unicode = 0033;
},
{
glyphname = four;
lastChange = "2019-12-17 17:45:32 +0000";
layers = (
{
layerId = "AF7A9115-5511-47E4-B81C-CE1A1F9990A7";
paths = (
{
closed = 1;
nodes = (
"1119 287 LINE",
"1159 496 LINE",
"971 496 LINE",
"1137 1349 LINE",
"823 1349 LINE",
"63 498 LINE",
"22 287 LINE",
"663 287 LINE",
"607 0 LINE",
"875 0 LINE",
"931 287 LINE"
);
},
{
closed = 1;
nodes = (
"823 1082 OFFCURVE",
"793 952 QCURVE",
"703 496 LINE",
"298 496 LINE",
"712 950 OFFCURVE",
"756 1005 OFFCURVE",
"823 1092 OFFCURVE",
"831 1105 QCURVE"
);
}
);
userData = {
assembly = "NPUSHB[ ]\011/* 20 values pushed */
3 0 4 15 4 115 89 16 8 5 15 15 1 11 7 6 6 2 1 24 
SVTCA[0]\011/* SetFreedomAndProjectionVectorToAxis */
MIAP[1]\011/* MoveIndirectAbsPt */
SHP[1]\011/* ShiftPointByLastPoint */
MIAP[1]\011/* MoveIndirectAbsPt */
SHP[1]\011/* ShiftPointByLastPoint */
SHP[1]\011/* ShiftPointByLastPoint */
SRP2[ ]\011/* SetRefPoint2 */
IP[ ]\011/* InterpolatePts */
MDAP[1]\011/* MoveDirectAbsPt */
SHP[1]\011/* ShiftPointByLastPoint */
SHP[1]\011/* ShiftPointByLastPoint */
SHP[1]\011/* ShiftPointByLastPoint */
CALL[ ]\011/* CallFunction */
SRP1[ ]\011/* SetRefPoint1 */
SVTCA[0]\011/* SetFreedomAndProjectionVectorToAxis */
SHP[1]\011/* ShiftPointByLastPoint */
SHP[1]\011/* ShiftPointByLastPoint */
IUP[1]\011/* InterpolateUntPts */
IUP[0]\011/* InterpolateUntPts */";
};
width = 1229;
}
);
note = four;
unicode = 0034;
},
{
glyphname = five;
lastChange = "2019-12-17 17:45:32 +0000";
layers = (
{
layerId = "AF7A9115-5511-47E4-B81C-CE1A1F9990A7";
paths = (
{
closed = 1;
nodes = (
"671 -20 OFFCURVE",
"956 130 OFFCURVE",
"1117 406 OFFCURVE",
"1117 562 QCURVE SMOOTH",
"1117 721 OFFCURVE",
"925 904 OFFCURVE",
"752 904 QCURVE SMOOTH",
"601 904 OFFCURVE",
"479 814 QCURVE",
"566 1140 LINE",
"1158 1140 LINE",
"1198 1349 LINE",
"351 1349 LINE",
"154 586 LINE",
"428 586 LINE",
"519 677 OFFCURVE",
"637 677 QCURVE SMOOTH",
"727 677 OFFCURVE",
"822 585 OFFCURVE",
"822 506 QCURVE SMOOTH",
"822 431 OFFCURVE",
"750 282 OFFCURVE",
"622 203 OFFCURVE",
"538 203 QCURVE SMOOTH",
"358 203 OFFCURVE",
"353 375 QCURVE",
"67 352 LINE",
"67 336 LINE SMOOTH",
"67 163 OFFCURVE",
"287 -20 OFFCURVE",
"492 -20 QCURVE SMOOTH"
);
}
);
userData = {
assembly = "NPUSHB[ ]\011/* 40 values pushed */
16 17 15 17 31 17 2 11 5 17 14 24 14 117 89 22 15 24 31 24 2 16 3 24 24 18 0 18 21 115 89 18 6 0 7 116 89 5 0 25 
SVTCA[0]\011/* SetFreedomAndProjectionVectorToAxis */
MIAP[1]\011/* MoveIndirectAbsPt */
SHP[0]\011/* ShiftPointByLastPoint */
CALL[ ]\011/* CallFunction */
SVTCA[0]\011/* SetFreedomAndProjectionVectorToAxis */
RTG[ ]\011/* RoundToGrid */
MIAP[1]\011/* MoveIndirectAbsPt */
CALL[ ]\011/* CallFunction */
SRP1[ ]\011/* SetRefPoint1 */
SRP2[ ]\011/* SetRefPoint2 */
SVTCA[0]\011/* SetFreedomAndProjectionVectorToAxis */
IP[ ]\011/* InterpolatePts */
RTG[ ]\011/* RoundToGrid */
MDAP[1]\011/* MoveDirectAbsPt */
SDS[ ]\011/* SetDeltaShiftInGState */
SDB[ ]\011/* SetDeltaBaseInGState */
DELTAP1[ ]\011/* DeltaExceptionP1 */
SHP[1]\011/* ShiftPointByLastPoint */
CALL[ ]\011/* CallFunction */
SRP1[ ]\011/* SetRefPoint1 */
SVTCA[0]\011/* SetFreedomAndProjectionVectorToAxis */
SHP[1]\011/* ShiftPointByLastPoint */
SDS[ ]\011/* SetDeltaShiftInGState */
SDB[ ]\011/* SetDeltaBaseInGState */
DELTAP1[ ]\011/* DeltaExceptionP1 */
SRP1[ ]\011/* SetRefPoint1 */
SHP[1]\011/* ShiftPointByLastPoint */
IUP[1]\011/* InterpolateUntPts */
IUP[0]\011/* InterpolateUntPts */";
};
width = 1229;
}
);
note = five;
unicode = 0035;
},
{
glyphname = six;
lastChange = "2019-12-17 17:45:32 +0000";
layers = (
{
layerId = "AF7A9115-5511-47E4-B81C-CE1A1F9990A7";
paths = (
{
closed = 1;
nodes = (
"661 -20 OFFCURVE",
"872 67 OFFCURVE",
"1023 224 OFFCURVE",
"1108 447 OFFCURVE",
"1108 554 QCURVE SMOOTH",
"1108 705 OFFCURVE",
"929 877 OFFCURVE",
"771 877 QCURVE SMOOTH",
"670 877 OFFCURVE",
"495 797 OFFCURVE",
"435 722 QCURVE",
"476 931 OFFCURVE",
"646 1148 OFFCURVE",
"760 1148 QCURVE SMOOTH",
"819 1148 OFFCURVE",
"898 1083 OFFCURVE",
"903 1009 QCURVE",
"1175 1046 LINE",
"1164 1212 OFFCURVE",
"989 1370 OFFCURVE",
"809 1370 QCURVE SMOOTH",
"651 1370 OFFCURVE",
"405 1240 OFFCURVE",
"228 977 OFFCURVE",
"127 599 OFFCURVE",
"127 442 QCURVE SMOOTH",
"127 219 OFFCURVE",
"337 -20 OFFCURVE",
"532 -20 QCURVE SMOOTH"
);
},
{
closed = 1;
nodes = (
"820 425 OFFCURVE",
"753 279 OFFCURVE",
"638 199 OFFCURVE",
"566 199 QCURVE SMOOTH",
"488 199 OFFCURVE",
"399 309 OFFCURVE",
"399 398 QCURVE SMOOTH",
"399 481 OFFCURVE",
"463 600 OFFCURVE",
"580 670 OFFCURVE",
"650 670 QCURVE SMOOTH",
"736 670 OFFCURVE",
"820 579 OFFCURVE",
"820 503 QCURVE SMOOTH"
);
}
);
userData = {
assembly = "NPUSHB[ ]\011/* 37 values pushed */
21 32 115 89 18 0 0 21 16 21 32 21 3 9 3 21 21 8 0 8 15 116 89 0 12 1 15 6 12 8 7 0 39 116 89 0 25 
SVTCA[0]\011/* SetFreedomAndProjectionVectorToAxis */
MIAP[1]\011/* MoveIndirectAbsPt */
CALL[ ]\011/* CallFunction */
SVTCA[0]\011/* SetFreedomAndProjectionVectorToAxis */
RTG[ ]\011/* RoundToGrid */
MIAP[1]\011/* MoveIndirectAbsPt */
SHP[1]\011/* ShiftPointByLastPoint */
SDS[ ]\011/* SetDeltaShiftInGState */
SDB[ ]\011/* SetDeltaBaseInGState */
DELTAP1[ ]\011/* DeltaExceptionP1 */
CALL[ ]\011/* CallFunction */
SRP1[ ]\011/* SetRefPoint1 */
SRP2[ ]\011/* SetRefPoint2 */
SVTCA[0]\011/* SetFreedomAndProjectionVectorToAxis */
IP[ ]\011/* InterpolatePts */
RTG[ ]\011/* RoundToGrid */
MDAP[1]\011/* MoveDirectAbsPt */
SDS[ ]\011/* SetDeltaShiftInGState */
SDB[ ]\011/* SetDeltaBaseInGState */
DELTAP1[ ]\011/* DeltaExceptionP1 */
SRP2[ ]\011/* SetRefPoint2 */
IP[ ]\011/* InterpolatePts */
CALL[ ]\011/* CallFunction */
IUP[1]\011/* InterpolateUntPts */
IUP[0]\011/* InterpolateUntPts */";
};
width = 1229;
}
);
note = six;
unicode = 0036;
},
{
glyphname = seven;
lastChange = "2019-12-17 17:45:32 +0000";
layers = (
{
layerId = "AF7A9115-5511-47E4-B81C-CE1A1F9990A7";
paths = (
{
closed = 1;
nodes = (
"575 259 OFFCURVE",
"887 783 OFFCURVE",
"1206 1126 QCURVE",
"1249 1349 LINE",
"288 1349 LINE",
"243 1118 LINE",
"943 1118 LINE",
"624 803 OFFCURVE",
"282 261 OFFCURVE",
"231 0 QCURVE",
"524 0 LINE"
);
}
);
userData = {
assembly = "NPUSHB[ ]\011/* 10 values pushed */
8 5 6 5 117 89 6 6 0 24 
SVTCA[0]\011/* SetFreedomAndProjectionVectorToAxis */
MIAP[1]\011/* MoveIndirectAbsPt */
MIAP[1]\011/* MoveIndirectAbsPt */
CALL[ ]\011/* CallFunction */
SRP1[ ]\011/* SetRefPoint1 */
SVTCA[0]\011/* SetFreedomAndProjectionVectorToAxis */
SHP[1]\011/* ShiftPointByLastPoint */
IUP[1]\011/* InterpolateUntPts */
IUP[0]\011/* InterpolateUntPts */";
};
width = 1229;
}
);
note = seven;
unicode = 0037;
},
{
glyphname = eight;
lastChange = "2019-12-17 17:45:32 +0000";
layers = (
{
layerId = "AF7A9115-5511-47E4-B81C-CE1A1F9990A7";
paths = (
{
closed = 1;
nodes = (
"684 -20 OFFCURVE",
"952 102 OFFCURVE",
"1096 330 OFFCURVE",
"1096 454 QCURVE SMOOTH",
"1096 557 OFFCURVE",
"972 692 OFFCURVE",
"862 709 QCURVE",
"863 713 LINE",
"999 739 OFFCURVE",
"1184 949 OFFCURVE",
"1184 1086 QCURVE SMOOTH",
"1184 1223 OFFCURVE",
"970 1370 OFFCURVE",
"772 1370 QCURVE SMOOTH",
"611 1370 OFFCURVE",
"364 1262 OFFCURVE",
"228 1063 OFFCURVE",
"228 953 QCURVE SMOOTH",
"228 866 OFFCURVE",
"331 734 OFFCURVE",
"429 711 QCURVE",
"428 707 LINE",
"327 691 OFFCURVE",
"160 573 OFFCURVE",
"69 398 OFFCURVE",
"69 296 QCURVE SMOOTH",
"69 144 OFFCURVE",
"296 -20 OFFCURVE",
"506 -20 QCURVE SMOOTH"
);
},
{
closed = 1;
nodes = (
"889 998 OFFCURVE",
"846 874 OFFCURVE",
"741 808 OFFCURVE",
"665 808 QCURVE SMOOTH",
"512 808 OFFCURVE",
"512 943 QCURVE SMOOTH",
"512 1005 OFFCURVE",
"563 1115 OFFCURVE",
"663 1173 OFFCURVE",
"734 1173 QCURVE SMOOTH",
"889 1173 OFFCURVE",
"889 1047 QCURVE SMOOTH"
);
},
{
closed = 1;
nodes = (
"809 396 OFFCURVE",
"750 251 OFFCURVE",
"633 178 OFFCURVE",
"547 178 QCURVE SMOOTH",
"364 178 OFFCURVE",
"364 333 QCURVE SMOOTH",
"364 405 OFFCURVE",
"425 540 OFFCURVE",
"542 611 OFFCURVE",
"623 611 QCURVE SMOOTH",
"809 611 OFFCURVE",
"809 460 QCURVE SMOOTH"
);
}
);
userData = {
assembly = "NPUSHB[ ]\011/* 24 values pushed */
21 7 37 43 37 43 118 89 37 37 0 15 15 31 118 89 15 7 0 49 118 89 0 25 
SVTCA[0]\011/* SetFreedomAndProjectionVectorToAxis */
MIAP[1]\011/* MoveIndirectAbsPt */
CALL[ ]\011/* CallFunction */
SVTCA[0]\011/* SetFreedomAndProjectionVectorToAxis */
RTG[ ]\011/* RoundToGrid */
MIAP[1]\011/* MoveIndirectAbsPt */
CALL[ ]\011/* CallFunction */
SRP1[ ]\011/* SetRefPoint1 */
SRP2[ ]\011/* SetRefPoint2 */
SVTCA[0]\011/* SetFreedomAndProjectionVectorToAxis */
IP[ ]\011/* InterpolatePts */
RTG[ ]\011/* RoundToGrid */
MDAP[1]\011/* MoveDirectAbsPt */
CALL[ ]\011/* CallFunction */
SRP1[ ]\011/* SetRefPoint1 */
SRP2[ ]\011/* SetRefPoint2 */
SVTCA[0]\011/* SetFreedomAndProjectionVectorToAxis */
IP[ ]\011/* InterpolatePts */
IP[ ]\011/* InterpolatePts */
IUP[1]\011/* InterpolateUntPts */
IUP[0]\011/* InterpolateUntPts */";
};
width = 1229;
}
);
note = eight;
unicode = 0038;
},
{
glyphname = nine;
lastChange = "2019-12-17 17:45:32 +0000";
layers = (
{
layerId = "AF7A9115-5511-47E4-B81C-CE1A1F9990A7";
paths = (
{
closed = 1;
nodes = (
"627 -20 OFFCURVE",
"879 120 OFFCURVE",
"1061 395 OFFCURVE",
"1163 786 OFFCURVE",
"1163 945 QCURVE SMOOTH",
"1163 1370 OFFCURVE",
"767 1370 QCURVE SMOOTH",
"636 1370 OFFCURVE",
"415 1287 OFFCURVE",
"257 1127 OFFCURVE",
"174 908 OFFCURVE",
"174 794 QCURVE SMOOTH",
"174 636 OFFCURVE",
"351 459 OFFCURVE",
"503 459 QCURVE SMOOTH",
"605 459 OFFCURVE",
"792 545 OFFCURVE",
"845 619 QCURVE",
"803 411 OFFCURVE",
"630 201 OFFCURVE",
"517 201 QCURVE SMOOTH",
"376 201 OFFCURVE",
"366 348 QCURVE",
"94 311 LINE",
"104 140 OFFCURVE",
"285 -20 OFFCURVE",
"471 -20 QCURVE SMOOTH"
);
},
{
closed = 1;
nodes = (
"883 826 OFFCURVE",
"733 668 OFFCURVE",
"625 668 QCURVE SMOOTH",
"551 668 OFFCURVE",
"464 762 OFFCURVE",
"464 845 QCURVE SMOOTH",
"464 924 OFFCURVE",
"532 1070 OFFCURVE",
"648 1150 OFFCURVE",
"718 1150 QCURVE SMOOTH",
"795 1150 OFFCURVE",
"883 1046 OFFCURVE",
"883 955 QCURVE SMOOTH"
);
}
);
userData = {
assembly = "NPUSHB[ ]\011/* 38 values pushed */
12 37 115 89 9 20 15 12 31 12 47 12 3 9 3 12 12 0 20 20 30 116 89 20 7 0 6 116 89 105 4 1 86 4 1 4 0 25 
SVTCA[0]\011/* SetFreedomAndProjectionVectorToAxis */
MIAP[1]\011/* MoveIndirectAbsPt */
SHP[0]\011/* ShiftPointByLastPoint */
DELTAP1[ ]\011/* DeltaExceptionP1 */
DELTAP1[ ]\011/* DeltaExceptionP1 */
CALL[ ]\011/* CallFunction */
SVTCA[0]\011/* SetFreedomAndProjectionVectorToAxis */
RTG[ ]\011/* RoundToGrid */
MIAP[1]\011/* MoveIndirectAbsPt */
CALL[ ]\011/* CallFunction */
SRP1[ ]\011/* SetRefPoint1 */
SRP2[ ]\011/* SetRefPoint2 */
SVTCA[0]\011/* SetFreedomAndProjectionVectorToAxis */
IP[ ]\011/* InterpolatePts */
RTG[ ]\011/* RoundToGrid */
MDAP[1]\011/* MoveDirectAbsPt */
SDS[ ]\011/* SetDeltaShiftInGState */
SDB[ ]\011/* SetDeltaBaseInGState */
DELTAP1[ ]\011/* DeltaExceptionP1 */
SRP2[ ]\011/* SetRefPoint2 */
IP[ ]\011/* InterpolatePts */
CALL[ ]\011/* CallFunction */
IUP[1]\011/* InterpolateUntPts */
IUP[0]\011/* InterpolateUntPts */";
};
width = 1229;
}
);
note = nine;
unicode = 0039;
},
{
glyphname = colon;
lastChange = "2019-12-17 17:45:32 +0000";
layers = (
{
layerId = "AF7A9115-5511-47E4-B81C-CE1A1F9990A7";
paths = (
{
closed = 1;
nodes = (
"654 0 LINE",
"713 305 LINE",
"424 305 LINE",
"365 0 LINE"
);
},
{
closed = 1;
nodes = (
"806 780 LINE",
"865 1085 LINE",
"576 1085 LINE",
"517 780 LINE"
);
}
);
userData = {
assembly = "NPUSHB[ ]\011/* 11 values pushed */
5 4 155 91 5 15 0 1 155 91 0 
SVTCA[0]\011/* SetFreedomAndProjectionVectorToAxis */
MDAP[1]\011/* MoveDirectAbsPt */
CALL[ ]\011/* CallFunction */
SVTCA[0]\011/* SetFreedomAndProjectionVectorToAxis */
RTG[ ]\011/* RoundToGrid */
MIAP[1]\011/* MoveIndirectAbsPt */
CALL[ ]\011/* CallFunction */
IUP[1]\011/* InterpolateUntPts */
IUP[0]\011/* InterpolateUntPts */";
};
width = 1229;
}
);
note = colon;
unicode = 003A;
},
{
glyphname = semicolon;
lastChange = "2019-12-17 17:45:32 +0000";
layers = (
{
layerId = "AF7A9115-5511-47E4-B81C-CE1A1F9990A7";
paths = (
{
closed = 1;
nodes = (
"815 780 LINE",
"874 1085 LINE",
"585 1085 LINE",
"526 780 LINE"
);
},
{
closed = 1;
nodes = (
"323 -363 LINE",
"763 299 LINE",
"448 299 LINE",
"150 -363 LINE"
);
}
);
userData = {
assembly = "NPUSHB[ ]\011/* 11 values pushed */
5 4 156 91 5 1 0 155 91 1 15 
SVTCA[0]\011/* SetFreedomAndProjectionVectorToAxis */
MIAP[1]\011/* MoveIndirectAbsPt */
CALL[ ]\011/* CallFunction */
SVTCA[0]\011/* SetFreedomAndProjectionVectorToAxis */
RTG[ ]\011/* RoundToGrid */
MDAP[1]\011/* MoveDirectAbsPt */
CALL[ ]\011/* CallFunction */
IUP[1]\011/* InterpolateUntPts */
IUP[0]\011/* InterpolateUntPts */";
};
width = 1229;
}
);
note = semicolon;
unicode = "003B,037E";
},
{
glyphname = less;
lastChange = "2019-12-17 17:45:32 +0000";
layers = (
{
layerId = "AF7A9115-5511-47E4-B81C-CE1A1F9990A7";
paths = (
{
closed = 1;
nodes = (
"1128 125 LINE",
"1128 352 LINE",
"295 676 LINE",
"1128 1001 LINE",
"1128 1229 LINE",
"101 838 LINE",
"101 516 LINE"
);
}
);
userData = {
assembly = "NPUSHB[ ]\011/* 16 values pushed */
63 6 1 6 48 2 1 2 15 4 63 4 111 4 3 4 
SVTCA[0]\011/* SetFreedomAndProjectionVectorToAxis */
RTHG[ ]\011/* RoundToHalfGrid */
MDAP[1]\011/* MoveDirectAbsPt */
DELTAP1[ ]\011/* DeltaExceptionP1 */
MDRP[01101]\011/* MoveDirectRelPt */
DELTAP1[ ]\011/* DeltaExceptionP1 */
MDRP[01101]\011/* MoveDirectRelPt */
DELTAP1[ ]\011/* DeltaExceptionP1 */
IUP[1]\011/* InterpolateUntPts */
IUP[0]\011/* InterpolateUntPts */";
};
width = 1229;
}
);
note = less;
unicode = 003C;
},
{
glyphname = equal;
lastChange = "2019-12-17 17:45:32 +0000";
layers = (
{
layerId = "AF7A9115-5511-47E4-B81C-CE1A1F9990A7";
paths = (
{
closed = 1;
nodes = (
"1128 842 LINE",
"1128 1065 LINE",
"101 1065 LINE",
"101 842 LINE"
);
},
{
closed = 1;
nodes = (
"1128 291 LINE",
"1128 512 LINE",
"101 512 LINE",
"101 291 LINE"
);
}
);
userData = {
assembly = "NPUSHB[ ]\011/* 48 values pushed */
4 5 173 89 95 4 111 4 223 4 3 15 4 31 4 111 4 143 4 4 9 3 4 1 0 173 89 16 1 32 1 112 1 144 1 4 32 1 64 1 160 1 192 1 208 1 5 1 
SVTCA[0]\011/* SetFreedomAndProjectionVectorToAxis */
MDAP[1]\011/* MoveDirectAbsPt */
DELTAP1[ ]\011/* DeltaExceptionP1 */
DELTAP2[ ]\011/* DeltaExceptionP2 */
CALL[ ]\011/* CallFunction */
SVTCA[0]\011/* SetFreedomAndProjectionVectorToAxis */
RTG[ ]\011/* RoundToGrid */
MDAP[1]\011/* MoveDirectAbsPt */
SDS[ ]\011/* SetDeltaShiftInGState */
SDB[ ]\011/* SetDeltaBaseInGState */
DELTAP1[ ]\011/* DeltaExceptionP1 */
DELTAP2[ ]\011/* DeltaExceptionP2 */
CALL[ ]\011/* CallFunction */
IUP[1]\011/* InterpolateUntPts */
IUP[0]\011/* InterpolateUntPts */";
};
width = 1229;
}
);
note = equal;
unicode = 003D;
},
{
glyphname = greater;
lastChange = "2019-12-17 17:45:32 +0000";
layers = (
{
layerId = "AF7A9115-5511-47E4-B81C-CE1A1F9990A7";
paths = (
{
closed = 1;
nodes = (
"1128 516 LINE",
"1128 838 LINE",
"101 1229 LINE",
"101 1001 LINE",
"933 676 LINE",
"101 352 LINE",
"101 125 LINE"
);
}
);
userData = {
assembly = "NPUSHB[ ]\011/* 18 values pushed */
6 5 48 4 1 4 63 0 1 0 15 2 63 2 111 2 3 2 
SVTCA[0]\011/* SetFreedomAndProjectionVectorToAxis */
RTHG[ ]\011/* RoundToHalfGrid */
MDAP[1]\011/* MoveDirectAbsPt */
DELTAP1[ ]\011/* DeltaExceptionP1 */
MDRP[01101]\011/* MoveDirectRelPt */
DELTAP1[ ]\011/* DeltaExceptionP1 */
MDRP[01101]\011/* MoveDirectRelPt */
DELTAP1[ ]\011/* DeltaExceptionP1 */
SHP[1]\011/* ShiftPointByLastPoint */
SHP[1]\011/* ShiftPointByLastPoint */
IUP[1]\011/* InterpolateUntPts */
IUP[0]\011/* InterpolateUntPts */";
};
width = 1229;
}
);
note = greater;
unicode = 003E;
},
{
glyphname = question;
lastChange = "2019-12-17 17:45:32 +0000";
layers = (
{
layerId = "AF7A9115-5511-47E4-B81C-CE1A1F9990A7";
paths = (
{
closed = 1;
nodes = (
"683 473 OFFCURVE",
"803 587 OFFCURVE",
"931 664 QCURVE SMOOTH",
"1065 745 OFFCURVE",
"1207 934 OFFCURVE",
"1207 1058 QCURVE SMOOTH",
"1207 1205 OFFCURVE",
"971 1370 OFFCURVE",
"766 1370 QCURVE SMOOTH",
"542 1370 OFFCURVE",
"218 1144 OFFCURVE",
"152 941 QCURVE",
"435 929 LINE",
"466 1027 OFFCURVE",
"625 1144 OFFCURVE",
"726 1144 QCURVE SMOOTH",
"820 1144 OFFCURVE",
"917 1065 OFFCURVE",
"917 1005 QCURVE SMOOTH",
"917 947 OFFCURVE",
"840 845 OFFCURVE",
"756 792 QCURVE SMOOTH",
"625 707 OFFCURVE",
"537 640 OFFCURVE",
"466 559 OFFCURVE",
"415 465 OFFCURVE",
"400 406 QCURVE",
"667 406 LINE"
);
},
{
closed = 1;
nodes = (
"602 0 LINE",
"654 270 LINE",
"365 270 LINE",
"313 0 LINE"
);
}
);
userData = {
assembly = "NPUSHB[ ]\011/* 31 values pushed */
9 22 15 1 31 1 2 11 3 1 1 19 28 28 29 158 91 28 15 15 1 12 4 15 19 19 12 95 89 19 4 
SVTCA[0]\011/* SetFreedomAndProjectionVectorToAxis */
MIAP[1]\011/* MoveIndirectAbsPt */
CALL[ ]\011/* CallFunction */
SRP1[ ]\011/* SetRefPoint1 */
SVTCA[0]\011/* SetFreedomAndProjectionVectorToAxis */
SHP[1]\011/* ShiftPointByLastPoint */
SDS[ ]\011/* SetDeltaShiftInGState */
SDB[ ]\011/* SetDeltaBaseInGState */
DELTAP1[ ]\011/* DeltaExceptionP1 */
RTG[ ]\011/* RoundToGrid */
MDAP[1]\011/* MoveDirectAbsPt */
CALL[ ]\011/* CallFunction */
SRP1[ ]\011/* SetRefPoint1 */
SRP2[ ]\011/* SetRefPoint2 */
SVTCA[0]\011/* SetFreedomAndProjectionVectorToAxis */
IP[ ]\011/* InterpolatePts */
RTG[ ]\011/* RoundToGrid */
MDAP[1]\011/* MoveDirectAbsPt */
SDS[ ]\011/* SetDeltaShiftInGState */
SDB[ ]\011/* SetDeltaBaseInGState */
DELTAP1[ ]\011/* DeltaExceptionP1 */
IP[ ]\011/* InterpolatePts */
IP[ ]\011/* InterpolatePts */
IUP[1]\011/* InterpolateUntPts */
IUP[0]\011/* InterpolateUntPts */";
};
width = 1229;
}
);
note = question;
unicode = 003F;
},
{
glyphname = at;
lastChange = "2019-12-17 17:45:32 +0000";
layers = (
{
layerId = "AF7A9115-5511-47E4-B81C-CE1A1F9990A7";
paths = (
{
closed = 1;
nodes = (
"914 104 OFFCURVE",
"1121 355 OFFCURVE",
"1255 802 OFFCURVE",
"1255 987 QCURVE SMOOTH",
"1255 1221 OFFCURVE",
"1047 1484 OFFCURVE",
"855 1484 QCURVE SMOOTH",
"685 1484 OFFCURVE",
"382 1289 OFFCURVE",
"150 930 OFFCURVE",
"11 444 OFFCURVE",
"11 249 QCURVE SMOOTH",
"11 1 OFFCURVE",
"231 -283 OFFCURVE",
"434 -283 QCURVE SMOOTH",
"550 -283 OFFCURVE",
"781 -196 OFFCURVE",
"921 -94 QCURVE",
"869 3 LINE",
"749 -85 OFFCURVE",
"561 -155 OFFCURVE",
"469 -155 QCURVE SMOOTH",
"316 -155 OFFCURVE",
"150 72 OFFCURVE",
"150 275 QCURVE SMOOTH",
"150 443 OFFCURVE",
"266 866 OFFCURVE",
"454 1182 OFFCURVE",
"695 1358 OFFCURVE",
"829 1358 QCURVE SMOOTH",
"968 1358 OFFCURVE",
"1120 1146 OFFCURVE",
"1120 958 QCURVE SMOOTH",
"1120 820 OFFCURVE",
"1024 444 OFFCURVE",
"895 226 OFFCURVE",
"830 226 QCURVE SMOOTH",
"813 226 OFFCURVE",
"791 239 OFFCURVE",
"791 264 QCURVE SMOOTH",
"791 292 OFFCURVE",
"827 413 OFFCURVE",
"888 572 QCURVE SMOOTH",
"1086 1079 LINE",
"951 1079 LINE",
"888 928 LINE",
"883 928 LINE",
"883 946 LINE SMOOTH",
"883 1021 OFFCURVE",
"816 1101 OFFCURVE",
"753 1101 QCURVE SMOOTH",
"634 1101 OFFCURVE",
"404 880 OFFCURVE",
"251 503 OFFCURVE",
"251 336 QCURVE SMOOTH",
"251 223 OFFCURVE",
"336 104 OFFCURVE",
"417 104 QCURVE SMOOTH",
"492 104 OFFCURVE",
"641 219 OFFCURVE",
"692 309 QCURVE",
"698 309 LINE",
"687 261 LINE SMOOTH",
"682 238 OFFCURVE",
"682 212 QCURVE SMOOTH",
"682 104 OFFCURVE",
"799 104 QCURVE SMOOTH"
);
},
{
closed = 1;
nodes = (
"815 799 OFFCURVE",
"706 483 OFFCURVE",
"611 315 OFFCURVE",
"514 230 OFFCURVE",
"466 230 QCURVE SMOOTH",
"404 230 OFFCURVE",
"404 339 QCURVE SMOOTH",
"404 460 OFFCURVE",
"507 780 OFFCURVE",
"659 979 OFFCURVE",
"731 979 QCURVE SMOOTH",
"812 979 OFFCURVE",
"812 873 QCURVE SMOOTH"
);
}
);
userData = {
assembly = "NPUSHB[ ]\011/* 64 values pushed */
0 30 213 89 0 0 9 9 75 213 89 6 9 16 69 213 89 22 22 20 16 15 9 31 9 95 9 111 9 127 9 5 11 0 16 1 12 3 9 16 9 16 52 60 60 37 213 89 60 0 0 48 16 48 2 9 5 48 52 52 45 213 89 52 
SVTCA[0]\011/* SetFreedomAndProjectionVectorToAxis */
MDAP[1]\011/* MoveDirectAbsPt */
CALL[ ]\011/* CallFunction */
SRP1[ ]\011/* SetRefPoint1 */
SVTCA[0]\011/* SetFreedomAndProjectionVectorToAxis */
SHP[1]\011/* ShiftPointByLastPoint */
SDS[ ]\011/* SetDeltaShiftInGState */
SDB[ ]\011/* SetDeltaBaseInGState */
DELTAP1[ ]\011/* DeltaExceptionP1 */
RTG[ ]\011/* RoundToGrid */
MIAP[1]\011/* MoveIndirectAbsPt */
CALL[ ]\011/* CallFunction */
SRP1[ ]\011/* SetRefPoint1 */
SRP2[ ]\011/* SetRefPoint2 */
SVTCA[0]\011/* SetFreedomAndProjectionVectorToAxis */
IP[ ]\011/* InterpolatePts */
IP[ ]\011/* InterpolatePts */
RTG[ ]\011/* RoundToGrid */
MDAP[1]\011/* MoveDirectAbsPt */
MDAP[1]\011/* MoveDirectAbsPt */
SDS[ ]\011/* SetDeltaShiftInGState */
SDB[ ]\011/* SetDeltaBaseInGState */
DELTAP1[ ]\011/* DeltaExceptionP1 */
SDB[ ]\011/* SetDeltaBaseInGState */
DELTAP1[ ]\011/* DeltaExceptionP1 */
SRP1[ ]\011/* SetRefPoint1 */
SHP[1]\011/* ShiftPointByLastPoint */
SHP[1]\011/* ShiftPointByLastPoint */
MDAP[1]\011/* MoveDirectAbsPt */
CALL[ ]\011/* CallFunction */
SRP1[ ]\011/* SetRefPoint1 */
SVTCA[0]\011/* SetFreedomAndProjectionVectorToAxis */
SHP[1]\011/* ShiftPointByLastPoint */
CALL[ ]\011/* CallFunction */
SRP1[ ]\011/* SetRefPoint1 */
SVTCA[0]\011/* SetFreedomAndProjectionVectorToAxis */
SHP[1]\011/* ShiftPointByLastPoint */
RTG[ ]\011/* RoundToGrid */
MDAP[1]\011/* MoveDirectAbsPt */
CALL[ ]\011/* CallFunction */
IUP[1]\011/* InterpolateUntPts */
IUP[0]\011/* InterpolateUntPts */";
};
width = 1229;
}
);
note = at;
unicode = 0040;
},
{
glyphname = A;
lastChange = "2019-12-17 17:45:32 +0000";
layers = (
{
layerId = "AF7A9115-5511-47E4-B81C-CE1A1F9990A7";
paths = (
{
closed = 1;
nodes = (
"944 1349 LINE",
"600 1349 LINE",
"-105 0 LINE",
"190 0 LINE",
"346 330 LINE",
"802 330 LINE",
"830 0 LINE",
"1124 0 LINE"
);
},
{
closed = 1;
nodes = (
"738 1132 LINE",
"749 932 LINE",
"783 552 LINE",
"451 552 LINE",
"660 990 OFFCURVE",
"721 1126 OFFCURVE",
"737 1167 QCURVE"
);
}
);
userData = {
assembly = "NPUSHB[ ]\011/* 12 values pushed */
11 3 97 89 11 11 8 6 3 4 0 18 
SVTCA[0]\011/* SetFreedomAndProjectionVectorToAxis */
MIAP[1]\011/* MoveIndirectAbsPt */
SHP[0]\011/* ShiftPointByLastPoint */
MIAP[1]\011/* MoveIndirectAbsPt */
SHP[1]\011/* ShiftPointByLastPoint */
IP[ ]\011/* InterpolatePts */
MDAP[1]\011/* MoveDirectAbsPt */
CALL[ ]\011/* CallFunction */
IUP[1]\011/* InterpolateUntPts */
IUP[0]\011/* InterpolateUntPts */";
};
width = 1229;
}
);
note = A;
unicode = 0041;
},
{
glyphname = B;
lastChange = "2019-12-17 17:45:32 +0000";
layers = (
{
layerId = "AF7A9115-5511-47E4-B81C-CE1A1F9990A7";
paths = (
{
closed = 1;
nodes = (
"738 0 OFFCURVE",
"944 68 OFFCURVE",
"1091 200 OFFCURVE",
"1163 373 OFFCURVE",
"1163 453 QCURVE SMOOTH",
"1163 562 OFFCURVE",
"1014 693 OFFCURVE",
"869 709 QCURVE",
"1032 742 OFFCURVE",
"1204 945 OFFCURVE",
"1204 1088 QCURVE SMOOTH",
"1204 1218 OFFCURVE",
"1006 1349 OFFCURVE",
"819 1349 QCURVE SMOOTH",
"294 1349 LINE",
"32 0 LINE",
"614 0 LINE SMOOTH"
);
},
{
closed = 1;
nodes = (
"897 998 OFFCURVE",
"892 970 QCURVE SMOOTH",
"860 811 OFFCURVE",
"696 811 QCURVE SMOOTH",
"485 811 LINE",
"547 1130 LINE",
"756 1130 LINE SMOOTH",
"897 1130 OFFCURVE",
"897 1017 QCURVE SMOOTH"
);
},
{
closed = 1;
nodes = (
"869 395 OFFCURVE",
"812 279 OFFCURVE",
"705 219 OFFCURVE",
"627 219 QCURVE SMOOTH",
"370 219 LINE",
"442 593 LINE",
"692 593 LINE SMOOTH",
"779 593 OFFCURVE",
"869 523 OFFCURVE",
"869 457 QCURVE SMOOTH"
);
}
);
userData = {
assembly = "NPUSHB[ ]\011/* 41 values pushed */
9 21 30 21 30 97 89 171 21 187 21 2 62 21 1 4 42 21 1 3 15 21 1 11 6 21 21 1 2 2 20 97 89 2 3 1 31 97 89 1 18 
SVTCA[0]\011/* SetFreedomAndProjectionVectorToAxis */
MIAP[1]\011/* MoveIndirectAbsPt */
CALL[ ]\011/* CallFunction */
SVTCA[0]\011/* SetFreedomAndProjectionVectorToAxis */
RTG[ ]\011/* RoundToGrid */
MIAP[1]\011/* MoveIndirectAbsPt */
CALL[ ]\011/* CallFunction */
SRP1[ ]\011/* SetRefPoint1 */
SRP2[ ]\011/* SetRefPoint2 */
SVTCA[0]\011/* SetFreedomAndProjectionVectorToAxis */
IP[ ]\011/* InterpolatePts */
RTG[ ]\011/* RoundToGrid */
MDAP[1]\011/* MoveDirectAbsPt */
SDS[ ]\011/* SetDeltaShiftInGState */
SDB[ ]\011/* SetDeltaBaseInGState */
DELTAP1[ ]\011/* DeltaExceptionP1 */
SDS[ ]\011/* SetDeltaShiftInGState */
DELTAP1[ ]\011/* DeltaExceptionP1 */
SDS[ ]\011/* SetDeltaShiftInGState */
DELTAP1[ ]\011/* DeltaExceptionP1 */
DELTAP1[ ]\011/* DeltaExceptionP1 */
CALL[ ]\011/* CallFunction */
SRP1[ ]\011/* SetRefPoint1 */
SRP2[ ]\011/* SetRefPoint2 */
SVTCA[0]\011/* SetFreedomAndProjectionVectorToAxis */
IP[ ]\011/* InterpolatePts */
IUP[1]\011/* InterpolateUntPts */
IUP[0]\011/* InterpolateUntPts */";
};
width = 1229;
}
);
note = B;
unicode = 0042;
},
{
glyphname = C;
lastChange = "2019-12-17 17:45:32 +0000";
layers = (
{
layerId = "AF7A9115-5511-47E4-B81C-CE1A1F9990A7";
paths = (
{
closed = 1;
nodes = (
"386 629 OFFCURVE",
"484 967 OFFCURVE",
"651 1138 OFFCURVE",
"768 1138 QCURVE SMOOTH",
"844 1138 OFFCURVE",
"936 1022 OFFCURVE",
"945 915 QCURVE",
"1230 981 LINE",
"1184 1370 OFFCURVE",
"809 1370 QCURVE SMOOTH",
"243 1370 OFFCURVE",
"107 681 QCURVE SMOOTH",
"83 557 OFFCURVE",
"83 449 QCURVE SMOOTH",
"83 217 OFFCURVE",
"317 -20 OFFCURVE",
"547 -20 QCURVE SMOOTH",
"928 -20 OFFCURVE",
"1146 404 QCURVE",
"883 456 LINE",
"759 212 OFFCURVE",
"595 212 QCURVE SMOOTH",
"386 212 OFFCURVE",
"386 486 QCURVE SMOOTH"
);
}
);
userData = {
assembly = "NPUSHB[ ]\011/* 23 values pushed */
14 20 95 89 16 17 1 17 14 4 0 4 1 11 5 4 7 7 2 95 89 7 19 
SVTCA[0]\011/* SetFreedomAndProjectionVectorToAxis */
MIAP[1]\011/* MoveIndirectAbsPt */
CALL[ ]\011/* CallFunction */
SRP1[ ]\011/* SetRefPoint1 */
SVTCA[0]\011/* SetFreedomAndProjectionVectorToAxis */
SHP[1]\011/* ShiftPointByLastPoint */
SDS[ ]\011/* SetDeltaShiftInGState */
SDB[ ]\011/* SetDeltaBaseInGState */
DELTAP1[ ]\011/* DeltaExceptionP1 */
RTG[ ]\011/* RoundToGrid */
MIAP[1]\011/* MoveIndirectAbsPt */
SHP[1]\011/* ShiftPointByLastPoint */
DELTAP1[ ]\011/* DeltaExceptionP1 */
CALL[ ]\011/* CallFunction */
IUP[1]\011/* InterpolateUntPts */
IUP[0]\011/* InterpolateUntPts */";
};
width = 1229;
}
);
note = C;
unicode = 0043;
},
{
glyphname = D;
lastChange = "2019-12-17 17:45:32 +0000";
layers = (
{
layerId = "AF7A9115-5511-47E4-B81C-CE1A1F9990A7";
paths = (
{
closed = 1;
nodes = (
"620 0 OFFCURVE",
"896 128 OFFCURVE",
"1091 377 OFFCURVE",
"1199 734 OFFCURVE",
"1199 889 QCURVE SMOOTH",
"1199 1349 OFFCURVE",
"653 1349 QCURVE SMOOTH",
"292 1349 LINE",
"30 0 LINE",
"451 0 LINE SMOOTH"
);
},
{
closed = 1;
nodes = (
"898 778 OFFCURVE",
"880 685 QCURVE SMOOTH",
"790 228 OFFCURVE",
"471 228 QCURVE SMOOTH",
"369 228 LINE",
"543 1121 LINE",
"604 1121 LINE SMOOTH",
"751 1121 OFFCURVE",
"898 993 OFFCURVE",
"898 849 QCURVE SMOOTH"
);
}
);
userData = {
assembly = "NPUSHB[ ]\011/* 12 values pushed */
2 14 95 89 2 3 1 15 95 89 1 18 
SVTCA[0]\011/* SetFreedomAndProjectionVectorToAxis */
MIAP[1]\011/* MoveIndirectAbsPt */
CALL[ ]\011/* CallFunction */
SVTCA[0]\011/* SetFreedomAndProjectionVectorToAxis */
RTG[ ]\011/* RoundToGrid */
MIAP[1]\011/* MoveIndirectAbsPt */
CALL[ ]\011/* CallFunction */
IUP[1]\011/* InterpolateUntPts */
IUP[0]\011/* InterpolateUntPts */";
};
width = 1229;
}
);
note = D;
unicode = 0044;
},
{
glyphname = E;
lastChange = "2019-12-17 17:45:32 +0000";
layers = (
{
layerId = "AF7A9115-5511-47E4-B81C-CE1A1F9990A7";
paths = (
{
closed = 1;
nodes = (
"1041 0 LINE",
"1085 228 LINE",
"371 228 LINE",
"438 569 LINE",
"1050 569 LINE",
"1094 797 LINE",
"482 797 LINE",
"545 1121 LINE",
"1218 1121 LINE",
"1262 1349 LINE",
"294 1349 LINE",
"32 0 LINE"
);
}
);
userData = {
assembly = "PUSHB[ ]\011/* 5 values pushed */
5 8 95 89 5 
PUSHW[ ]\011/* 1 value pushed */
-32 
NPUSHB[ ]\011/* 41 values pushed */
14 2 77 239 5 1 220 5 1 59 5 1 42 5 170 5 186 5 3 3 15 5 1 11 6 5 5 1 0 1 4 95 89 1 3 0 9 95 89 0 18 
SVTCA[0]\011/* SetFreedomAndProjectionVectorToAxis */
MIAP[1]\011/* MoveIndirectAbsPt */
CALL[ ]\011/* CallFunction */
SVTCA[0]\011/* SetFreedomAndProjectionVectorToAxis */
RTG[ ]\011/* RoundToGrid */
MIAP[1]\011/* MoveIndirectAbsPt */
CALL[ ]\011/* CallFunction */
SRP1[ ]\011/* SetRefPoint1 */
SRP2[ ]\011/* SetRefPoint2 */
SVTCA[0]\011/* SetFreedomAndProjectionVectorToAxis */
IP[ ]\011/* InterpolatePts */
RTG[ ]\011/* RoundToGrid */
MDAP[1]\011/* MoveDirectAbsPt */
SDS[ ]\011/* SetDeltaShiftInGState */
SDB[ ]\011/* SetDeltaBaseInGState */
DELTAP1[ ]\011/* DeltaExceptionP1 */
SDS[ ]\011/* SetDeltaShiftInGState */
DELTAP1[ ]\011/* DeltaExceptionP1 */
DELTAP1[ ]\011/* DeltaExceptionP1 */
DELTAP1[ ]\011/* DeltaExceptionP1 */
DELTAP1[ ]\011/* DeltaExceptionP1 */
CALL[ ]\011/* CallFunction */
CALL[ ]\011/* CallFunction */
IUP[1]\011/* InterpolateUntPts */
IUP[0]\011/* InterpolateUntPts */";
};
width = 1229;
}
);
note = E;
unicode = 0045;
},
{
glyphname = F;
lastChange = "2019-12-17 17:45:32 +0000";
layers = (
{
layerId = "AF7A9115-5511-47E4-B81C-CE1A1F9990A7";
paths = (
{
closed = 1;
nodes = (
"1219 1121 LINE",
"1263 1349 LINE",
"324 1349 LINE",
"62 0 LINE",
"357 0 LINE",
"456 509 LINE",
"1077 509 LINE",
"1121 737 LINE",
"500 737 LINE",
"575 1121 LINE"
);
}
);
userData = {
assembly = "NPUSHB[ ]\011/* 17 values pushed */
1 4 95 89 1 1 5 7 7 0 95 89 7 3 6 5 18 
SVTCA[0]\011/* SetFreedomAndProjectionVectorToAxis */
MIAP[1]\011/* MoveIndirectAbsPt */
SHP[1]\011/* ShiftPointByLastPoint */
MIAP[1]\011/* MoveIndirectAbsPt */
CALL[ ]\011/* CallFunction */
SRP1[ ]\011/* SetRefPoint1 */
SRP2[ ]\011/* SetRefPoint2 */
SVTCA[0]\011/* SetFreedomAndProjectionVectorToAxis */
IP[ ]\011/* InterpolatePts */
RTG[ ]\011/* RoundToGrid */
MDAP[1]\011/* MoveDirectAbsPt */
CALL[ ]\011/* CallFunction */
IUP[1]\011/* InterpolateUntPts */
IUP[0]\011/* InterpolateUntPts */";
};
width = 1229;
}
);
note = F;
unicode = 0046;
},
{
glyphname = G;
lastChange = "2019-12-17 17:45:32 +0000";
layers = (
{
layerId = "AF7A9115-5511-47E4-B81C-CE1A1F9990A7";
paths = (
{
closed = 1;
nodes = (
"777 -20 OFFCURVE",
"1059 185 QCURVE",
"1167 743 LINE",
"623 743 LINE",
"581 525 LINE",
"855 525 LINE",
"809 290 LINE",
"768 259 OFFCURVE",
"642 216 OFFCURVE",
"587 216 QCURVE SMOOTH",
"385 216 OFFCURVE",
"385 483 QCURVE SMOOTH",
"385 623 OFFCURVE",
"483 977 OFFCURVE",
"640 1138 OFFCURVE",
"757 1138 QCURVE SMOOTH",
"888 1138 OFFCURVE",
"904 941 QCURVE",
"1188 995 LINE",
"1170 1186 OFFCURVE",
"978 1370 OFFCURVE",
"799 1370 QCURVE SMOOTH",
"631 1370 OFFCURVE",
"373 1247 OFFCURVE",
"193 1002 OFFCURVE",
"84 621 OFFCURVE",
"84 460 QCURVE SMOOTH",
"84 231 OFFCURVE",
"310 -20 OFFCURVE",
"526 -20 QCURVE SMOOTH"
);
}
);
userData = {
assembly = "NPUSHB[ ]\011/* 28 values pushed */
26 25 97 89 26 26 0 8 8 14 95 89 0 12 16 12 2 12 5 12 8 4 0 20 95 89 0 19 
SVTCA[0]\011/* SetFreedomAndProjectionVectorToAxis */
MIAP[1]\011/* MoveIndirectAbsPt */
CALL[ ]\011/* CallFunction */
SVTCA[0]\011/* SetFreedomAndProjectionVectorToAxis */
RTG[ ]\011/* RoundToGrid */
MIAP[1]\011/* MoveIndirectAbsPt */
SHP[1]\011/* ShiftPointByLastPoint */
SDS[ ]\011/* SetDeltaShiftInGState */
SDB[ ]\011/* SetDeltaBaseInGState */
DELTAP1[ ]\011/* DeltaExceptionP1 */
CALL[ ]\011/* CallFunction */
SRP1[ ]\011/* SetRefPoint1 */
SRP2[ ]\011/* SetRefPoint2 */
SVTCA[0]\011/* SetFreedomAndProjectionVectorToAxis */
IP[ ]\011/* InterpolatePts */
RTG[ ]\011/* RoundToGrid */
MDAP[1]\011/* MoveDirectAbsPt */
CALL[ ]\011/* CallFunction */
IUP[1]\011/* InterpolateUntPts */
IUP[0]\011/* InterpolateUntPts */";
};
width = 1229;
}
);
note = G;
unicode = 0047;
},
{
glyphname = H;
lastChange = "2019-12-17 17:45:32 +0000";
layers = (
{
layerId = "AF7A9115-5511-47E4-B81C-CE1A1F9990A7";
paths = (
{
closed = 1;
nodes = (
"986 0 LINE",
"1248 1349 LINE",
"953 1349 LINE",
"850 818 LINE",
"487 818 LINE",
"590 1349 LINE",
"295 1349 LINE",
"33 0 LINE",
"328 0 LINE",
"440 574 LINE",
"803 574 LINE",
"691 0 LINE"
);
}
);
userData = {
assembly = "NPUSHB[ ]\011/* 35 values pushed */
7 2 96 89 220 7 1 3 206 7 1 4 152 7 1 92 7 1 7 30 13 73 25 7 41 7 2 7 7 9 5 3 3 0 18 
SVTCA[0]\011/* SetFreedomAndProjectionVectorToAxis */
MIAP[1]\011/* MoveIndirectAbsPt */
SHP[0]\011/* ShiftPointByLastPoint */
MIAP[1]\011/* MoveIndirectAbsPt */
SHP[1]\011/* ShiftPointByLastPoint */
IP[ ]\011/* InterpolatePts */
MDAP[1]\011/* MoveDirectAbsPt */
DELTAP1[ ]\011/* DeltaExceptionP1 */
CALL[ ]\011/* CallFunction */
DELTAP1[ ]\011/* DeltaExceptionP1 */
DELTAP1[ ]\011/* DeltaExceptionP1 */
SDS[ ]\011/* SetDeltaShiftInGState */
DELTAP1[ ]\011/* DeltaExceptionP1 */
SDS[ ]\011/* SetDeltaShiftInGState */
DELTAP1[ ]\011/* DeltaExceptionP1 */
CALL[ ]\011/* CallFunction */
IUP[1]\011/* InterpolateUntPts */
IUP[0]\011/* InterpolateUntPts */";
};
width = 1229;
}
);
note = H;
unicode = 0048;
},
{
glyphname = I;
lastChange = "2019-12-17 17:45:32 +0000";
layers = (
{
layerId = "AF7A9115-5511-47E4-B81C-CE1A1F9990A7";
paths = (
{
closed = 1;
nodes = (
"270 1121 LINE",
"586 1121 LINE",
"412 228 LINE",
"96 228 LINE",
"52 0 LINE",
"968 0 LINE",
"1012 228 LINE",
"696 228 LINE",
"870 1121 LINE",
"1186 1121 LINE",
"1230 1349 LINE",
"314 1349 LINE"
);
}
);
userData = {
assembly = "NPUSHB[ ]\011/* 18 values pushed */
9 4 8 7 8 95 89 7 18 10 3 11 0 11 95 89 0 3 
SVTCA[0]\011/* SetFreedomAndProjectionVectorToAxis */
MIAP[1]\011/* MoveIndirectAbsPt */
CALL[ ]\011/* CallFunction */
SRP1[ ]\011/* SetRefPoint1 */
SVTCA[0]\011/* SetFreedomAndProjectionVectorToAxis */
SHP[1]\011/* ShiftPointByLastPoint */
SHP[1]\011/* ShiftPointByLastPoint */
RTG[ ]\011/* RoundToGrid */
MIAP[1]\011/* MoveIndirectAbsPt */
CALL[ ]\011/* CallFunction */
SRP1[ ]\011/* SetRefPoint1 */
SVTCA[0]\011/* SetFreedomAndProjectionVectorToAxis */
SHP[1]\011/* ShiftPointByLastPoint */
SHP[1]\011/* ShiftPointByLastPoint */
IUP[1]\011/* InterpolateUntPts */
IUP[0]\011/* InterpolateUntPts */";
};
width = 1229;
}
);
note = I;
unicode = 0049;
},
{
glyphname = J;
lastChange = "2019-12-17 17:45:32 +0000";
layers = (
{
layerId = "AF7A9115-5511-47E4-B81C-CE1A1F9990A7";
paths = (
{
closed = 1;
nodes = (
"667 -20 OFFCURVE",
"958 228 OFFCURVE",
"1001 446 QCURVE SMOOTH",
"1176 1349 LINE",
"581 1349 LINE",
"536 1118 LINE",
"837 1118 LINE",
"705 439 LINE SMOOTH",
"684 329 OFFCURVE",
"575 211 OFFCURVE",
"502 211 QCURVE SMOOTH",
"439 211 OFFCURVE",
"374 322 OFFCURVE",
"374 426 QCURVE SMOOTH",
"374 445 LINE",
"75 402 LINE",
"74 370 LINE SMOOTH",
"74 183 OFFCURVE",
"265 -20 OFFCURVE",
"455 -20 QCURVE SMOOTH"
);
}
);
userData = {
assembly = "NPUSHB[ ]\011/* 17 values pushed */
17 12 16 0 16 13 95 89 16 3 0 9 95 89 5 0 19 
SVTCA[0]\011/* SetFreedomAndProjectionVectorToAxis */
MIAP[1]\011/* MoveIndirectAbsPt */
SHP[0]\011/* ShiftPointByLastPoint */
CALL[ ]\011/* CallFunction */
SVTCA[0]\011/* SetFreedomAndProjectionVectorToAxis */
RTG[ ]\011/* RoundToGrid */
MIAP[1]\011/* MoveIndirectAbsPt */
CALL[ ]\011/* CallFunction */
SRP1[ ]\011/* SetRefPoint1 */
SRP2[ ]\011/* SetRefPoint2 */
SVTCA[0]\011/* SetFreedomAndProjectionVectorToAxis */
IP[ ]\011/* InterpolatePts */
IP[ ]\011/* InterpolatePts */
IUP[1]\011/* InterpolateUntPts */
IUP[0]\011/* InterpolateUntPts */";
};
width = 1229;
}
);
note = J;
unicode = 004A;
},
{
glyphname = K;
lastChange = "2019-12-17 17:45:32 +0000";
layers = (
{
layerId = "AF7A9115-5511-47E4-B81C-CE1A1F9990A7";
paths = (
{
closed = 1;
nodes = (
"1124 0 LINE",
"795 770 LINE",
"1367 1349 LINE",
"1024 1349 LINE",
"472 750 LINE",
"588 1349 LINE",
"293 1349 LINE",
"31 0 LINE",
"326 0 LINE",
"407 415 LINE",
"561 557 LINE",
"776 0 LINE"
);
}
);
userData = {
assembly = "NPUSHB[ ]\011/* 15 values pushed */
2 1 7 10 4 9 8 6 5 3 11 4 3 0 18 
SVTCA[0]\011/* SetFreedomAndProjectionVectorToAxis */
MIAP[1]\011/* MoveIndirectAbsPt */
SHP[0]\011/* ShiftPointByLastPoint */
SHP[0]\011/* ShiftPointByLastPoint */
SHP[0]\011/* ShiftPointByLastPoint */
MIAP[1]\011/* MoveIndirectAbsPt */
SHP[1]\011/* ShiftPointByLastPoint */
SHP[1]\011/* ShiftPointByLastPoint */
SHP[1]\011/* ShiftPointByLastPoint */
SLOOP[ ]\011/* SetLoopVariable */
IP[ ]\011/* InterpolatePts */
IUP[1]\011/* InterpolateUntPts */
IUP[0]\011/* InterpolateUntPts */";
};
width = 1229;
}
);
note = K;
unicode = 004B;
},
{
glyphname = L;
lastChange = "2019-12-17 17:45:32 +0000";
layers = (
{
layerId = "AF7A9115-5511-47E4-B81C-CE1A1F9990A7";
paths = (
{
closed = 1;
nodes = (
"1017 0 LINE",
"1061 228 LINE",
"445 228 LINE",
"663 1349 LINE",
"368 1349 LINE",
"106 0 LINE"
);
}
);
userData = {
assembly = "NPUSHB[ ]\011/* 9 values pushed */
2 1 3 0 3 95 89 0 18 
SVTCA[0]\011/* SetFreedomAndProjectionVectorToAxis */
MIAP[1]\011/* MoveIndirectAbsPt */
CALL[ ]\011/* CallFunction */
SVTCA[0]\011/* SetFreedomAndProjectionVectorToAxis */
RTG[ ]\011/* RoundToGrid */
MIAP[1]\011/* MoveIndirectAbsPt */
SHP[1]\011/* ShiftPointByLastPoint */
IUP[1]\011/* InterpolateUntPts */
IUP[0]\011/* InterpolateUntPts */";
};
width = 1229;
}
);
note = L;
unicode = 004C;
},
{
glyphname = M;
lastChange = "2019-12-17 17:45:32 +0000";
layers = (
{
layerId = "AF7A9115-5511-47E4-B81C-CE1A1F9990A7";
paths = (
{
closed = 1;
nodes = (
"1025 0 LINE",
"1287 1349 LINE",
"952 1349 LINE",
"719 849 LINE",
"685 768 OFFCURVE",
"634 619 QCURVE",
"643 760 OFFCURVE",
"643 803 QCURVE SMOOTH",
"641 850 LINE",
"603 1349 LINE",
"256 1349 LINE",
"-6 0 LINE",
"214 0 LINE",
"383 868 LINE SMOOTH",
"399 949 OFFCURVE",
"427 1169 QCURVE",
"430 928 OFFCURVE",
"437 828 QCURVE SMOOTH",
"472 360 LINE",
"690 360 LINE",
"905 828 LINE SMOOTH",
"938 897 OFFCURVE",
"1046 1169 QCURVE",
"1032 1120 OFFCURVE",
"982 919 OFFCURVE",
"972 868 QCURVE SMOOTH",
"803 0 LINE"
);
}
);
userData = {
assembly = "NPUSHB[ ]\011/* 14 values pushed */
21 8 4 11 11 16 8 8 24 16 3 14 0 18 
SVTCA[0]\011/* SetFreedomAndProjectionVectorToAxis */
MIAP[1]\011/* MoveIndirectAbsPt */
SHP[0]\011/* ShiftPointByLastPoint */
MIAP[1]\011/* MoveIndirectAbsPt */
SHP[1]\011/* ShiftPointByLastPoint */
IP[ ]\011/* InterpolatePts */
MDAP[1]\011/* MoveDirectAbsPt */
SRP2[ ]\011/* SetRefPoint2 */
IP[ ]\011/* InterpolatePts */
SRP1[ ]\011/* SetRefPoint1 */
SHP[1]\011/* ShiftPointByLastPoint */
SRP1[ ]\011/* SetRefPoint1 */
SHP[1]\011/* ShiftPointByLastPoint */
IUP[1]\011/* InterpolateUntPts */
IUP[0]\011/* InterpolateUntPts */";
};
width = 1229;
}
);
note = M;
unicode = 004D;
},
{
glyphname = N;
lastChange = "2019-12-17 17:45:32 +0000";
layers = (
{
layerId = "AF7A9115-5511-47E4-B81C-CE1A1F9990A7";
paths = (
{
closed = 1;
nodes = (
"989 0 LINE",
"1251 1349 LINE",
"994 1349 LINE",
"864 677 LINE SMOOTH",
"839 551 OFFCURVE",
"821 312 QCURVE",
"629 1349 LINE",
"292 1349 LINE",
"30 0 LINE",
"287 0 LINE",
"415 656 LINE SMOOTH",
"425 708 OFFCURVE",
"443 872 QCURVE SMOOTH",
"455 1010 LINE",
"643 0 LINE"
);
}
);
userData = {
assembly = "NPUSHB[ ]\011/* 14 values pushed */
11 4 13 12 8 1 7 3 14 9 6 5 0 18 
SVTCA[0]\011/* SetFreedomAndProjectionVectorToAxis */
MIAP[1]\011/* MoveIndirectAbsPt */
SHP[0]\011/* ShiftPointByLastPoint */
SHP[0]\011/* ShiftPointByLastPoint */
SHP[0]\011/* ShiftPointByLastPoint */
SHP[0]\011/* ShiftPointByLastPoint */
MIAP[1]\011/* MoveIndirectAbsPt */
SHP[1]\011/* ShiftPointByLastPoint */
SHP[1]\011/* ShiftPointByLastPoint */
SHP[1]\011/* ShiftPointByLastPoint */
SHP[1]\011/* ShiftPointByLastPoint */
IP[ ]\011/* InterpolatePts */
IP[ ]\011/* InterpolatePts */
IUP[1]\011/* InterpolateUntPts */
IUP[0]\011/* InterpolateUntPts */";
};
width = 1229;
}
);
note = N;
unicode = 004E;
},
{
glyphname = O;
lastChange = "2019-12-17 17:45:32 +0000";
layers = (
{
layerId = "AF7A9115-5511-47E4-B81C-CE1A1F9990A7";
paths = (
{
closed = 1;
nodes = (
"666 -20 OFFCURVE",
"922 113 OFFCURVE",
"1105 372 OFFCURVE",
"1209 753 OFFCURVE",
"1209 917 QCURVE SMOOTH",
"1209 1144 OFFCURVE",
"988 1370 OFFCURVE",
"776 1370 QCURVE SMOOTH",
"614 1370 OFFCURVE",
"357 1238 OFFCURVE",
"177 983 OFFCURVE",
"74 604 OFFCURVE",
"74 440 QCURVE SMOOTH",
"74 211 OFFCURVE",
"293 -20 OFFCURVE",
"506 -20 QCURVE SMOOTH"
);
},
{
closed = 1;
nodes = (
"909 752 OFFCURVE",
"813 395 OFFCURVE",
"657 212 OFFCURVE",
"551 212 QCURVE SMOOTH",
"374 212 OFFCURVE",
"374 466 QCURVE SMOOTH",
"374 604 OFFCURVE",
"469 960 OFFCURVE",
"624 1138 OFFCURVE",
"731 1138 QCURVE SMOOTH",
"909 1138 OFFCURVE",
"909 892 QCURVE SMOOTH"
);
}
);
userData = {
assembly = "NPUSHB[ ]\011/* 12 values pushed */
8 18 95 89 8 4 0 24 95 89 0 19 
SVTCA[0]\011/* SetFreedomAndProjectionVectorToAxis */
MIAP[1]\011/* MoveIndirectAbsPt */
CALL[ ]\011/* CallFunction */
SVTCA[0]\011/* SetFreedomAndProjectionVectorToAxis */
RTG[ ]\011/* RoundToGrid */
MIAP[1]\011/* MoveIndirectAbsPt */
CALL[ ]\011/* CallFunction */
IUP[1]\011/* InterpolateUntPts */
IUP[0]\011/* InterpolateUntPts */";
};
width = 1229;
}
);
note = O;
unicode = 004F;
},
{
glyphname = P;
lastChange = "2019-12-17 17:45:32 +0000";
layers = (
{
layerId = "AF7A9115-5511-47E4-B81C-CE1A1F9990A7";
paths = (
{
closed = 1;
nodes = (
"756 476 OFFCURVE",
"981 558 OFFCURVE",
"1138 707 OFFCURVE",
"1227 920 OFFCURVE",
"1227 1026 QCURVE SMOOTH",
"1227 1185 OFFCURVE",
"996 1349 OFFCURVE",
"773 1349 QCURVE SMOOTH",
"293 1349 LINE",
"31 0 LINE",
"326 0 LINE",
"419 476 LINE",
"616 476 LINE SMOOTH"
);
},
{
closed = 1;
nodes = (
"924 948 OFFCURVE",
"918 918 QCURVE SMOOTH",
"877 703 OFFCURVE",
"623 703 QCURVE SMOOTH",
"463 703 LINE",
"544 1120 LINE",
"696 1120 LINE SMOOTH",
"809 1120 OFFCURVE",
"924 1052 OFFCURVE",
"924 973 QCURVE SMOOTH"
);
}
);
userData = {
assembly = "NPUSHB[ ]\011/* 17 values pushed */
1 18 95 89 1 1 2 4 4 17 95 89 4 3 3 2 18 
SVTCA[0]\011/* SetFreedomAndProjectionVectorToAxis */
MIAP[1]\011/* MoveIndirectAbsPt */
SHP[1]\011/* ShiftPointByLastPoint */
MIAP[1]\011/* MoveIndirectAbsPt */
CALL[ ]\011/* CallFunction */
SRP1[ ]\011/* SetRefPoint1 */
SRP2[ ]\011/* SetRefPoint2 */
SVTCA[0]\011/* SetFreedomAndProjectionVectorToAxis */
IP[ ]\011/* InterpolatePts */
RTG[ ]\011/* RoundToGrid */
MDAP[1]\011/* MoveDirectAbsPt */
CALL[ ]\011/* CallFunction */
IUP[1]\011/* InterpolateUntPts */
IUP[0]\011/* InterpolateUntPts */";
};
width = 1229;
}
);
note = P;
unicode = 0050;
},
{
glyphname = Q;
lastChange = "2019-12-17 17:45:32 +0000";
layers = (
{
layerId = "AF7A9115-5511-47E4-B81C-CE1A1F9990A7";
paths = (
{
closed = 1;
nodes = (
"841 44 OFFCURVE",
"1078 304 OFFCURVE",
"1209 727 OFFCURVE",
"1209 917 QCURVE SMOOTH",
"1209 1144 OFFCURVE",
"988 1370 OFFCURVE",
"776 1370 QCURVE SMOOTH",
"612 1370 OFFCURVE",
"356 1237 OFFCURVE",
"177 982 OFFCURVE",
"74 604 OFFCURVE",
"74 439 QCURVE SMOOTH",
"74 57 OFFCURVE",
"376 -7 QCURVE",
"400 -219 OFFCURVE",
"580 -403 OFFCURVE",
"743 -403 QCURVE SMOOTH",
"857 -403 OFFCURVE",
"990 -375 QCURVE",
"1029 -173 LINE",
"948 -186 OFFCURVE",
"904 -186 QCURVE SMOOTH",
"796 -186 OFFCURVE",
"689 -94 OFFCURVE",
"674 0 QCURVE"
);
},
{
closed = 1;
nodes = (
"909 752 OFFCURVE",
"813 395 OFFCURVE",
"657 212 OFFCURVE",
"551 212 QCURVE SMOOTH",
"374 212 OFFCURVE",
"374 466 QCURVE SMOOTH",
"374 604 OFFCURVE",
"469 960 OFFCURVE",
"624 1138 OFFCURVE",
"731 1138 QCURVE SMOOTH",
"909 1138 OFFCURVE",
"909 892 QCURVE SMOOTH"
);
}
);
userData = {
assembly = "NPUSHB[ ]\011/* 20 values pushed */
18 27 95 89 18 4 11 33 97 89 0 11 19 6 8 8 3 97 89 8 
SVTCA[0]\011/* SetFreedomAndProjectionVectorToAxis */
MDAP[1]\011/* MoveDirectAbsPt */
CALL[ ]\011/* CallFunction */
SRP1[ ]\011/* SetRefPoint1 */
SVTCA[0]\011/* SetFreedomAndProjectionVectorToAxis */
SHP[1]\011/* ShiftPointByLastPoint */
RTG[ ]\011/* RoundToGrid */
MIAP[1]\011/* MoveIndirectAbsPt */
SHP[1]\011/* ShiftPointByLastPoint */
CALL[ ]\011/* CallFunction */
SVTCA[0]\011/* SetFreedomAndProjectionVectorToAxis */
RTG[ ]\011/* RoundToGrid */
MIAP[1]\011/* MoveIndirectAbsPt */
CALL[ ]\011/* CallFunction */
IUP[1]\011/* InterpolateUntPts */
IUP[0]\011/* InterpolateUntPts */";
};
width = 1229;
}
);
note = Q;
unicode = 0051;
},
{
glyphname = R;
lastChange = "2019-12-17 17:45:32 +0000";
layers = (
{
layerId = "AF7A9115-5511-47E4-B81C-CE1A1F9990A7";
paths = (
{
closed = 1;
nodes = (
"1122 0 LINE",
"886 581 LINE",
"967 603 OFFCURVE",
"1107 696 OFFCURVE",
"1201 822 OFFCURVE",
"1246 973 OFFCURVE",
"1246 1043 QCURVE SMOOTH",
"1246 1192 OFFCURVE",
"1018 1349 OFFCURVE",
"788 1349 QCURVE SMOOTH",
"294 1349 LINE",
"32 0 LINE",
"327 0 LINE",
"427 515 LINE",
"600 515 LINE",
"790 0 LINE"
);
},
{
closed = 1;
nodes = (
"937 937 LINE",
"900 744 OFFCURVE",
"648 744 QCURVE SMOOTH",
"472 744 LINE",
"545 1120 LINE",
"713 1120 LINE SMOOTH",
"823 1120 OFFCURVE",
"942 1059 OFFCURVE",
"942 983 QCURVE"
);
}
);
userData = {
assembly = "NPUSHB[ ]\011/* 27 values pushed */
14 1 2 21 2 95 89 0 21 1 15 3 21 21 0 5 5 20 95 89 5 3 15 4 3 0 18 
SVTCA[0]\011/* SetFreedomAndProjectionVectorToAxis */
MIAP[1]\011/* MoveIndirectAbsPt */
SHP[0]\011/* ShiftPointByLastPoint */
SHP[0]\011/* ShiftPointByLastPoint */
SHP[0]\011/* ShiftPointByLastPoint */
MIAP[1]\011/* MoveIndirectAbsPt */
CALL[ ]\011/* CallFunction */
SRP1[ ]\011/* SetRefPoint1 */
SRP2[ ]\011/* SetRefPoint2 */
SVTCA[0]\011/* SetFreedomAndProjectionVectorToAxis */
IP[ ]\011/* InterpolatePts */
RTG[ ]\011/* RoundToGrid */
MDAP[1]\011/* MoveDirectAbsPt */
SDS[ ]\011/* SetDeltaShiftInGState */
SDB[ ]\011/* SetDeltaBaseInGState */
DELTAP1[ ]\011/* DeltaExceptionP1 */
CALL[ ]\011/* CallFunction */
SRP1[ ]\011/* SetRefPoint1 */
SVTCA[0]\011/* SetFreedomAndProjectionVectorToAxis */
SHP[1]\011/* ShiftPointByLastPoint */
SHP[1]\011/* ShiftPointByLastPoint */
IUP[1]\011/* InterpolateUntPts */
IUP[0]\011/* InterpolateUntPts */";
};
width = 1229;
}
);
note = R;
unicode = 0052;
},
{
glyphname = S;
lastChange = "2019-12-17 17:45:32 +0000";
layers = (
{
layerId = "AF7A9115-5511-47E4-B81C-CE1A1F9990A7";
paths = (
{
closed = 1;
nodes = (
"697 -20 OFFCURVE",
"988 105 OFFCURVE",
"1144 337 OFFCURVE",
"1144 469 QCURVE SMOOTH",
"1144 548 OFFCURVE",
"1066 675 OFFCURVE",
"903 767 OFFCURVE",
"734 812 QCURVE SMOOTH",
"607 846 OFFCURVE",
"526 885 OFFCURVE",
"479 939 OFFCURVE",
"479 979 QCURVE SMOOTH",
"479 1028 OFFCURVE",
"537 1116 OFFCURVE",
"649 1161 OFFCURVE",
"730 1161 QCURVE SMOOTH",
"919 1161 OFFCURVE",
"927 978 QCURVE",
"1219 1007 LINE",
"1218 1193 OFFCURVE",
"1000 1370 OFFCURVE",
"776 1370 QCURVE SMOOTH",
"645 1370 OFFCURVE",
"420 1300 OFFCURVE",
"260 1170 OFFCURVE",
"184 1003 OFFCURVE",
"184 914 QCURVE SMOOTH",
"184 828 OFFCURVE",
"272 704 OFFCURVE",
"432 617 OFFCURVE",
"655 560 QCURVE SMOOTH",
"849 509 OFFCURVE",
"849 403 QCURVE SMOOTH",
"849 345 OFFCURVE",
"781 248 OFFCURVE",
"652 201 OFFCURVE",
"553 201 QCURVE SMOOTH",
"426 201 OFFCURVE",
"302 310 OFFCURVE",
"297 404 QCURVE",
"4 367 LINE",
"10 178 OFFCURVE",
"267 -20 OFFCURVE",
"502 -20 QCURVE SMOOTH"
);
}
);
userData = {
assembly = "NPUSHB[ ]\011/* 23 values pushed */
32 11 22 0 22 28 97 89 0 26 1 13 5 26 22 4 0 7 97 89 4 0 19 
SVTCA[0]\011/* SetFreedomAndProjectionVectorToAxis */
MIAP[1]\011/* MoveIndirectAbsPt */
SHP[0]\011/* ShiftPointByLastPoint */
CALL[ ]\011/* CallFunction */
SVTCA[0]\011/* SetFreedomAndProjectionVectorToAxis */
RTG[ ]\011/* RoundToGrid */
MIAP[1]\011/* MoveIndirectAbsPt */
SHP[1]\011/* ShiftPointByLastPoint */
SDS[ ]\011/* SetDeltaShiftInGState */
SDB[ ]\011/* SetDeltaBaseInGState */
DELTAP1[ ]\011/* DeltaExceptionP1 */
CALL[ ]\011/* CallFunction */
SRP1[ ]\011/* SetRefPoint1 */
SRP2[ ]\011/* SetRefPoint2 */
SVTCA[0]\011/* SetFreedomAndProjectionVectorToAxis */
IP[ ]\011/* InterpolatePts */
IP[ ]\011/* InterpolatePts */
IUP[1]\011/* InterpolateUntPts */
IUP[0]\011/* InterpolateUntPts */";
};
width = 1229;
}
);
note = S;
unicode = 0053;
},
{
glyphname = T;
lastChange = "2019-12-17 17:45:32 +0000";
layers = (
{
layerId = "AF7A9115-5511-47E4-B81C-CE1A1F9990A7";
paths = (
{
closed = 1;
nodes = (
"1281 1121 LINE",
"1325 1349 LINE",
"218 1349 LINE",
"174 1121 LINE",
"580 1121 LINE",
"362 0 LINE",
"657 0 LINE",
"875 1121 LINE"
);
}
);
userData = {
assembly = "NPUSHB[ ]\011/* 12 values pushed */
3 0 4 5 4 95 89 5 3 2 1 18 
SVTCA[0]\011/* SetFreedomAndProjectionVectorToAxis */
MIAP[1]\011/* MoveIndirectAbsPt */
SHP[1]\011/* ShiftPointByLastPoint */
MIAP[1]\011/* MoveIndirectAbsPt */
CALL[ ]\011/* CallFunction */
SRP1[ ]\011/* SetRefPoint1 */
SVTCA[0]\011/* SetFreedomAndProjectionVectorToAxis */
SHP[1]\011/* ShiftPointByLastPoint */
SHP[1]\011/* ShiftPointByLastPoint */
IUP[1]\011/* InterpolateUntPts */
IUP[0]\011/* InterpolateUntPts */";
};
width = 1229;
}
);
note = T;
unicode = 0054;
},
{
glyphname = U;
lastChange = "2019-12-17 17:45:32 +0000";
layers = (
{
layerId = "AF7A9115-5511-47E4-B81C-CE1A1F9990A7";
paths = (
{
closed = 1;
nodes = (
"745 -20 OFFCURVE",
"1044 257 OFFCURVE",
"1101 543 QCURVE SMOOTH",
"1257 1349 LINE",
"962 1349 LINE",
"805 541 LINE SMOOTH",
"770 362 OFFCURVE",
"646 211 OFFCURVE",
"543 211 QCURVE SMOOTH",
"471 211 OFFCURVE",
"403 282 OFFCURVE",
"403 367 QCURVE SMOOTH",
"403 436 OFFCURVE",
"422 531 QCURVE SMOOTH",
"581 1349 LINE",
"286 1349 LINE",
"127 528 LINE SMOOTH",
"105 418 OFFCURVE",
"105 330 QCURVE SMOOTH",
"105 151 OFFCURVE",
"291 -20 OFFCURVE",
"490 -20 QCURVE SMOOTH"
);
}
);
userData = {
assembly = "NPUSHB[ ]\011/* 17 values pushed */
5 8 16 19 4 0 18 17 7 6 3 0 13 95 89 0 19 
SVTCA[0]\011/* SetFreedomAndProjectionVectorToAxis */
MIAP[1]\011/* MoveIndirectAbsPt */
CALL[ ]\011/* CallFunction */
SVTCA[0]\011/* SetFreedomAndProjectionVectorToAxis */
RTG[ ]\011/* RoundToGrid */
MIAP[1]\011/* MoveIndirectAbsPt */
SHP[1]\011/* ShiftPointByLastPoint */
SHP[1]\011/* ShiftPointByLastPoint */
SHP[1]\011/* ShiftPointByLastPoint */
SRP2[ ]\011/* SetRefPoint2 */
SLOOP[ ]\011/* SetLoopVariable */
IP[ ]\011/* InterpolatePts */
IUP[1]\011/* InterpolateUntPts */
IUP[0]\011/* InterpolateUntPts */";
};
width = 1229;
}
);
note = U;
unicode = 0055;
},
{
glyphname = V;
lastChange = "2019-12-17 17:45:32 +0000";
layers = (
{
layerId = "AF7A9115-5511-47E4-B81C-CE1A1F9990A7";
paths = (
{
closed = 1;
nodes = (
"1384 1349 LINE",
"1079 1349 LINE",
"697 574 LINE SMOOTH",
"646 473 OFFCURVE",
"573 308 QCURVE",
"567 427 OFFCURVE",
"551 574 QCURVE SMOOTH",
"468 1349 LINE",
"160 1349 LINE",
"362 0 LINE",
"661 0 LINE"
);
}
);
userData = {
assembly = "NPUSHB[ ]\011/* 9 values pushed */
10 9 3 2 3 6 1 0 18 
SVTCA[0]\011/* SetFreedomAndProjectionVectorToAxis */
MIAP[1]\011/* MoveIndirectAbsPt */
SHP[0]\011/* ShiftPointByLastPoint */
SHP[0]\011/* ShiftPointByLastPoint */
MIAP[1]\011/* MoveIndirectAbsPt */
SHP[1]\011/* ShiftPointByLastPoint */
SHP[1]\011/* ShiftPointByLastPoint */
SHP[1]\011/* ShiftPointByLastPoint */
IUP[1]\011/* InterpolateUntPts */
IUP[0]\011/* InterpolateUntPts */";
};
width = 1229;
}
);
note = V;
unicode = 0056;
},
{
glyphname = W;
lastChange = "2019-12-17 17:45:32 +0000";
layers = (
{
layerId = "AF7A9115-5511-47E4-B81C-CE1A1F9990A7";
paths = (
{
closed = 1;
nodes = (
"1385 1349 LINE",
"1126 1349 LINE",
"907 654 LINE SMOOTH",
"884 580 OFFCURVE",
"845 415 QCURVE",
"837 388 LINE",
"837 434 LINE SMOOTH",
"840 536 OFFCURVE",
"817 766 OFFCURVE",
"797 971 QCURVE",
"602 971 LINE",
"437 632 LINE SMOOTH",
"366 476 OFFCURVE",
"334 388 QCURVE",
"366 570 OFFCURVE",
"370 654 QCURVE SMOOTH",
"416 1349 LINE",
"157 1349 LINE",
"106 0 LINE",
"354 0 LINE",
"632 630 OFFCURVE",
"635 636 QCURVE",
"645 371 OFFCURVE",
"650 312 QCURVE SMOOTH",
"665 0 LINE",
"913 0 LINE"
);
}
);
userData = {
assembly = "NPUSHB[ ]\011/* 16 values pushed */
16 4 15 15 25 24 9 8 3 20 12 7 6 1 0 18 
SVTCA[0]\011/* SetFreedomAndProjectionVectorToAxis */
MIAP[1]\011/* MoveIndirectAbsPt */
SHP[0]\011/* ShiftPointByLastPoint */
SHP[0]\011/* ShiftPointByLastPoint */
SHP[0]\011/* ShiftPointByLastPoint */
SHP[0]\011/* ShiftPointByLastPoint */
SHP[0]\011/* ShiftPointByLastPoint */
MIAP[1]\011/* MoveIndirectAbsPt */
SHP[1]\011/* ShiftPointByLastPoint */
SHP[1]\011/* ShiftPointByLastPoint */
SHP[1]\011/* ShiftPointByLastPoint */
IP[ ]\011/* InterpolatePts */
MDAP[1]\011/* MoveDirectAbsPt */
SHP[1]\011/* ShiftPointByLastPoint */
SHP[1]\011/* ShiftPointByLastPoint */
IUP[1]\011/* InterpolateUntPts */
IUP[0]\011/* InterpolateUntPts */";
};
width = 1229;
}
);
note = W;
unicode = 0057;
},
{
glyphname = X;
lastChange = "2019-12-17 17:45:32 +0000";
layers = (
{
layerId = "AF7A9115-5511-47E4-B81C-CE1A1F9990A7";
paths = (
{
closed = 1;
nodes = (
"1124 0 LINE",
"793 711 LINE",
"1345 1349 LINE",
"1035 1349 LINE",
"690 919 LINE",
"510 1349 LINE",
"198 1349 LINE",
"492 711 LINE",
"-105 0 LINE",
"207 0 LINE",
"607 493 LINE",
"814 0 LINE"
);
}
);
userData = {
assembly = "NPUSHB[ ]\011/* 28 values pushed */
13 1 29 1 2 54 4 1 2 7 18 7 2 7 10 4 1 4 9 8 6 5 3 11 3 2 0 18 
SVTCA[0]\011/* SetFreedomAndProjectionVectorToAxis */
MIAP[1]\011/* MoveIndirectAbsPt */
SHP[0]\011/* ShiftPointByLastPoint */
SHP[0]\011/* ShiftPointByLastPoint */
SHP[0]\011/* ShiftPointByLastPoint */
MIAP[1]\011/* MoveIndirectAbsPt */
SHP[1]\011/* ShiftPointByLastPoint */
SHP[1]\011/* ShiftPointByLastPoint */
SHP[1]\011/* ShiftPointByLastPoint */
SLOOP[ ]\011/* SetLoopVariable */
IP[ ]\011/* InterpolatePts */
DELTAP1[ ]\011/* DeltaExceptionP1 */
DELTAP1[ ]\011/* DeltaExceptionP1 */
DELTAP1[ ]\011/* DeltaExceptionP1 */
IUP[1]\011/* InterpolateUntPts */
IUP[0]\011/* InterpolateUntPts */";
};
width = 1229;
}
);
note = X;
unicode = 0058;
},
{
glyphname = Y;
lastChange = "2019-12-17 17:45:32 +0000";
layers = (
{
layerId = "AF7A9115-5511-47E4-B81C-CE1A1F9990A7";
paths = (
{
closed = 1;
nodes = (
"764 556 LINE",
"1382 1349 LINE",
"1073 1349 LINE",
"659 783 LINE",
"469 1349 LINE",
"160 1349 LINE",
"470 556 LINE",
"362 0 LINE",
"656 0 LINE"
);
}
);
userData = {
assembly = "NPUSHB[ ]\011/* 15 values pushed */
20 5 1 5 2 8 3 7 6 4 3 3 1 0 18 
SVTCA[0]\011/* SetFreedomAndProjectionVectorToAxis */
MIAP[1]\011/* MoveIndirectAbsPt */
SHP[0]\011/* ShiftPointByLastPoint */
MIAP[1]\011/* MoveIndirectAbsPt */
SHP[1]\011/* ShiftPointByLastPoint */
SHP[1]\011/* ShiftPointByLastPoint */
SHP[1]\011/* ShiftPointByLastPoint */
SLOOP[ ]\011/* SetLoopVariable */
IP[ ]\011/* InterpolatePts */
DELTAP1[ ]\011/* DeltaExceptionP1 */
IUP[1]\011/* InterpolateUntPts */
IUP[0]\011/* InterpolateUntPts */";
};
width = 1229;
}
);
note = Y;
unicode = 0059;
},
{
glyphname = Z;
lastChange = "2019-12-17 17:45:32 +0000";
layers = (
{
layerId = "AF7A9115-5511-47E4-B81C-CE1A1F9990A7";
paths = (
{
closed = 1;
nodes = (
"1078 231 LINE",
"366 231 LINE",
"1214 1144 LINE",
"1254 1349 LINE",
"320 1349 LINE",
"275 1118 LINE",
"870 1118 LINE",
"23 209 LINE",
"-18 0 LINE",
"1033 0 LINE"
);
}
);
userData = {
assembly = "NPUSHB[ ]\011/* 17 values pushed */
7 3 4 5 4 95 89 5 3 2 8 1 8 95 89 1 18 
SVTCA[0]\011/* SetFreedomAndProjectionVectorToAxis */
MIAP[1]\011/* MoveIndirectAbsPt */
CALL[ ]\011/* CallFunction */
SRP1[ ]\011/* SetRefPoint1 */
SVTCA[0]\011/* SetFreedomAndProjectionVectorToAxis */
SHP[1]\011/* ShiftPointByLastPoint */
RTG[ ]\011/* RoundToGrid */
MIAP[1]\011/* MoveIndirectAbsPt */
CALL[ ]\011/* CallFunction */
SRP1[ ]\011/* SetRefPoint1 */
SVTCA[0]\011/* SetFreedomAndProjectionVectorToAxis */
SHP[1]\011/* ShiftPointByLastPoint */
SHP[1]\011/* ShiftPointByLastPoint */
IUP[1]\011/* InterpolateUntPts */
IUP[0]\011/* InterpolateUntPts */";
};
width = 1229;
}
);
note = Z;
unicode = 005A;
},
{
glyphname = bracketleft;
lastChange = "2019-12-17 17:45:32 +0000";
layers = (
{
layerId = "AF7A9115-5511-47E4-B81C-CE1A1F9990A7";
paths = (
{
closed = 1;
nodes = (
"787 -425 LINE",
"825 -234 LINE",
"489 -234 LINE",
"786 1294 LINE",
"1122 1294 LINE",
"1158 1484 LINE",
"556 1484 LINE",
"185 -425 LINE"
);
}
);
userData = {
assembly = "NPUSHB[ ]\011/* 12 values pushed */
1 4 245 89 1 0 0 5 245 89 0 27 
SVTCA[0]\011/* SetFreedomAndProjectionVectorToAxis */
MIAP[1]\011/* MoveIndirectAbsPt */
CALL[ ]\011/* CallFunction */
SVTCA[0]\011/* SetFreedomAndProjectionVectorToAxis */
RTG[ ]\011/* RoundToGrid */
MIAP[1]\011/* MoveIndirectAbsPt */
CALL[ ]\011/* CallFunction */
IUP[1]\011/* InterpolateUntPts */
IUP[0]\011/* InterpolateUntPts */";
};
width = 1229;
}
);
note = bracketleft;
unicode = 005B;
},
{
glyphname = backslash;
lastChange = "2019-12-17 17:45:32 +0000";
layers = (
{
layerId = "AF7A9115-5511-47E4-B81C-CE1A1F9990A7";
paths = (
{
closed = 1;
nodes = (
"1031 -20 LINE",
"502 1484 LINE",
"274 1484 LINE",
"799 -20 LINE"
);
}
);
userData = {
assembly = "PUSHB[ ]\011/* 6 values pushed */
2 1 0 3 0 19 
SVTCA[0]\011/* SetFreedomAndProjectionVectorToAxis */
MIAP[1]\011/* MoveIndirectAbsPt */
SHP[0]\011/* ShiftPointByLastPoint */
MIAP[1]\011/* MoveIndirectAbsPt */
SHP[1]\011/* ShiftPointByLastPoint */
IUP[1]\011/* InterpolateUntPts */
IUP[0]\011/* InterpolateUntPts */";
};
width = 1229;
}
);
note = backslash;
unicode = 005C;
},
{
glyphname = bracketright;
lastChange = "2019-12-17 17:45:32 +0000";
layers = (
{
layerId = "AF7A9115-5511-47E4-B81C-CE1A1F9990A7";
paths = (
{
closed = 1;
nodes = (
"668 -425 LINE",
"1039 1484 LINE",
"437 1484 LINE",
"401 1294 LINE",
"737 1294 LINE",
"440 -234 LINE",
"104 -234 LINE",
"66 -425 LINE"
);
}
);
userData = {
assembly = "NPUSHB[ ]\011/* 12 values pushed */
7 2 245 89 7 27 6 3 245 89 6 0 
SVTCA[0]\011/* SetFreedomAndProjectionVectorToAxis */
MIAP[1]\011/* MoveIndirectAbsPt */
CALL[ ]\011/* CallFunction */
SVTCA[0]\011/* SetFreedomAndProjectionVectorToAxis */
RTG[ ]\011/* RoundToGrid */
MIAP[1]\011/* MoveIndirectAbsPt */
CALL[ ]\011/* CallFunction */
IUP[1]\011/* InterpolateUntPts */
IUP[0]\011/* InterpolateUntPts */";
};
width = 1229;
}
);
note = bracketright;
unicode = 005D;
},
{
glyphname = asciicircum;
lastChange = "2019-12-17 17:45:32 +0000";
layers = (
{
layerId = "AF7A9115-5511-47E4-B81C-CE1A1F9990A7";
paths = (
{
closed = 1;
nodes = (
"1146 514 LINE",
"927 1409 LINE",
"605 1409 LINE",
"40 514 LINE",
"267 514 LINE",
"737 1266 LINE",
"917 514 LINE"
);
}
);
userData = {
assembly = "NPUSHB[ ]\011/* 9 values pushed */
6 3 2 0 0 5 1 4 220 
SVTCA[0]\011/* SetFreedomAndProjectionVectorToAxis */
MIAP[1]\011/* MoveIndirectAbsPt */
SHP[1]\011/* ShiftPointByLastPoint */
SHP[1]\011/* ShiftPointByLastPoint */
SHP[1]\011/* ShiftPointByLastPoint */
MDAP[1]\011/* MoveDirectAbsPt */
SHP[0]\011/* ShiftPointByLastPoint */
SHP[0]\011/* ShiftPointByLastPoint */
SHP[0]\011/* ShiftPointByLastPoint */
IUP[1]\011/* InterpolateUntPts */
IUP[0]\011/* InterpolateUntPts */";
};
width = 1229;
}
);
note = asciicircum;
unicode = 005E;
},
{
glyphname = underscore;
lastChange = "2019-12-17 17:45:32 +0000";
layers = (
{
layerId = "AF7A9115-5511-47E4-B81C-CE1A1F9990A7";
paths = (
{
closed = 1;
nodes = (
"1085 -220 LINE",
"1104 -124 LINE",
"-134 -124 LINE",
"-153 -220 LINE"
);
}
);
userData = {
assembly = "PUSHB[ ]\011/* 5 values pushed */
1 0 185 89 1 
SVTCA[0]\011/* SetFreedomAndProjectionVectorToAxis */
MDAP[1]\011/* MoveDirectAbsPt */
CALL[ ]\011/* CallFunction */
IUP[1]\011/* InterpolateUntPts */
IUP[0]\011/* InterpolateUntPts */";
};
width = 1229;
}
);
note = underscore;
unicode = 005F;
},
{
glyphname = grave;
lastChange = "2019-12-17 17:45:32 +0000";
layers = (
{
layerId = "AF7A9115-5511-47E4-B81C-CE1A1F9990A7";
paths = (
{
closed = 1;
nodes = (
"982 1184 LINE",
"988 1215 LINE",
"783 1458 LINE",
"525 1458 LINE",
"517 1415 LINE",
"812 1184 LINE"
);
}
);
userData = {
assembly = "PUSHB[ ]\011/* 5 values pushed */
0 2 140 91 0 
SVTCA[0]\011/* SetFreedomAndProjectionVectorToAxis */
MDAP[1]\011/* MoveDirectAbsPt */
CALL[ ]\011/* CallFunction */
IUP[1]\011/* InterpolateUntPts */
IUP[0]\011/* InterpolateUntPts */";
};
width = 1229;
}
);
note = grave;
unicode = 0060;
},
{
glyphname = a;
lastChange = "2019-12-17 17:45:32 +0000";
layers = (
{
layerId = "AF7A9115-5511-47E4-B81C-CE1A1F9990A7";
paths = (
{
closed = 1;
nodes = (
"440 -20 OFFCURVE",
"622 80 OFFCURVE",
"708 193 QCURVE",
"714 193 LINE",
"712 152 LINE SMOOTH",
"712 71 OFFCURVE",
"796 -12 OFFCURVE",
"891 -12 QCURVE SMOOTH",
"921 -12 OFFCURVE",
"967 -8 OFFCURVE",
"1008 -2 OFFCURVE",
"1050 8 OFFCURVE",
"1076 14 QCURVE",
"1105 166 LINE",
"1074 160 OFFCURVE",
"1042 160 QCURVE SMOOTH",
"1004 160 OFFCURVE",
"973 198 OFFCURVE",
"973 235 QCURVE SMOOTH",
"973 265 OFFCURVE",
"984 320 QCURVE SMOOTH",
"1060 712 LINE SMOOTH",
"1071 770 OFFCURVE",
"1071 816 QCURVE SMOOTH",
"1071 957 OFFCURVE",
"892 1102 OFFCURVE",
"719 1102 QCURVE SMOOTH",
"315 1102 OFFCURVE",
"202 781 QCURVE",
"492 767 LINE",
"517 848 OFFCURVE",
"601 920 OFFCURVE",
"672 920 QCURVE SMOOTH",
"789 920 OFFCURVE",
"789 795 QCURVE SMOOTH",
"789 759 OFFCURVE",
"779 711 QCURVE SMOOTH",
"769 656 LINE",
"545 652 LINE SMOOTH",
"128 647 OFFCURVE",
"60 306 QCURVE SMOOTH",
"51 261 OFFCURVE",
"51 222 QCURVE SMOOTH",
"51 104 OFFCURVE",
"196 -20 OFFCURVE",
"330 -20 QCURVE SMOOTH"
);
},
{
closed = 1;
nodes = (
"728 446 LINE SMOOTH",
"706 333 OFFCURVE",
"546 176 OFFCURVE",
"448 176 QCURVE SMOOTH",
"352 176 OFFCURVE",
"352 274 QCURVE SMOOTH",
"352 332 OFFCURVE",
"399 445 OFFCURVE",
"499 497 OFFCURVE",
"604 499 QCURVE SMOOTH",
"738 501 LINE"
);
}
);
userData = {
assembly = "NPUSHB[ ]\011/* 34 values pushed */
38 30 81 89 38 22 8 46 81 89 42 0 8 1 11 3 8 16 8 16 0 19 19 13 81 89 19 16 0 53 80 89 0 22 
SVTCA[0]\011/* SetFreedomAndProjectionVectorToAxis */
MIAP[1]\011/* MoveIndirectAbsPt */
CALL[ ]\011/* CallFunction */
SVTCA[0]\011/* SetFreedomAndProjectionVectorToAxis */
RTG[ ]\011/* RoundToGrid */
MIAP[1]\011/* MoveIndirectAbsPt */
CALL[ ]\011/* CallFunction */
SRP1[ ]\011/* SetRefPoint1 */
SRP2[ ]\011/* SetRefPoint2 */
SVTCA[0]\011/* SetFreedomAndProjectionVectorToAxis */
IP[ ]\011/* InterpolatePts */
IP[ ]\011/* InterpolatePts */
RTG[ ]\011/* RoundToGrid */
MDAP[1]\011/* MoveDirectAbsPt */
MDAP[1]\011/* MoveDirectAbsPt */
SDS[ ]\011/* SetDeltaShiftInGState */
SDB[ ]\011/* SetDeltaBaseInGState */
DELTAP1[ ]\011/* DeltaExceptionP1 */
IP[ ]\011/* InterpolatePts */
CALL[ ]\011/* CallFunction */
SVTCA[0]\011/* SetFreedomAndProjectionVectorToAxis */
RTG[ ]\011/* RoundToGrid */
MIAP[1]\011/* MoveIndirectAbsPt */
CALL[ ]\011/* CallFunction */
IUP[1]\011/* InterpolateUntPts */
IUP[0]\011/* InterpolateUntPts */";
};
width = 1229;
}
);
note = a;
unicode = 0061;
},
{
glyphname = b;
lastChange = "2019-12-17 17:45:32 +0000";
layers = (
{
layerId = "AF7A9115-5511-47E4-B81C-CE1A1F9990A7";
paths = (
{
closed = 1;
nodes = (
"307 0 LINE",
"314 15 OFFCURVE",
"347 128 OFFCURVE",
"356 176 QCURVE",
"360 176 LINE",
"385 81 OFFCURVE",
"523 -20 OFFCURVE",
"628 -20 QCURVE SMOOTH",
"739 -20 OFFCURVE",
"931 97 OFFCURVE",
"1075 317 OFFCURVE",
"1154 611 OFFCURVE",
"1154 744 QCURVE SMOOTH",
"1154 917 OFFCURVE",
"1002 1103 OFFCURVE",
"855 1103 QCURVE SMOOTH",
"743 1103 OFFCURVE",
"559 1003 OFFCURVE",
"501 912 QCURVE",
"499 912 LINE",
"536 1090 LINE",
"612 1484 LINE",
"331 1484 LINE",
"89 236 LINE",
"58 96 LINE",
"35 0 LINE"
);
},
{
closed = 1;
nodes = (
"410 464 OFFCURVE",
"426 547 QCURVE SMOOTH",
"460 719 OFFCURVE",
"609 912 OFFCURVE",
"708 912 QCURVE SMOOTH",
"857 912 OFFCURVE",
"857 706 QCURVE SMOOTH",
"857 589 OFFCURVE",
"781 315 OFFCURVE",
"651 172 OFFCURVE",
"566 172 QCURVE SMOOTH",
"493 172 OFFCURVE",
"410 293 OFFCURVE",
"410 399 QCURVE SMOOTH"
);
}
);
userData = {
assembly = "NPUSHB[ ]\011/* 21 values pushed */
6 21 10 18 18 29 80 89 18 22 10 35 80 89 10 16 4 3 0 0 21 
SVTCA[0]\011/* SetFreedomAndProjectionVectorToAxis */
MIAP[1]\011/* MoveIndirectAbsPt */
MIAP[1]\011/* MoveIndirectAbsPt */
SHP[1]\011/* ShiftPointByLastPoint */
MIAP[1]\011/* MoveIndirectAbsPt */
CALL[ ]\011/* CallFunction */
SVTCA[0]\011/* SetFreedomAndProjectionVectorToAxis */
RTG[ ]\011/* RoundToGrid */
MIAP[1]\011/* MoveIndirectAbsPt */
CALL[ ]\011/* CallFunction */
SRP1[ ]\011/* SetRefPoint1 */
SRP2[ ]\011/* SetRefPoint2 */
SVTCA[0]\011/* SetFreedomAndProjectionVectorToAxis */
IP[ ]\011/* InterpolatePts */
IP[ ]\011/* InterpolatePts */
IUP[1]\011/* InterpolateUntPts */
IUP[0]\011/* InterpolateUntPts */";
};
width = 1229;
}
);
note = b;
unicode = 0062;
},
{
glyphname = c;
lastChange = "2019-12-17 17:45:32 +0000";
layers = (
{
layerId = "AF7A9115-5511-47E4-B81C-CE1A1F9990A7";
paths = (
{
closed = 1;
nodes = (
"648 -20 OFFCURVE",
"877 77 OFFCURVE",
"1039 251 OFFCURVE",
"1074 360 QCURVE",
"795 373 LINE",
"763 273 OFFCURVE",
"634 172 OFFCURVE",
"554 172 QCURVE SMOOTH",
"388 172 OFFCURVE",
"388 385 QCURVE SMOOTH",
"388 500 OFFCURVE",
"468 774 OFFCURVE",
"598 909 OFFCURVE",
"694 909 QCURVE SMOOTH",
"782 909 OFFCURVE",
"855 816 OFFCURVE",
"855 746 QCURVE SMOOTH",
"854 727 LINE",
"1140 741 LINE",
"1140 746 LINE SMOOTH",
"1140 912 OFFCURVE",
"927 1102 OFFCURVE",
"737 1102 QCURVE SMOOTH",
"594 1102 OFFCURVE",
"356 997 OFFCURVE",
"185 794 OFFCURVE",
"93 511 OFFCURVE",
"93 378 QCURVE SMOOTH",
"93 186 OFFCURVE",
"311 -20 OFFCURVE",
"515 -20 QCURVE SMOOTH"
);
}
);
userData = {
assembly = "NPUSHB[ ]\011/* 23 values pushed */
8 17 80 89 15 13 1 13 8 16 0 26 1 14 5 26 0 0 23 80 89 0 22 
SVTCA[0]\011/* SetFreedomAndProjectionVectorToAxis */
MIAP[1]\011/* MoveIndirectAbsPt */
CALL[ ]\011/* CallFunction */
SRP1[ ]\011/* SetRefPoint1 */
SVTCA[0]\011/* SetFreedomAndProjectionVectorToAxis */
SHP[1]\011/* ShiftPointByLastPoint */
SDS[ ]\011/* SetDeltaShiftInGState */
SDB[ ]\011/* SetDeltaBaseInGState */
DELTAP1[ ]\011/* DeltaExceptionP1 */
RTG[ ]\011/* RoundToGrid */
MIAP[1]\011/* MoveIndirectAbsPt */
SHP[1]\011/* ShiftPointByLastPoint */
DELTAP1[ ]\011/* DeltaExceptionP1 */
CALL[ ]\011/* CallFunction */
IUP[1]\011/* InterpolateUntPts */
IUP[0]\011/* InterpolateUntPts */";
};
width = 1229;
}
);
note = c;
unicode = 0063;
},
{
glyphname = d;
lastChange = "2019-12-17 17:45:32 +0000";
layers = (
{
layerId = "AF7A9115-5511-47E4-B81C-CE1A1F9990A7";
paths = (
{
closed = 1;
nodes = (
"984 0 LINE",
"1010 177 OFFCURVE",
"1022 236 QCURVE SMOOTH",
"1264 1484 LINE",
"983 1484 LINE",
"906 1087 LINE",
"874 909 LINE",
"872 909 LINE",
"850 1000 OFFCURVE",
"710 1100 OFFCURVE",
"602 1100 QCURVE SMOOTH",
"487 1100 OFFCURVE",
"298 989 OFFCURVE",
"159 779 OFFCURVE",
"77 479 OFFCURVE",
"77 349 QCURVE SMOOTH",
"77 173 OFFCURVE",
"230 -20 OFFCURVE",
"373 -20 QCURVE SMOOTH",
"486 -20 OFFCURVE",
"659 76 OFFCURVE",
"727 176 QCURVE",
"731 176 LINE",
"726 148 OFFCURVE",
"712 30 OFFCURVE",
"712 8 QCURVE SMOOTH",
"712 0 LINE"
);
},
{
closed = 1;
nodes = (
"821 629 OFFCURVE",
"805 546 QCURVE SMOOTH",
"782 427 OFFCURVE",
"696 261 OFFCURVE",
"581 172 OFFCURVE",
"519 172 QCURVE SMOOTH",
"372 172 OFFCURVE",
"372 378 QCURVE SMOOTH",
"372 484 OFFCURVE",
"447 764 OFFCURVE",
"577 909 OFFCURVE",
"665 909 QCURVE SMOOTH",
"737 909 OFFCURVE",
"821 799 OFFCURVE",
"821 693 QCURVE SMOOTH"
);
}
);
userData = {
assembly = "NPUSHB[ ]\011/* 20 values pushed */
26 21 23 22 0 16 30 80 89 4 19 8 16 16 8 36 80 89 8 22 
SVTCA[0]\011/* SetFreedomAndProjectionVectorToAxis */
MIAP[1]\011/* MoveIndirectAbsPt */
CALL[ ]\011/* CallFunction */
SVTCA[0]\011/* SetFreedomAndProjectionVectorToAxis */
RTG[ ]\011/* RoundToGrid */
MIAP[1]\011/* MoveIndirectAbsPt */
SRP2[ ]\011/* SetRefPoint2 */
IP[ ]\011/* InterpolatePts */
IP[ ]\011/* InterpolatePts */
CALL[ ]\011/* CallFunction */
SVTCA[0]\011/* SetFreedomAndProjectionVectorToAxis */
RTG[ ]\011/* RoundToGrid */
MIAP[1]\011/* MoveIndirectAbsPt */
SHP[1]\011/* ShiftPointByLastPoint */
MIAP[1]\011/* MoveIndirectAbsPt */
IUP[1]\011/* InterpolateUntPts */
IUP[0]\011/* InterpolateUntPts */";
};
width = 1229;
}
);
note = d;
unicode = 0064;
},
{
glyphname = e;
lastChange = "2019-12-17 17:45:32 +0000";
layers = (
{
layerId = "AF7A9115-5511-47E4-B81C-CE1A1F9990A7";
paths = (
{
closed = 1;
nodes = (
"694 -20 OFFCURVE",
"978 133 OFFCURVE",
"1061 274 QCURVE",
"801 297 LINE",
"770 233 OFFCURVE",
"645 168 OFFCURVE",
"568 168 QCURVE SMOOTH",
"477 168 OFFCURVE",
"375 281 OFFCURVE",
"375 388 QCURVE SMOOTH",
"375 437 OFFCURVE",
"385 487 QCURVE",
"1119 487 LINE",
"1120 495 LINE SMOOTH",
"1140 597 OFFCURVE",
"1140 685 QCURVE SMOOTH",
"1140 886 OFFCURVE",
"936 1102 OFFCURVE",
"739 1102 QCURVE SMOOTH",
"593 1102 OFFCURVE",
"345 996 OFFCURVE",
"169 786 OFFCURVE",
"84 511 OFFCURVE",
"84 385 QCURVE SMOOTH",
"84 189 OFFCURVE",
"310 -20 OFFCURVE",
"517 -20 QCURVE SMOOTH"
);
},
{
closed = 1;
nodes = (
"783 925 OFFCURVE",
"885 822 OFFCURVE",
"885 720 QCURVE",
"881 663 LINE",
"421 663 LINE",
"449 786 OFFCURVE",
"598 925 OFFCURVE",
"701 925 QCURVE SMOOTH"
);
}
);
userData = {
assembly = "NPUSHB[ ]\011/* 31 values pushed */
30 15 81 89 15 30 31 30 2 16 3 30 30 0 8 8 27 81 89 8 16 0 20 80 89 22 23 1 23 0 22 
SVTCA[0]\011/* SetFreedomAndProjectionVectorToAxis */
MIAP[1]\011/* MoveIndirectAbsPt */
SHP[0]\011/* ShiftPointByLastPoint */
DELTAP1[ ]\011/* DeltaExceptionP1 */
CALL[ ]\011/* CallFunction */
SVTCA[0]\011/* SetFreedomAndProjectionVectorToAxis */
RTG[ ]\011/* RoundToGrid */
MIAP[1]\011/* MoveIndirectAbsPt */
CALL[ ]\011/* CallFunction */
SRP1[ ]\011/* SetRefPoint1 */
SRP2[ ]\011/* SetRefPoint2 */
SVTCA[0]\011/* SetFreedomAndProjectionVectorToAxis */
IP[ ]\011/* InterpolatePts */
RTG[ ]\011/* RoundToGrid */
MDAP[1]\011/* MoveDirectAbsPt */
SDS[ ]\011/* SetDeltaShiftInGState */
SDB[ ]\011/* SetDeltaBaseInGState */
DELTAP1[ ]\011/* DeltaExceptionP1 */
CALL[ ]\011/* CallFunction */
IUP[1]\011/* InterpolateUntPts */
IUP[0]\011/* InterpolateUntPts */";
};
width = 1229;
}
);
note = e;
unicode = 0065;
},
{
glyphname = f;
lastChange = "2019-12-17 17:45:32 +0000";
layers = (
{
layerId = "AF7A9115-5511-47E4-B81C-CE1A1F9990A7";
paths = (
{
closed = 1;
nodes = (
"1164 892 LINE",
"1201 1082 LINE",
"758 1082 LINE",
"769 1139 LINE SMOOTH",
"788 1238 OFFCURVE",
"897 1321 OFFCURVE",
"996 1321 QCURVE SMOOTH",
"1123 1321 OFFCURVE",
"1270 1302 QCURVE",
"1306 1486 LINE",
"1144 1514 OFFCURVE",
"984 1514 QCURVE SMOOTH",
"780 1514 OFFCURVE",
"528 1338 OFFCURVE",
"494 1165 QCURVE SMOOTH",
"478 1082 LINE",
"222 1082 LINE",
"185 892 LINE",
"441 892 LINE",
"268 0 LINE",
"548 0 LINE",
"721 892 LINE"
);
}
);
userData = {
assembly = "NPUSHB[ ]\011/* 18 values pushed */
10 15 80 89 12 10 1 0 4 5 4 80 89 19 5 15 1 21 
SVTCA[0]\011/* SetFreedomAndProjectionVectorToAxis */
MIAP[1]\011/* MoveIndirectAbsPt */
MIAP[1]\011/* MoveIndirectAbsPt */
SHP[1]\011/* ShiftPointByLastPoint */
CALL[ ]\011/* CallFunction */
SRP1[ ]\011/* SetRefPoint1 */
SVTCA[0]\011/* SetFreedomAndProjectionVectorToAxis */
SHP[1]\011/* ShiftPointByLastPoint */
RTG[ ]\011/* RoundToGrid */
MIAP[1]\011/* MoveIndirectAbsPt */
SHP[1]\011/* ShiftPointByLastPoint */
CALL[ ]\011/* CallFunction */
IUP[1]\011/* InterpolateUntPts */
IUP[0]\011/* InterpolateUntPts */";
};
width = 1229;
}
);
note = f;
unicode = 0066;
},
{
glyphname = g;
lastChange = "2019-12-17 17:45:32 +0000";
layers = (
{
layerId = "AF7A9115-5511-47E4-B81C-CE1A1F9990A7";
paths = (
{
closed = 1;
nodes = (
"664 -434 OFFCURVE",
"964 -196 OFFCURVE",
"1009 33 QCURVE SMOOTH",
"1165 832 LINE",
"1196 981 LINE",
"1219 1082 LINE",
"953 1082 LINE",
"938 1047 OFFCURVE",
"905 908 QCURVE",
"900 908 LINE",
"877 999 OFFCURVE",
"738 1099 OFFCURVE",
"631 1099 QCURVE SMOOTH",
"515 1099 OFFCURVE",
"324 991 OFFCURVE",
"185 782 OFFCURVE",
"106 488 OFFCURVE",
"106 359 QCURVE SMOOTH",
"106 190 OFFCURVE",
"257 12 OFFCURVE",
"398 12 QCURVE SMOOTH",
"505 12 OFFCURVE",
"696 106 OFFCURVE",
"765 211 QCURVE",
"767 211 LINE",
"731 37 LINE SMOOTH",
"674 -251 OFFCURVE",
"470 -251 QCURVE SMOOTH",
"405 -251 OFFCURVE",
"326 -175 OFFCURVE",
"324 -110 QCURVE",
"36 -143 LINE",
"38 -281 OFFCURVE",
"241 -434 OFFCURVE",
"427 -434 QCURVE SMOOTH"
);
},
{
closed = 1;
nodes = (
"849 591 OFFCURVE",
"777 346 OFFCURVE",
"642 207 OFFCURVE",
"555 207 QCURVE SMOOTH",
"403 207 OFFCURVE",
"403 407 QCURVE SMOOTH",
"403 507 OFFCURVE",
"476 766 OFFCURVE",
"606 906 OFFCURVE",
"693 906 QCURVE SMOOTH",
"767 906 OFFCURVE",
"849 791 OFFCURVE",
"849 692 QCURVE SMOOTH"
);
}
);
userData = {
assembly = "NPUSHB[ ]\011/* 27 values pushed */
29 15 10 26 14 22 22 38 80 89 22 16 4 4 14 0 14 44 80 89 14 0 7 81 89 0 28 
SVTCA[0]\011/* SetFreedomAndProjectionVectorToAxis */
MIAP[1]\011/* MoveIndirectAbsPt */
CALL[ ]\011/* CallFunction */
SVTCA[0]\011/* SetFreedomAndProjectionVectorToAxis */
RTG[ ]\011/* RoundToGrid */
MDAP[1]\011/* MoveDirectAbsPt */
CALL[ ]\011/* CallFunction */
SRP1[ ]\011/* SetRefPoint1 */
SRP2[ ]\011/* SetRefPoint2 */
SVTCA[0]\011/* SetFreedomAndProjectionVectorToAxis */
IP[ ]\011/* InterpolatePts */
RTG[ ]\011/* RoundToGrid */
MDAP[1]\011/* MoveDirectAbsPt */
MIAP[1]\011/* MoveIndirectAbsPt */
CALL[ ]\011/* CallFunction */
SRP1[ ]\011/* SetRefPoint1 */
SRP2[ ]\011/* SetRefPoint2 */
SVTCA[0]\011/* SetFreedomAndProjectionVectorToAxis */
IP[ ]\011/* InterpolatePts */
IP[ ]\011/* InterpolatePts */
RTG[ ]\011/* RoundToGrid */
MIAP[1]\011/* MoveIndirectAbsPt */
IUP[1]\011/* InterpolateUntPts */
IUP[0]\011/* InterpolateUntPts */";
};
width = 1229;
}
);
note = g;
unicode = 0067;
},
{
glyphname = h;
lastChange = "2019-12-17 17:45:32 +0000";
layers = (
{
layerId = "AF7A9115-5511-47E4-B81C-CE1A1F9990A7";
paths = (
{
closed = 1;
nodes = (
"479 866 LINE",
"488 902 LINE SMOOTH",
"516 1008 OFFCURVE",
"529 1079 QCURVE SMOOTH",
"607 1484 LINE",
"326 1484 LINE",
"38 0 LINE",
"319 0 LINE",
"432 579 LINE SMOOTH",
"461 718 OFFCURVE",
"617 891 OFFCURVE",
"719 891 QCURVE SMOOTH",
"795 891 OFFCURVE",
"855 818 OFFCURVE",
"855 749 QCURVE SMOOTH",
"855 698 OFFCURVE",
"840 621 QCURVE SMOOTH",
"719 0 LINE",
"999 0 LINE",
"1132 686 LINE SMOOTH",
"1148 766 OFFCURVE",
"1148 835 QCURVE SMOOTH",
"1148 1102 OFFCURVE",
"877 1102 QCURVE SMOOTH",
"758 1102 OFFCURVE",
"564 990 OFFCURVE",
"483 866 QCURVE"
);
}
);
userData = {
assembly = "NPUSHB[ ]\011/* 16 values pushed */
22 21 0 0 3 20 19 9 8 21 3 15 82 89 3 16 
SVTCA[0]\011/* SetFreedomAndProjectionVectorToAxis */
MIAP[1]\011/* MoveIndirectAbsPt */
CALL[ ]\011/* CallFunction */
SVTCA[0]\011/* SetFreedomAndProjectionVectorToAxis */
RTG[ ]\011/* RoundToGrid */
MIAP[1]\011/* MoveIndirectAbsPt */
SHP[1]\011/* ShiftPointByLastPoint */
SHP[1]\011/* ShiftPointByLastPoint */
SHP[1]\011/* ShiftPointByLastPoint */
SRP2[ ]\011/* SetRefPoint2 */
IP[ ]\011/* InterpolatePts */
MIAP[1]\011/* MoveIndirectAbsPt */
SHP[1]\011/* ShiftPointByLastPoint */
IUP[1]\011/* InterpolateUntPts */
IUP[0]\011/* InterpolateUntPts */";
};
width = 1229;
}
);
note = h;
unicode = 0068;
},
{
glyphname = i;
lastChange = "2019-12-17 17:45:32 +0000";
layers = (
{
layerId = "AF7A9115-5511-47E4-B81C-CE1A1F9990A7";
paths = (
{
closed = 1;
nodes = (
"899 1082 LINE",
"328 1082 LINE",
"291 892 LINE",
"581 892 LINE",
"445 190 LINE",
"50 190 LINE",
"13 0 LINE",
"1042 0 LINE",
"1079 190 LINE",
"726 190 LINE"
);
},
{
closed = 1;
nodes = (
"937 1277 LINE",
"977 1484 LINE",
"696 1484 LINE",
"656 1277 LINE"
);
}
);
userData = {
assembly = "NPUSHB[ ]\011/* 20 values pushed */
11 10 83 91 11 0 9 6 80 89 9 15 0 5 3 5 80 89 3 21 
SVTCA[0]\011/* SetFreedomAndProjectionVectorToAxis */
MIAP[1]\011/* MoveIndirectAbsPt */
CALL[ ]\011/* CallFunction */
SRP1[ ]\011/* SetRefPoint1 */
SVTCA[0]\011/* SetFreedomAndProjectionVectorToAxis */
SHP[1]\011/* ShiftPointByLastPoint */
RTG[ ]\011/* RoundToGrid */
MIAP[1]\011/* MoveIndirectAbsPt */
CALL[ ]\011/* CallFunction */
SVTCA[0]\011/* SetFreedomAndProjectionVectorToAxis */
RTG[ ]\011/* RoundToGrid */
MIAP[1]\011/* MoveIndirectAbsPt */
CALL[ ]\011/* CallFunction */
IUP[1]\011/* InterpolateUntPts */
IUP[0]\011/* InterpolateUntPts */";
};
width = 1229;
}
);
note = i;
unicode = 0069;
},
{
glyphname = j;
lastChange = "2019-12-17 17:45:32 +0000";
layers = (
{
layerId = "AF7A9115-5511-47E4-B81C-CE1A1F9990A7";
paths = (
{
closed = 1;
nodes = (
"352 -425 OFFCURVE",
"580 -328 OFFCURVE",
"731 -142 OFFCURVE",
"756 -13 QCURVE SMOOTH",
"969 1082 LINE",
"333 1082 LINE",
"296 892 LINE",
"650 892 LINE",
"479 10 LINE SMOOTH",
"458 -98 OFFCURVE",
"346 -206 OFFCURVE",
"235 -206 QCURVE SMOOTH",
"109 -206 OFFCURVE",
"-21 -172 QCURVE",
"-62 -382 LINE",
"-19 -399 OFFCURVE",
"138 -425 OFFCURVE",
"217 -425 QCURVE SMOOTH"
);
},
{
closed = 1;
nodes = (
"1007 1277 LINE",
"1047 1484 LINE",
"766 1484 LINE",
"726 1277 LINE"
);
}
);
userData = {
assembly = "NPUSHB[ ]\011/* 22 values pushed */
9 14 23 19 18 83 91 19 0 13 10 80 89 13 15 0 6 82 89 3 0 27 
SVTCA[0]\011/* SetFreedomAndProjectionVectorToAxis */
MIAP[1]\011/* MoveIndirectAbsPt */
SHP[0]\011/* ShiftPointByLastPoint */
CALL[ ]\011/* CallFunction */
SVTCA[0]\011/* SetFreedomAndProjectionVectorToAxis */
RTG[ ]\011/* RoundToGrid */
MIAP[1]\011/* MoveIndirectAbsPt */
CALL[ ]\011/* CallFunction */
SVTCA[0]\011/* SetFreedomAndProjectionVectorToAxis */
RTG[ ]\011/* RoundToGrid */
MIAP[1]\011/* MoveIndirectAbsPt */
CALL[ ]\011/* CallFunction */
SRP1[ ]\011/* SetRefPoint1 */
SVTCA[0]\011/* SetFreedomAndProjectionVectorToAxis */
SHP[1]\011/* ShiftPointByLastPoint */
SHP[1]\011/* ShiftPointByLastPoint */
IUP[1]\011/* InterpolateUntPts */
IUP[0]\011/* InterpolateUntPts */";
};
width = 1229;
}
);
note = j;
unicode = 006A;
},
{
glyphname = k;
lastChange = "2019-12-17 17:45:32 +0000";
layers = (
{
layerId = "AF7A9115-5511-47E4-B81C-CE1A1F9990A7";
paths = (
{
closed = 1;
nodes = (
"1066 0 LINE",
"785 660 LINE",
"1247 1082 LINE",
"945 1082 LINE",
"472 634 LINE",
"637 1484 LINE",
"356 1484 LINE",
"68 0 LINE",
"349 0 LINE",
"428 406 LINE",
"565 490 LINE",
"759 0 LINE"
);
}
);
userData = {
assembly = "NPUSHB[ ]\011/* 16 values pushed */
9 8 15 10 7 1 2 4 6 5 0 11 4 3 0 21 
SVTCA[0]\011/* SetFreedomAndProjectionVectorToAxis */
MIAP[1]\011/* MoveIndirectAbsPt */
SHP[0]\011/* ShiftPointByLastPoint */
SHP[0]\011/* ShiftPointByLastPoint */
SHP[0]\011/* ShiftPointByLastPoint */
MIAP[1]\011/* MoveIndirectAbsPt */
SHP[1]\011/* ShiftPointByLastPoint */
SLOOP[ ]\011/* SetLoopVariable */
IP[ ]\011/* InterpolatePts */
MIAP[1]\011/* MoveIndirectAbsPt */
SHP[1]\011/* ShiftPointByLastPoint */
IUP[1]\011/* InterpolateUntPts */
IUP[0]\011/* InterpolateUntPts */";
};
width = 1229;
}
);
note = k;
unicode = 006B;
},
{
glyphname = l;
lastChange = "2019-12-17 17:45:32 +0000";
layers = (
{
layerId = "AF7A9115-5511-47E4-B81C-CE1A1F9990A7";
paths = (
{
closed = 1;
nodes = (
"977 1484 LINE",
"406 1484 LINE",
"370 1294 LINE",
"660 1294 LINE",
"445 190 LINE",
"50 190 LINE",
"13 0 LINE",
"1042 0 LINE",
"1079 190 LINE",
"726 190 LINE"
);
}
);
userData = {
assembly = "NPUSHB[ ]\011/* 14 values pushed */
9 6 80 89 9 0 0 5 3 5 80 89 3 21 
SVTCA[0]\011/* SetFreedomAndProjectionVectorToAxis */
MIAP[1]\011/* MoveIndirectAbsPt */
CALL[ ]\011/* CallFunction */
SRP1[ ]\011/* SetRefPoint1 */
SVTCA[0]\011/* SetFreedomAndProjectionVectorToAxis */
SHP[1]\011/* ShiftPointByLastPoint */
RTG[ ]\011/* RoundToGrid */
MIAP[1]\011/* MoveIndirectAbsPt */
CALL[ ]\011/* CallFunction */
IUP[1]\011/* InterpolateUntPts */
IUP[0]\011/* InterpolateUntPts */";
};
width = 1229;
}
);
note = l;
unicode = 006C;
},
{
glyphname = m;
lastChange = "2019-12-17 17:45:32 +0000";
layers = (
{
layerId = "AF7A9115-5511-47E4-B81C-CE1A1F9990A7";
paths = (
{
closed = 1;
nodes = (
"624 0 LINE",
"741 601 LINE SMOOTH",
"772 762 OFFCURVE",
"862 923 OFFCURVE",
"913 923 QCURVE SMOOTH",
"943 923 OFFCURVE",
"972 883 OFFCURVE",
"972 835 QCURVE SMOOTH",
"972 783 OFFCURVE",
"949 658 QCURVE SMOOTH",
"821 0 LINE",
"1049 0 LINE",
"1189 721 LINE SMOOTH",
"1211 835 OFFCURVE",
"1211 910 QCURVE SMOOTH",
"1211 1010 OFFCURVE",
"1131 1102 OFFCURVE",
"1043 1102 QCURVE SMOOTH",
"959 1102 OFFCURVE",
"830 1012 OFFCURVE",
"769 906 QCURVE",
"767 906 LINE",
"767 912 LINE SMOOTH",
"767 1007 OFFCURVE",
"699 1102 OFFCURVE",
"611 1102 QCURVE SMOOTH",
"536 1102 OFFCURVE",
"414 1014 OFFCURVE",
"357 907 QCURVE",
"355 907 LINE",
"364 955 LINE",
"383 1082 LINE",
"174 1082 LINE",
"174 1075 OFFCURVE",
"166 1027 OFFCURVE",
"155 960 OFFCURVE",
"142 885 OFFCURVE",
"135 851 QCURVE SMOOTH",
"-30 0 LINE",
"199 0 LINE",
"312 582 LINE SMOOTH",
"342 736 OFFCURVE",
"438 923 OFFCURVE",
"488 923 QCURVE SMOOTH",
"518 923 OFFCURVE",
"547 883 OFFCURVE",
"547 835 QCURVE SMOOTH",
"547 783 OFFCURVE",
"524 658 QCURVE SMOOTH",
"396 0 LINE"
);
}
);
userData = {
assembly = "NPUSHB[ ]\011/* 26 values pushed */
32 45 81 89 32 16 28 20 0 24 24 6 81 89 24 16 18 17 15 49 39 38 11 10 0 21 
SVTCA[0]\011/* SetFreedomAndProjectionVectorToAxis */
MIAP[1]\011/* MoveIndirectAbsPt */
SHP[0]\011/* ShiftPointByLastPoint */
SHP[0]\011/* ShiftPointByLastPoint */
SHP[0]\011/* ShiftPointByLastPoint */
SHP[0]\011/* ShiftPointByLastPoint */
SHP[0]\011/* ShiftPointByLastPoint */
MIAP[1]\011/* MoveIndirectAbsPt */
SHP[1]\011/* ShiftPointByLastPoint */
MIAP[1]\011/* MoveIndirectAbsPt */
CALL[ ]\011/* CallFunction */
SRP1[ ]\011/* SetRefPoint1 */
SRP2[ ]\011/* SetRefPoint2 */
SVTCA[0]\011/* SetFreedomAndProjectionVectorToAxis */
IP[ ]\011/* InterpolatePts */
IP[ ]\011/* InterpolatePts */
RTG[ ]\011/* RoundToGrid */
MIAP[1]\011/* MoveIndirectAbsPt */
CALL[ ]\011/* CallFunction */
IUP[1]\011/* InterpolateUntPts */
IUP[0]\011/* InterpolateUntPts */";
};
width = 1229;
}
);
note = m;
unicode = 006D;
},
{
glyphname = n;
lastChange = "2019-12-17 17:45:32 +0000";
layers = (
{
layerId = "AF7A9115-5511-47E4-B81C-CE1A1F9990A7";
paths = (
{
closed = 1;
nodes = (
"999 0 LINE",
"1133 687 LINE SMOOTH",
"1148 765 OFFCURVE",
"1148 830 QCURVE SMOOTH",
"1148 1103 OFFCURVE",
"877 1103 QCURVE SMOOTH",
"637 1103 OFFCURVE",
"484 867 QCURVE",
"480 867 LINE",
"490 921 OFFCURVE",
"508 1066 OFFCURVE",
"508 1082 QCURVE",
"240 1082 LINE",
"234 1006 OFFCURVE",
"201 840 QCURVE SMOOTH",
"38 0 LINE",
"319 0 LINE",
"432 580 LINE SMOOTH",
"461 721 OFFCURVE",
"620 892 OFFCURVE",
"721 892 QCURVE SMOOTH",
"790 892 OFFCURVE",
"854 821 OFFCURVE",
"854 746 QCURVE SMOOTH",
"854 693 OFFCURVE",
"839 619 QCURVE SMOOTH",
"719 0 LINE"
);
}
);
userData = {
assembly = "NPUSHB[ ]\011/* 14 values pushed */
18 0 21 21 6 82 89 21 16 14 15 10 0 21 
SVTCA[0]\011/* SetFreedomAndProjectionVectorToAxis */
MIAP[1]\011/* MoveIndirectAbsPt */
SHP[0]\011/* ShiftPointByLastPoint */
MIAP[1]\011/* MoveIndirectAbsPt */
MIAP[1]\011/* MoveIndirectAbsPt */
CALL[ ]\011/* CallFunction */
SRP1[ ]\011/* SetRefPoint1 */
SRP2[ ]\011/* SetRefPoint2 */
SVTCA[0]\011/* SetFreedomAndProjectionVectorToAxis */
IP[ ]\011/* InterpolatePts */
IUP[1]\011/* InterpolateUntPts */
IUP[0]\011/* InterpolateUntPts */";
};
width = 1229;
}
);
note = n;
unicode = 006E;
},
{
glyphname = o;
lastChange = "2019-12-17 17:45:32 +0000";
layers = (
{
layerId = "AF7A9115-5511-47E4-B81C-CE1A1F9990A7";
paths = (
{
closed = 1;
nodes = (
"755 -20 OFFCURVE",
"1085 273 OFFCURVE",
"1137 542 QCURVE SMOOTH",
"1156 643 OFFCURVE",
"1156 719 QCURVE SMOOTH",
"1156 1102 OFFCURVE",
"725 1102 QCURVE SMOOTH",
"525 1102 OFFCURVE",
"235 919 OFFCURVE",
"76 567 OFFCURVE",
"76 383 QCURVE SMOOTH",
"76 188 OFFCURVE",
"293 -20 OFFCURVE",
"501 -20 QCURVE SMOOTH"
);
},
{
closed = 1;
nodes = (
"863 601 OFFCURVE",
"782 306 OFFCURVE",
"644 172 OFFCURVE",
"535 172 QCURVE SMOOTH",
"369 172 OFFCURVE",
"369 378 QCURVE SMOOTH",
"369 492 OFFCURVE",
"449 778 OFFCURVE",
"585 909 OFFCURVE",
"692 909 QCURVE SMOOTH",
"781 909 OFFCURVE",
"863 816 OFFCURVE",
"863 715 QCURVE SMOOTH"
);
}
);
userData = {
assembly = "NPUSHB[ ]\011/* 12 values pushed */
7 17 80 89 7 16 0 23 80 89 0 22 
SVTCA[0]\011/* SetFreedomAndProjectionVectorToAxis */
MIAP[1]\011/* MoveIndirectAbsPt */
CALL[ ]\011/* CallFunction */
SVTCA[0]\011/* SetFreedomAndProjectionVectorToAxis */
RTG[ ]\011/* RoundToGrid */
MIAP[1]\011/* MoveIndirectAbsPt */
CALL[ ]\011/* CallFunction */
IUP[1]\011/* InterpolateUntPts */
IUP[0]\011/* InterpolateUntPts */";
};
width = 1229;
}
);
note = o;
unicode = 006F;
},
{
glyphname = p;
lastChange = "2019-12-17 17:45:32 +0000";
layers = (
{
layerId = "AF7A9115-5511-47E4-B81C-CE1A1F9990A7";
paths = (
{
closed = 1;
nodes = (
"245 1082 LINE",
"219 905 OFFCURVE",
"207 846 QCURVE SMOOTH",
"-40 -425 LINE",
"241 -425 LINE",
"323 -7 LINE",
"355 171 LINE",
"357 171 LINE",
"382 77 OFFCURVE",
"521 -20 OFFCURVE",
"627 -20 QCURVE SMOOTH",
"778 -20 OFFCURVE",
"1015 178 OFFCURVE",
"1152 550 OFFCURVE",
"1152 731 QCURVE SMOOTH",
"1152 909 OFFCURVE",
"998 1103 OFFCURVE",
"856 1103 QCURVE SMOOTH",
"748 1103 OFFCURVE",
"566 1000 OFFCURVE",
"502 906 QCURVE",
"498 906 LINE",
"517 1008 OFFCURVE",
"517 1074 QCURVE SMOOTH",
"517 1082 LINE"
);
},
{
closed = 1;
nodes = (
"408 502 OFFCURVE",
"487 764 OFFCURVE",
"629 911 OFFCURVE",
"710 911 QCURVE SMOOTH",
"857 911 OFFCURVE",
"857 703 QCURVE SMOOTH",
"857 588 OFFCURVE",
"781 315 OFFCURVE",
"652 171 OFFCURVE",
"564 171 QCURVE SMOOTH",
"490 171 OFFCURVE",
"408 285 OFFCURVE",
"408 390 QCURVE SMOOTH"
);
}
);
userData = {
assembly = "NPUSHB[ ]\011/* 20 values pushed */
24 15 20 27 17 3 14 7 14 28 80 89 14 22 7 34 80 89 7 16 
SVTCA[0]\011/* SetFreedomAndProjectionVectorToAxis */
MIAP[1]\011/* MoveIndirectAbsPt */
CALL[ ]\011/* CallFunction */
SVTCA[0]\011/* SetFreedomAndProjectionVectorToAxis */
RTG[ ]\011/* RoundToGrid */
MIAP[1]\011/* MoveIndirectAbsPt */
CALL[ ]\011/* CallFunction */
SRP1[ ]\011/* SetRefPoint1 */
SRP2[ ]\011/* SetRefPoint2 */
SVTCA[0]\011/* SetFreedomAndProjectionVectorToAxis */
IP[ ]\011/* InterpolatePts */
IP[ ]\011/* InterpolatePts */
RTG[ ]\011/* RoundToGrid */
MIAP[1]\011/* MoveIndirectAbsPt */
MIAP[1]\011/* MoveIndirectAbsPt */
IUP[1]\011/* InterpolateUntPts */
IUP[0]\011/* InterpolateUntPts */";
};
width = 1229;
}
);
note = p;
unicode = 0070;
},
{
glyphname = q;
lastChange = "2019-12-17 17:45:32 +0000";
layers = (
{
layerId = "AF7A9115-5511-47E4-B81C-CE1A1F9990A7";
paths = (
{
closed = 1;
nodes = (
"922 1082 LINE",
"915 1069 OFFCURVE",
"878 933 OFFCURVE",
"873 906 QCURVE",
"869 906 LINE",
"840 1002 OFFCURVE",
"706 1103 OFFCURVE",
"601 1103 QCURVE SMOOTH",
"490 1103 OFFCURVE",
"296 984 OFFCURVE",
"152 761 OFFCURVE",
"76 468 OFFCURVE",
"76 338 QCURVE SMOOTH",
"76 166 OFFCURVE",
"226 -20 OFFCURVE",
"374 -20 QCURVE SMOOTH",
"486 -20 OFFCURVE",
"670 80 OFFCURVE",
"728 171 QCURVE",
"730 171 LINE",
"694 -7 LINE",
"612 -425 LINE",
"893 -425 LINE",
"1140 846 LINE",
"1171 987 LINE",
"1194 1082 LINE"
);
},
{
closed = 1;
nodes = (
"819 619 OFFCURVE",
"803 536 QCURVE SMOOTH",
"768 361 OFFCURVE",
"619 171 OFFCURVE",
"521 171 QCURVE SMOOTH",
"372 171 OFFCURVE",
"372 376 QCURVE SMOOTH",
"372 486 OFFCURVE",
"447 766 OFFCURVE",
"578 911 OFFCURVE",
"663 911 QCURVE SMOOTH",
"735 911 OFFCURVE",
"819 791 OFFCURVE",
"819 684 QCURVE SMOOTH"
);
}
);
userData = {
assembly = "NPUSHB[ ]\011/* 20 values pushed */
18 29 80 89 21 6 10 18 16 10 35 80 89 10 22 4 3 27 0 15 
SVTCA[0]\011/* SetFreedomAndProjectionVectorToAxis */
MIAP[1]\011/* MoveIndirectAbsPt */
MIAP[1]\011/* MoveIndirectAbsPt */
SHP[1]\011/* ShiftPointByLastPoint */
MIAP[1]\011/* MoveIndirectAbsPt */
CALL[ ]\011/* CallFunction */
SVTCA[0]\011/* SetFreedomAndProjectionVectorToAxis */
RTG[ ]\011/* RoundToGrid */
MIAP[1]\011/* MoveIndirectAbsPt */
SRP2[ ]\011/* SetRefPoint2 */
IP[ ]\011/* InterpolatePts */
IP[ ]\011/* InterpolatePts */
CALL[ ]\011/* CallFunction */
IUP[1]\011/* InterpolateUntPts */
IUP[0]\011/* InterpolateUntPts */";
};
width = 1229;
}
);
note = q;
unicode = 0071;
},
{
glyphname = r;
lastChange = "2019-12-17 17:45:32 +0000";
layers = (
{
layerId = "AF7A9115-5511-47E4-B81C-CE1A1F9990A7";
paths = (
{
closed = 1;
nodes = (
"1187 1085 LINE",
"1090 1102 OFFCURVE",
"984 1102 QCURVE SMOOTH",
"850 1102 OFFCURVE",
"656 990 OFFCURVE",
"580 854 QCURVE",
"576 854 LINE",
"580 900 OFFCURVE",
"580 955 QCURVE SMOOTH",
"580 1004 OFFCURVE",
"574 1082 QCURVE",
"303 1082 LINE",
"306 990 LINE SMOOTH",
"306 837 OFFCURVE",
"281 701 QCURVE SMOOTH",
"145 0 LINE",
"425 0 LINE",
"510 438 LINE SMOOTH",
"548 633 OFFCURVE",
"778 867 OFFCURVE",
"933 867 QCURVE SMOOTH",
"1034 867 OFFCURVE",
"1141 848 QCURVE"
);
}
);
userData = {
assembly = "NPUSHB[ ]\011/* 16 values pushed */
16 6 22 95 2 111 2 2 2 20 16 11 15 7 6 21 
SVTCA[0]\011/* SetFreedomAndProjectionVectorToAxis */
MIAP[1]\011/* MoveIndirectAbsPt */
SHP[1]\011/* ShiftPointByLastPoint */
MIAP[1]\011/* MoveIndirectAbsPt */
MIAP[1]\011/* MoveIndirectAbsPt */
MDRP[01101]\011/* MoveDirectRelPt */
DELTAP1[ ]\011/* DeltaExceptionP1 */
SHP[1]\011/* ShiftPointByLastPoint */
SRP2[ ]\011/* SetRefPoint2 */
IP[ ]\011/* InterpolatePts */
IUP[1]\011/* InterpolateUntPts */
IUP[0]\011/* InterpolateUntPts */";
};
width = 1229;
}
);
note = r;
unicode = 0072;
},
{
glyphname = s;
lastChange = "2019-12-17 17:45:32 +0000";
layers = (
{
layerId = "AF7A9115-5511-47E4-B81C-CE1A1F9990A7";
paths = (
{
closed = 1;
nodes = (
"678 -20 OFFCURVE",
"931 80 OFFCURVE",
"1067 267 OFFCURVE",
"1067 386 QCURVE SMOOTH",
"1067 460 OFFCURVE",
"997 561 OFFCURVE",
"865 629 OFFCURVE",
"725 659 QCURVE SMOOTH",
"618 685 LINE SMOOTH",
"542 700 OFFCURVE",
"471 748 OFFCURVE",
"471 784 QCURVE",
"473 805 LINE",
"485 865 OFFCURVE",
"595 916 OFFCURVE",
"695 916 QCURVE SMOOTH",
"795 916 OFFCURVE",
"878 854 OFFCURVE",
"878 785 QCURVE",
"1132 811 LINE",
"1130 953 OFFCURVE",
"925 1103 OFFCURVE",
"731 1103 QCURVE SMOOTH",
"569 1103 OFFCURVE",
"331 1006 OFFCURVE",
"203 821 OFFCURVE",
"203 708 QCURVE SMOOTH",
"203 633 OFFCURVE",
"283 531 OFFCURVE",
"433 465 OFFCURVE",
"632 424 QCURVE SMOOTH",
"721 405 OFFCURVE",
"799 353 OFFCURVE",
"799 313 QCURVE",
"797 290 LINE",
"785 226 OFFCURVE",
"666 166 OFFCURVE",
"547 166 QCURVE SMOOTH",
"419 166 OFFCURVE",
"328 230 OFFCURVE",
"323 307 QCURVE",
"68 270 LINE",
"77 122 OFFCURVE",
"287 -20 OFFCURVE",
"511 -20 QCURVE SMOOTH"
);
}
);
userData = {
assembly = "NPUSHB[ ]\011/* 30 values pushed */
10 32 0 22 22 29 80 89 15 26 31 26 2 10 4 26 22 16 0 7 80 89 20 4 36 4 2 4 0 22 
SVTCA[0]\011/* SetFreedomAndProjectionVectorToAxis */
MIAP[1]\011/* MoveIndirectAbsPt */
SHP[0]\011/* ShiftPointByLastPoint */
DELTAP1[ ]\011/* DeltaExceptionP1 */
CALL[ ]\011/* CallFunction */
SVTCA[0]\011/* SetFreedomAndProjectionVectorToAxis */
RTG[ ]\011/* RoundToGrid */
MIAP[1]\011/* MoveIndirectAbsPt */
SHP[1]\011/* ShiftPointByLastPoint */
SDS[ ]\011/* SetDeltaShiftInGState */
SDB[ ]\011/* SetDeltaBaseInGState */
DELTAP1[ ]\011/* DeltaExceptionP1 */
CALL[ ]\011/* CallFunction */
SRP1[ ]\011/* SetRefPoint1 */
SRP2[ ]\011/* SetRefPoint2 */
SVTCA[0]\011/* SetFreedomAndProjectionVectorToAxis */
IP[ ]\011/* InterpolatePts */
IP[ ]\011/* InterpolatePts */
IUP[1]\011/* InterpolateUntPts */
IUP[0]\011/* InterpolateUntPts */";
};
width = 1229;
}
);
note = s;
unicode = 0073;
},
{
glyphname = t;
lastChange = "2019-12-17 17:45:32 +0000";
layers = (
{
layerId = "AF7A9115-5511-47E4-B81C-CE1A1F9990A7";
paths = (
{
closed = 1;
nodes = (
"283 321 OFFCURVE",
"273 253 OFFCURVE",
"273 224 QCURVE SMOOTH",
"273 101 OFFCURVE",
"441 -13 OFFCURVE",
"603 -13 QCURVE SMOOTH",
"654 -13 OFFCURVE",
"741 -8 OFFCURVE",
"820 1 OFFCURVE",
"895 13 OFFCURVE",
"934 19 QCURVE",
"970 205 LINE",
"833 178 OFFCURVE",
"710 178 QCURVE SMOOTH",
"632 178 OFFCURVE",
"560 225 OFFCURVE",
"560 279 QCURVE SMOOTH",
"560 302 OFFCURVE",
"571 362 QCURVE SMOOTH",
"674 892 LINE",
"1059 892 LINE",
"1096 1082 LINE",
"711 1082 LINE",
"766 1364 LINE",
"590 1364 LINE",
"447 1082 LINE",
"266 1082 LINE",
"229 892 LINE",
"396 892 LINE"
);
}
);
userData = {
assembly = "NPUSHB[ ]\011/* 18 values pushed */
18 23 23 15 80 89 23 22 9 1 2 1 80 89 6 4 2 15 
SVTCA[0]\011/* SetFreedomAndProjectionVectorToAxis */
MIAP[1]\011/* MoveIndirectAbsPt */
MDRP[01110]\011/* MoveDirectRelPt */
SHP[1]\011/* ShiftPointByLastPoint */
CALL[ ]\011/* CallFunction */
SRP1[ ]\011/* SetRefPoint1 */
SVTCA[0]\011/* SetFreedomAndProjectionVectorToAxis */
SHP[1]\011/* ShiftPointByLastPoint */
RTG[ ]\011/* RoundToGrid */
MIAP[1]\011/* MoveIndirectAbsPt */
CALL[ ]\011/* CallFunction */
SRP1[ ]\011/* SetRefPoint1 */
SVTCA[0]\011/* SetFreedomAndProjectionVectorToAxis */
SHP[1]\011/* ShiftPointByLastPoint */
IUP[1]\011/* InterpolateUntPts */
IUP[0]\011/* InterpolateUntPts */";
};
width = 1229;
}
);
note = t;
unicode = 0074;
},
{
glyphname = u;
lastChange = "2019-12-17 17:45:32 +0000";
layers = (
{
layerId = "AF7A9115-5511-47E4-B81C-CE1A1F9990A7";
paths = (
{
closed = 1;
nodes = (
"240 1082 LINE",
"107 395 LINE SMOOTH",
"92 320 OFFCURVE",
"92 253 QCURVE SMOOTH",
"92 -20 OFFCURVE",
"362 -20 QCURVE SMOOTH",
"583 -20 OFFCURVE",
"736 215 QCURVE",
"741 215 LINE",
"719 92 OFFCURVE",
"711 0 QCURVE",
"979 0 LINE",
"982 23 OFFCURVE",
"1004 176 OFFCURVE",
"1018 242 QCURVE SMOOTH",
"1181 1082 LINE",
"900 1082 LINE",
"788 502 LINE SMOOTH",
"763 369 OFFCURVE",
"611 190 OFFCURVE",
"520 190 QCURVE SMOOTH",
"391 190 OFFCURVE",
"391 360 QCURVE SMOOTH",
"391 412 OFFCURVE",
"403 475 QCURVE SMOOTH",
"521 1082 LINE"
);
}
);
userData = {
assembly = "NPUSHB[ ]\011/* 16 values pushed */
17 0 20 20 5 82 89 20 22 14 21 25 10 9 0 15 
SVTCA[0]\011/* SetFreedomAndProjectionVectorToAxis */
MIAP[1]\011/* MoveIndirectAbsPt */
SHP[0]\011/* ShiftPointByLastPoint */
SHP[0]\011/* ShiftPointByLastPoint */
SHP[0]\011/* ShiftPointByLastPoint */
MIAP[1]\011/* MoveIndirectAbsPt */
MIAP[1]\011/* MoveIndirectAbsPt */
CALL[ ]\011/* CallFunction */
SRP1[ ]\011/* SetRefPoint1 */
SRP2[ ]\011/* SetRefPoint2 */
SVTCA[0]\011/* SetFreedomAndProjectionVectorToAxis */
IP[ ]\011/* InterpolatePts */
IUP[1]\011/* InterpolateUntPts */
IUP[0]\011/* InterpolateUntPts */";
};
width = 1229;
}
);
note = u;
unicode = 0075;
},
{
glyphname = v;
lastChange = "2019-12-17 17:45:32 +0000";
layers = (
{
layerId = "AF7A9115-5511-47E4-B81C-CE1A1F9990A7";
paths = (
{
closed = 1;
nodes = (
"1298 1082 LINE",
"1004 1082 LINE",
"666 457 LINE SMOOTH",
"603 340 OFFCURVE",
"544 210 QCURVE",
"529 404 OFFCURVE",
"521 460 QCURVE SMOOTH",
"433 1082 LINE",
"136 1082 LINE",
"333 0 LINE",
"669 0 LINE"
);
}
);
userData = {
assembly = "NPUSHB[ ]\011/* 9 values pushed */
10 9 3 2 15 6 0 1 21 
SVTCA[0]\011/* SetFreedomAndProjectionVectorToAxis */
MIAP[1]\011/* MoveIndirectAbsPt */
SHP[1]\011/* ShiftPointByLastPoint */
SHP[1]\011/* ShiftPointByLastPoint */
MIAP[1]\011/* MoveIndirectAbsPt */
SHP[1]\011/* ShiftPointByLastPoint */
SHP[1]\011/* ShiftPointByLastPoint */
SHP[1]\011/* ShiftPointByLastPoint */
IUP[1]\011/* InterpolateUntPts */
IUP[0]\011/* InterpolateUntPts */";
};
width = 1229;
}
);
note = v;
unicode = 0076;
},
{
glyphname = w;
lastChange = "2019-12-17 17:45:32 +0000";
layers = (
{
layerId = "AF7A9115-5511-47E4-B81C-CE1A1F9990A7";
paths = (
{
closed = 1;
nodes = (
"1323 1082 LINE",
"1097 1082 LINE",
"888 475 LINE SMOOTH",
"839 327 OFFCURVE",
"823 249 QCURVE",
"823 292 OFFCURVE",
"816 362 QCURVE SMOOTH",
"765 817 LINE",
"572 817 LINE",
"319 323 LINE",
"284 249 LINE",
"300 326 OFFCURVE",
"309 475 QCURVE SMOOTH",
"344 1082 LINE",
"116 1082 LINE",
"89 0 LINE",
"332 0 LINE",
"592 507 OFFCURVE",
"615 558 OFFCURVE",
"620 573 QCURVE",
"628 471 LINE",
"679 0 LINE",
"923 0 LINE"
);
}
);
userData = {
assembly = "NPUSHB[ ]\011/* 21 values pushed */
15 4 3 20 3 2 3 14 14 22 21 9 8 15 18 12 7 6 1 0 21 
SVTCA[0]\011/* SetFreedomAndProjectionVectorToAxis */
MIAP[1]\011/* MoveIndirectAbsPt */
SHP[0]\011/* ShiftPointByLastPoint */
SHP[0]\011/* ShiftPointByLastPoint */
SHP[0]\011/* ShiftPointByLastPoint */
SHP[0]\011/* ShiftPointByLastPoint */
SHP[0]\011/* ShiftPointByLastPoint */
MIAP[1]\011/* MoveIndirectAbsPt */
SHP[1]\011/* ShiftPointByLastPoint */
SHP[1]\011/* ShiftPointByLastPoint */
SHP[1]\011/* ShiftPointByLastPoint */
IP[ ]\011/* InterpolatePts */
MDAP[1]\011/* MoveDirectAbsPt */
SHP[1]\011/* ShiftPointByLastPoint */
DELTAP1[ ]\011/* DeltaExceptionP1 */
SHP[1]\011/* ShiftPointByLastPoint */
IUP[1]\011/* InterpolateUntPts */
IUP[0]\011/* InterpolateUntPts */";
};
width = 1229;
}
);
note = w;
unicode = 0077;
},
{
glyphname = x;
lastChange = "2019-12-17 17:45:32 +0000";
layers = (
{
layerId = "AF7A9115-5511-47E4-B81C-CE1A1F9990A7";
paths = (
{
closed = 1;
nodes = (
"1074 0 LINE",
"774 562 LINE",
"1262 1082 LINE",
"957 1082 LINE",
"649 728 LINE",
"476 1082 LINE",
"173 1082 LINE",
"459 559 LINE",
"-56 0 LINE",
"243 0 LINE",
"583 392 LINE",
"769 0 LINE"
);
}
);
userData = {
assembly = "NPUSHB[ ]\011/* 15 values pushed */
1 4 10 7 4 9 8 6 5 15 11 3 2 0 21 
SVTCA[0]\011/* SetFreedomAndProjectionVectorToAxis */
MIAP[1]\011/* MoveIndirectAbsPt */
SHP[0]\011/* ShiftPointByLastPoint */
SHP[0]\011/* ShiftPointByLastPoint */
SHP[0]\011/* ShiftPointByLastPoint */
MIAP[1]\011/* MoveIndirectAbsPt */
SHP[1]\011/* ShiftPointByLastPoint */
SHP[1]\011/* ShiftPointByLastPoint */
SHP[1]\011/* ShiftPointByLastPoint */
SLOOP[ ]\011/* SetLoopVariable */
IP[ ]\011/* InterpolatePts */
IUP[1]\011/* InterpolateUntPts */
IUP[0]\011/* InterpolateUntPts */";
};
width = 1229;
}
);
note = x;
unicode = 0078;
},
{
glyphname = y;
lastChange = "2019-12-17 17:45:32 +0000";
layers = (
{
layerId = "AF7A9115-5511-47E4-B81C-CE1A1F9990A7";
paths = (
{
closed = 1;
nodes = (
"285 -425 OFFCURVE",
"504 -264 OFFCURVE",
"626 -57 QCURVE SMOOTH",
"1295 1082 LINE",
"1001 1082 LINE",
"718 551 LINE",
"581 258 LINE",
"564 221 LINE",
"564 225 OFFCURVE",
"538 478 OFFCURVE",
"534 511 OFFCURVE",
"530 546 OFFCURVE",
"528 555 QCURVE SMOOTH",
"440 1082 LINE",
"143 1082 LINE",
"383 11 LINE",
"356 -37 LINE SMOOTH",
"300 -134 OFFCURVE",
"182 -220 OFFCURVE",
"97 -220 QCURVE",
"47 -217 LINE",
"-3 -212 LINE",
"-42 -412 LINE",
"30 -425 OFFCURVE",
"137 -425 QCURVE SMOOTH"
);
}
);
userData = {
assembly = "NPUSHB[ ]\011/* 35 values pushed */
255 17 1 112 17 128 17 2 101 17 1 26 17 1 1 17 1 10 3 17 9 22 25 21 20 11 10 15 0 5 83 89 2 0 27 
SVTCA[0]\011/* SetFreedomAndProjectionVectorToAxis */
MIAP[1]\011/* MoveIndirectAbsPt */
SHP[0]\011/* ShiftPointByLastPoint */
CALL[ ]\011/* CallFunction */
SVTCA[0]\011/* SetFreedomAndProjectionVectorToAxis */
RTG[ ]\011/* RoundToGrid */
MIAP[1]\011/* MoveIndirectAbsPt */
SHP[1]\011/* ShiftPointByLastPoint */
SHP[1]\011/* ShiftPointByLastPoint */
SHP[1]\011/* ShiftPointByLastPoint */
SRP1[ ]\011/* SetRefPoint1 */
SHP[1]\011/* ShiftPointByLastPoint */
SHP[1]\011/* ShiftPointByLastPoint */
SHP[1]\011/* ShiftPointByLastPoint */
SDS[ ]\011/* SetDeltaShiftInGState */
SDB[ ]\011/* SetDeltaBaseInGState */
DELTAP1[ ]\011/* DeltaExceptionP1 */
DELTAP1[ ]\011/* DeltaExceptionP1 */
DELTAP1[ ]\011/* DeltaExceptionP1 */
DELTAP1[ ]\011/* DeltaExceptionP1 */
DELTAP1[ ]\011/* DeltaExceptionP1 */
IUP[1]\011/* InterpolateUntPts */
IUP[0]\011/* InterpolateUntPts */";
};
width = 1229;
}
);
note = y;
unicode = 0079;
},
{
glyphname = z;
lastChange = "2019-12-17 17:45:32 +0000";
layers = (
{
layerId = "AF7A9115-5511-47E4-B81C-CE1A1F9990A7";
paths = (
{
closed = 1;
nodes = (
"972 0 LINE",
"1012 205 LINE",
"396 205 LINE",
"1094 881 LINE",
"1133 1082 LINE",
"284 1082 LINE",
"245 879 LINE",
"774 879 LINE",
"72 199 LINE",
"33 0 LINE"
);
}
);
userData = {
assembly = "NPUSHB[ ]\011/* 16 values pushed */
6 2 4 2 80 89 4 15 1 7 0 7 80 89 0 21 
SVTCA[0]\011/* SetFreedomAndProjectionVectorToAxis */
MIAP[1]\011/* MoveIndirectAbsPt */
CALL[ ]\011/* CallFunction */
SRP1[ ]\011/* SetRefPoint1 */
SVTCA[0]\011/* SetFreedomAndProjectionVectorToAxis */
SHP[1]\011/* ShiftPointByLastPoint */
RTG[ ]\011/* RoundToGrid */
MIAP[1]\011/* MoveIndirectAbsPt */
CALL[ ]\011/* CallFunction */
SRP1[ ]\011/* SetRefPoint1 */
SVTCA[0]\011/* SetFreedomAndProjectionVectorToAxis */
SHP[1]\011/* ShiftPointByLastPoint */
IUP[1]\011/* InterpolateUntPts */
IUP[0]\011/* InterpolateUntPts */";
};
width = 1229;
}
);
note = z;
unicode = 007A;
},
{
glyphname = braceleft;
lastChange = "2019-12-17 17:45:32 +0000";
layers = (
{
layerId = "AF7A9115-5511-47E4-B81C-CE1A1F9990A7";
paths = (
{
closed = 1;
nodes = (
"857 -425 LINE",
"895 -234 LINE",
"707 -234 LINE SMOOTH",
"634 -234 OFFCURVE",
"567 -168 OFFCURVE",
"567 -101 QCURVE SMOOTH",
"567 -67 OFFCURVE",
"575 -25 QCURVE SMOOTH",
"634 276 LINE SMOOTH",
"639 299 OFFCURVE",
"639 328 QCURVE SMOOTH",
"639 403 OFFCURVE",
"554 508 OFFCURVE",
"476 528 QCURVE",
"476 532 LINE",
"571 551 OFFCURVE",
"713 687 OFFCURVE",
"732 784 QCURVE SMOOTH",
"791 1085 LINE SMOOTH",
"811 1190 OFFCURVE",
"913 1294 OFFCURVE",
"1004 1294 QCURVE SMOOTH",
"1192 1294 LINE",
"1228 1484 LINE",
"901 1484 LINE SMOOTH",
"762 1484 OFFCURVE",
"577 1332 OFFCURVE",
"548 1185 QCURVE SMOOTH",
"485 857 LINE SMOOTH",
"463 743 OFFCURVE",
"330 631 OFFCURVE",
"211 626 QCURVE",
"173 431 LINE",
"275 428 OFFCURVE",
"364 348 OFFCURVE",
"364 272 QCURVE SMOOTH",
"364 237 OFFCURVE",
"357 202 QCURVE SMOOTH",
"294 -126 LINE SMOOTH",
"286 -169 OFFCURVE",
"286 -203 QCURVE SMOOTH",
"286 -308 OFFCURVE",
"412 -425 OFFCURVE",
"530 -425 QCURVE SMOOTH"
);
}
);
userData = {
assembly = "NPUSHB[ ]\011/* 23 values pushed */
29 12 11 12 11 245 89 12 12 19 0 19 22 245 89 19 0 0 41 245 89 0 27 
SVTCA[0]\011/* SetFreedomAndProjectionVectorToAxis */
MIAP[1]\011/* MoveIndirectAbsPt */
CALL[ ]\011/* CallFunction */
SVTCA[0]\011/* SetFreedomAndProjectionVectorToAxis */
RTG[ ]\011/* RoundToGrid */
MIAP[1]\011/* MoveIndirectAbsPt */
CALL[ ]\011/* CallFunction */
SRP1[ ]\011/* SetRefPoint1 */
SRP2[ ]\011/* SetRefPoint2 */
SVTCA[0]\011/* SetFreedomAndProjectionVectorToAxis */
IP[ ]\011/* InterpolatePts */
RTG[ ]\011/* RoundToGrid */
MDAP[1]\011/* MoveDirectAbsPt */
CALL[ ]\011/* CallFunction */
SRP1[ ]\011/* SetRefPoint1 */
SRP2[ ]\011/* SetRefPoint2 */
SVTCA[0]\011/* SetFreedomAndProjectionVectorToAxis */
IP[ ]\011/* InterpolatePts */
IUP[1]\011/* InterpolateUntPts */
IUP[0]\011/* InterpolateUntPts */";
};
width = 1229;
}
);
note = braceleft;
unicode = 007B;
},
{
glyphname = bar;
lastChange = "2019-12-17 17:45:32 +0000";
layers = (
{
layerId = "AF7A9115-5511-47E4-B81C-CE1A1F9990A7";
paths = (
{
closed = 1;
nodes = (
"745 -455 LINE",
"745 1484 LINE",
"483 1484 LINE",
"483 -455 LINE"
);
}
);
userData = {
assembly = "PUSHB[ ]\011/* 3 values pushed */
1 0 0 
SVTCA[0]\011/* SetFreedomAndProjectionVectorToAxis */
MDAP[1]\011/* MoveDirectAbsPt */
MIAP[1]\011/* MoveIndirectAbsPt */
IUP[1]\011/* InterpolateUntPts */
IUP[0]\011/* InterpolateUntPts */";
};
width = 1229;
}
);
note = bar;
unicode = 007C;
},
{
glyphname = braceright;
lastChange = "2019-12-17 17:45:32 +0000";
layers = (
{
layerId = "AF7A9115-5511-47E4-B81C-CE1A1F9990A7";
paths = (
{
closed = 1;
nodes = (
"323 -425 LINE SMOOTH",
"461 -425 OFFCURVE",
"651 -263 OFFCURVE",
"677 -126 QCURVE SMOOTH",
"740 202 LINE SMOOTH",
"761 313 OFFCURVE",
"893 429 OFFCURVE",
"1014 431 QCURVE",
"1052 626 LINE",
"860 630 OFFCURVE",
"860 786 QCURVE SMOOTH",
"860 817 OFFCURVE",
"868 857 QCURVE SMOOTH",
"931 1185 LINE SMOOTH",
"940 1229 OFFCURVE",
"940 1267 QCURVE SMOOTH",
"940 1374 OFFCURVE",
"812 1484 OFFCURVE",
"694 1484 QCURVE SMOOTH",
"367 1484 LINE",
"331 1294 LINE",
"519 1294 LINE SMOOTH",
"658 1294 OFFCURVE",
"658 1162 QCURVE SMOOTH",
"658 1119 OFFCURVE",
"650 1085 QCURVE SMOOTH",
"591 784 LINE",
"586 732 LINE",
"586 658 OFFCURVE",
"672 550 OFFCURVE",
"749 532 QCURVE",
"749 528 LINE",
"650 506 OFFCURVE",
"511 370 OFFCURVE",
"493 276 QCURVE SMOOTH",
"434 -25 LINE SMOOTH",
"414 -131 OFFCURVE",
"313 -234 OFFCURVE",
"222 -234 QCURVE SMOOTH",
"34 -234 LINE",
"-4 -425 LINE"
);
}
);
userData = {
assembly = "NPUSHB[ ]\011/* 23 values pushed */
9 32 33 32 33 245 89 32 32 0 21 21 20 245 89 21 0 0 1 245 89 0 27 
SVTCA[0]\011/* SetFreedomAndProjectionVectorToAxis */
MIAP[1]\011/* MoveIndirectAbsPt */
CALL[ ]\011/* CallFunction */
SVTCA[0]\011/* SetFreedomAndProjectionVectorToAxis */
RTG[ ]\011/* RoundToGrid */
MIAP[1]\011/* MoveIndirectAbsPt */
CALL[ ]\011/* CallFunction */
SRP1[ ]\011/* SetRefPoint1 */
SRP2[ ]\011/* SetRefPoint2 */
SVTCA[0]\011/* SetFreedomAndProjectionVectorToAxis */
IP[ ]\011/* InterpolatePts */
RTG[ ]\011/* RoundToGrid */
MDAP[1]\011/* MoveDirectAbsPt */
CALL[ ]\011/* CallFunction */
SRP1[ ]\011/* SetRefPoint1 */
SRP2[ ]\011/* SetRefPoint2 */
SVTCA[0]\011/* SetFreedomAndProjectionVectorToAxis */
IP[ ]\011/* InterpolatePts */
IUP[1]\011/* InterpolateUntPts */
IUP[0]\011/* InterpolateUntPts */";
};
width = 1229;
}
);
note = braceright;
unicode = 007D;
},
{
glyphname = asciitilde;
lastChange = "2019-12-17 17:45:32 +0000";
layers = (
{
layerId = "AF7A9115-5511-47E4-B81C-CE1A1F9990A7";
paths = (
{
closed = 1;
nodes = (
"947 516 OFFCURVE",
"1072 552 OFFCURVE",
"1144 596 QCURVE",
"1186 815 LINE",
"1055 723 OFFCURVE",
"921 723 QCURVE SMOOTH",
"880 723 OFFCURVE",
"787 745 OFFCURVE",
"658 793 QCURVE SMOOTH",
"529 840 OFFCURVE",
"424 840 QCURVE SMOOTH",
"265 840 OFFCURVE",
"137 756 QCURVE",
"96 543 LINE",
"171 589 OFFCURVE",
"297 631 OFFCURVE",
"368 631 QCURVE SMOOTH",
"453 631 OFFCURVE",
"580 584 QCURVE SMOOTH",
"650 558 OFFCURVE",
"786 516 OFFCURVE",
"861 516 QCURVE SMOOTH"
);
}
);
userData = {
assembly = "NPUSHB[ ]\011/* 47 values pushed */
0 16 173 89 8 0 0 64 0 80 0 96 0 208 0 5 9 3 0 0 18 11 11 5 173 89 15 11 95 11 175 11 3 31 11 111 11 143 11 159 11 191 11 239 11 6 11 
SVTCA[0]\011/* SetFreedomAndProjectionVectorToAxis */
MDAP[1]\011/* MoveDirectAbsPt */
DELTAP1[ ]\011/* DeltaExceptionP1 */
DELTAP2[ ]\011/* DeltaExceptionP2 */
CALL[ ]\011/* CallFunction */
SRP1[ ]\011/* SetRefPoint1 */
SVTCA[0]\011/* SetFreedomAndProjectionVectorToAxis */
SHP[1]\011/* ShiftPointByLastPoint */
SHP[1]\011/* ShiftPointByLastPoint */
RTG[ ]\011/* RoundToGrid */
MDAP[1]\011/* MoveDirectAbsPt */
SDS[ ]\011/* SetDeltaShiftInGState */
SDB[ ]\011/* SetDeltaBaseInGState */
DELTAP1[ ]\011/* DeltaExceptionP1 */
SHP[1]\011/* ShiftPointByLastPoint */
CALL[ ]\011/* CallFunction */
IUP[1]\011/* InterpolateUntPts */
IUP[0]\011/* InterpolateUntPts */";
};
width = 1229;
}
);
note = asciitilde;
unicode = 007E;
},
{
glyphname = dagger;
lastChange = "2019-12-17 17:45:32 +0000";
layers = (
{
layerId = "AF7A9115-5511-47E4-B81C-CE1A1F9990A7";
paths = (
{
closed = 1;
nodes = (
"1132 933 LINE",
"1172 1137 LINE",
"823 1108 LINE",
"924 1484 LINE",
"669 1484 LINE",
"624 1108 LINE",
"288 1137 LINE",
"248 933 LINE",
"596 960 LINE",
"390 -213 LINE",
"545 -213 LINE",
"795 960 LINE"
);
}
);
userData = {
assembly = "NPUSHB[ ]\011/* 15 values pushed */
0 3 6 3 191 89 9 6 7 6 194 91 7 0 1 
SVTCA[0]\011/* SetFreedomAndProjectionVectorToAxis */
MDAP[1]\011/* MoveDirectAbsPt */
MIAP[1]\011/* MoveIndirectAbsPt */
CALL[ ]\011/* CallFunction */
SRP1[ ]\011/* SetRefPoint1 */
SVTCA[0]\011/* SetFreedomAndProjectionVectorToAxis */
SHP[1]\011/* ShiftPointByLastPoint */
CALL[ ]\011/* CallFunction */
SRP1[ ]\011/* SetRefPoint1 */
SVTCA[0]\011/* SetFreedomAndProjectionVectorToAxis */
SHP[1]\011/* ShiftPointByLastPoint */
IUP[1]\011/* InterpolateUntPts */
IUP[0]\011/* InterpolateUntPts */";
};
width = 1229;
}
);
note = dagger;
unicode = 2020;
},
{
glyphname = degree;
lastChange = "2019-12-17 17:45:32 +0000";
layers = (
{
layerId = "AF7A9115-5511-47E4-B81C-CE1A1F9990A7";
paths = (
{
closed = 1;
nodes = (
"935 1240 OFFCURVE",
"749 1425 OFFCURVE",
"614 1425 QCURVE SMOOTH",
"526 1425 OFFCURVE",
"379 1342 OFFCURVE",
"294 1196 OFFCURVE",
"294 1110 QCURVE SMOOTH",
"294 977 OFFCURVE",
"482 795 OFFCURVE",
"614 795 QCURVE SMOOTH",
"748 795 OFFCURVE",
"935 980 OFFCURVE",
"935 1110 QCURVE SMOOTH"
);
},
{
closed = 1;
nodes = (
"777 1040 OFFCURVE",
"681 942 OFFCURVE",
"614 942 QCURVE SMOOTH",
"546 942 OFFCURVE",
"448 1041 OFFCURVE",
"448 1110 QCURVE SMOOTH",
"448 1179 OFFCURVE",
"543 1276 OFFCURVE",
"614 1276 QCURVE SMOOTH",
"684 1276 OFFCURVE",
"777 1180 OFFCURVE",
"777 1110 QCURVE SMOOTH"
);
}
);
userData = {
assembly = "NPUSHB[ ]\011/* 13 values pushed */
3 22 175 89 3 10 64 10 16 175 89 10 0 
SVTCA[0]\011/* SetFreedomAndProjectionVectorToAxis */
MIAP[1]\011/* MoveIndirectAbsPt */
CALL[ ]\011/* CallFunction */
SVTCA[0]\011/* SetFreedomAndProjectionVectorToAxis */
SMD[ ]\011/* SetMinimumDistance */
RTG[ ]\011/* RoundToGrid */
SRP0[ ]\011/* SetRefPoint0 */
MDRP[01100]\011/* MoveDirectRelPt */
CALL[ ]\011/* CallFunction */
IUP[1]\011/* InterpolateUntPts */
IUP[0]\011/* InterpolateUntPts */";
};
width = 1229;
}
);
note = degree;
unicode = 00B0;
},
{
glyphname = cent;
lastChange = "2019-12-17 17:45:32 +0000";
layers = (
{
layerId = "AF7A9115-5511-47E4-B81C-CE1A1F9990A7";
paths = (
{
closed = 1;
nodes = (
"493 311 OFFCURVE",
"392 427 OFFCURVE",
"392 540 QCURVE SMOOTH",
"392 621 OFFCURVE",
"442 813 OFFCURVE",
"530 947 OFFCURVE",
"651 1015 OFFCURVE",
"725 1015 QCURVE SMOOTH",
"811 1015 OFFCURVE",
"903 921 OFFCURVE",
"903 833 QCURVE SMOOTH",
"903 825 LINE",
"1188 839 LINE",
"1188 845 LINE SMOOTH",
"1188 991 OFFCURVE",
"1007 1177 OFFCURVE",
"842 1196 QCURVE",
"878 1380 LINE",
"716 1380 LINE",
"680 1196 LINE",
"506 1178 OFFCURVE",
"249 995 OFFCURVE",
"107 682 OFFCURVE",
"107 517 QCURVE SMOOTH",
"107 344 OFFCURVE",
"297 146 OFFCURVE",
"473 129 QCURVE",
"436 -60 LINE",
"598 -60 LINE",
"635 131 LINE",
"817 152 OFFCURVE",
"1079 353 OFFCURVE",
"1133 508 QCURVE",
"852 520 LINE",
"819 420 OFFCURVE",
"678 311 OFFCURVE",
"590 311 QCURVE SMOOTH"
);
}
);
userData = {
assembly = "NPUSHB[ ]\011/* 37 values pushed */
19 18 20 64 20 29 81 89 89 25 1 11 25 1 25 17 20 9 8 10 64 7 86 3 1 2 3 1 9 3 3 10 10 0 81 89 10 
SVTCA[0]\011/* SetFreedomAndProjectionVectorToAxis */
MDAP[1]\011/* MoveDirectAbsPt */
CALL[ ]\011/* CallFunction */
SRP1[ ]\011/* SetRefPoint1 */
SVTCA[0]\011/* SetFreedomAndProjectionVectorToAxis */
SHP[1]\011/* ShiftPointByLastPoint */
SDS[ ]\011/* SetDeltaShiftInGState */
SDB[ ]\011/* SetDeltaBaseInGState */
DELTAP1[ ]\011/* DeltaExceptionP1 */
DELTAP1[ ]\011/* DeltaExceptionP1 */
SHP[1]\011/* ShiftPointByLastPoint */
SMD[ ]\011/* SetMinimumDistance */
RTG[ ]\011/* RoundToGrid */
SRP0[ ]\011/* SetRefPoint0 */
MDRP[01101]\011/* MoveDirectRelPt */
SHP[0]\011/* ShiftPointByLastPoint */
MDAP[1]\011/* MoveDirectAbsPt */
SHP[1]\011/* ShiftPointByLastPoint */
SHP[1]\011/* ShiftPointByLastPoint */
DELTAP1[ ]\011/* DeltaExceptionP1 */
DELTAP1[ ]\011/* DeltaExceptionP1 */
CALL[ ]\011/* CallFunction */
SVTCA[0]\011/* SetFreedomAndProjectionVectorToAxis */
SMD[ ]\011/* SetMinimumDistance */
RTG[ ]\011/* RoundToGrid */
SRP0[ ]\011/* SetRefPoint0 */
MDRP[01101]\011/* MoveDirectRelPt */
SHP[0]\011/* ShiftPointByLastPoint */
IUP[1]\011/* InterpolateUntPts */
IUP[0]\011/* InterpolateUntPts */";
};
width = 1229;
}
);
note = cent;
unicode = 00A2;
},
{
glyphname = sterling;
lastChange = "2019-12-17 17:45:32 +0000";
layers = (
{
layerId = "AF7A9115-5511-47E4-B81C-CE1A1F9990A7";
paths = (
{
closed = 1;
nodes = (
"920 402 LINE",
"885 308 OFFCURVE",
"759 209 OFFCURVE",
"655 209 QCURVE SMOOTH",
"265 209 LINE",
"373 263 OFFCURVE",
"484 405 OFFCURVE",
"506 514 QCURVE SMOOTH",
"521 594 LINE",
"807 594 LINE",
"841 764 LINE",
"555 764 LINE",
"589 939 LINE SMOOTH",
"613 1064 OFFCURVE",
"715 1179 OFFCURVE",
"806 1179 QCURVE SMOOTH",
"872 1179 OFFCURVE",
"940 1109 OFFCURVE",
"947 1032 QCURVE",
"1189 1079 LINE",
"1172 1237 OFFCURVE",
"1003 1370 OFFCURVE",
"838 1370 QCURVE SMOOTH",
"628 1370 OFFCURVE",
"373 1164 OFFCURVE",
"333 962 QCURVE SMOOTH",
"295 764 LINE",
"117 764 LINE",
"83 594 LINE",
"271 594 LINE",
"256 512 LINE SMOOTH",
"235 405 OFFCURVE",
"129 260 OFFCURVE",
"19 205 QCURVE",
"-21 0 LINE",
"683 0 LINE SMOOTH",
"835 0 OFFCURVE",
"1083 192 OFFCURVE",
"1146 363 QCURVE"
);
}
);
userData = {
assembly = "NPUSHB[ ]\011/* 35 values pushed */
30 9 12 9 81 89 27 0 12 1 15 3 12 12 4 16 16 23 118 89 20 16 7 5 34 4 34 115 89 70 38 1 38 4 24 
SVTCA[0]\011/* SetFreedomAndProjectionVectorToAxis */
MIAP[1]\011/* MoveIndirectAbsPt */
SHP[1]\011/* ShiftPointByLastPoint */
DELTAP1[ ]\011/* DeltaExceptionP1 */
CALL[ ]\011/* CallFunction */
SRP1[ ]\011/* SetRefPoint1 */
SVTCA[0]\011/* SetFreedomAndProjectionVectorToAxis */
SHP[1]\011/* ShiftPointByLastPoint */
RTG[ ]\011/* RoundToGrid */
MIAP[1]\011/* MoveIndirectAbsPt */
SHP[1]\011/* ShiftPointByLastPoint */
CALL[ ]\011/* CallFunction */
SRP1[ ]\011/* SetRefPoint1 */
SRP2[ ]\011/* SetRefPoint2 */
SVTCA[0]\011/* SetFreedomAndProjectionVectorToAxis */
IP[ ]\011/* InterpolatePts */
RTG[ ]\011/* RoundToGrid */
MDAP[1]\011/* MoveDirectAbsPt */
SDS[ ]\011/* SetDeltaShiftInGState */
SDB[ ]\011/* SetDeltaBaseInGState */
DELTAP1[ ]\011/* DeltaExceptionP1 */
SHP[1]\011/* ShiftPointByLastPoint */
CALL[ ]\011/* CallFunction */
SRP1[ ]\011/* SetRefPoint1 */
SVTCA[0]\011/* SetFreedomAndProjectionVectorToAxis */
SHP[1]\011/* ShiftPointByLastPoint */
IUP[1]\011/* InterpolateUntPts */
IUP[0]\011/* InterpolateUntPts */";
};
width = 1229;
}
);
note = sterling;
unicode = 00A3;
},
{
glyphname = section;
lastChange = "2019-12-17 17:45:32 +0000";
layers = (
{
layerId = "AF7A9115-5511-47E4-B81C-CE1A1F9990A7";
paths = (
{
closed = 1;
nodes = (
"653 1485 OFFCURVE",
"418 1397 OFFCURVE",
"288 1223 OFFCURVE",
"288 1121 QCURVE SMOOTH",
"288 1054 OFFCURVE",
"361 947 OFFCURVE",
"431 914 QCURVE",
"303 875 OFFCURVE",
"163 714 OFFCURVE",
"163 606 QCURVE SMOOTH",
"163 515 OFFCURVE",
"307 386 OFFCURVE",
"483 341 QCURVE SMOOTH",
"649 300 OFFCURVE",
"740 261 OFFCURVE",
"784 212 OFFCURVE",
"784 174 QCURVE SMOOTH",
"784 88 OFFCURVE",
"651 -1 OFFCURVE",
"505 -1 QCURVE SMOOTH",
"381 -1 OFFCURVE",
"273 74 OFFCURVE",
"269 154 QCURVE",
"25 117 LINE",
"35 -32 OFFCURVE",
"249 -171 OFFCURVE",
"472 -171 QCURVE SMOOTH",
"648 -171 OFFCURVE",
"898 -69 OFFCURVE",
"1029 124 OFFCURVE",
"1029 232 QCURVE SMOOTH",
"1029 305 OFFCURVE",
"954 398 OFFCURVE",
"891 429 QCURVE",
"1003 463 OFFCURVE",
"1146 643 OFFCURVE",
"1146 751 QCURVE SMOOTH",
"1146 819 OFFCURVE",
"1076 914 OFFCURVE",
"942 984 OFFCURVE",
"789 1021 QCURVE SMOOTH",
"670 1049 OFFCURVE",
"580 1088 OFFCURVE",
"536 1137 OFFCURVE",
"536 1168 QCURVE",
"539 1191 LINE SMOOTH",
"551 1256 OFFCURVE",
"668 1315 OFFCURVE",
"780 1315 QCURVE SMOOTH",
"870 1315 OFFCURVE",
"970 1249 OFFCURVE",
"972 1186 QCURVE",
"1215 1211 LINE",
"1213 1345 OFFCURVE",
"1006 1485 OFFCURVE",
"813 1485 QCURVE SMOOTH"
);
},
{
closed = 1;
nodes = (
"898 612 OFFCURVE",
"782 521 OFFCURVE",
"672 516 QCURVE",
"546 546 OFFCURVE",
"457 585 OFFCURVE",
"413 634 OFFCURVE",
"413 665 QCURVE SMOOTH",
"413 731 OFFCURVE",
"526 825 OFFCURVE",
"638 838 QCURVE",
"798 805 OFFCURVE",
"898 739 OFFCURVE",
"898 688 QCURVE SMOOTH"
);
}
);
userData = {
assembly = "NPUSHB[ ]\011/* 52 values pushed */
4 39 1 54 66 1 37 66 1 2 66 1 13 59 1 68 10 1 3 15 10 1 11 5 10 59 66 39 4 29 0 29 36 81 89 0 33 1 11 4 33 29 0 7 81 89 41 4 1 4 0 0 
SVTCA[0]\011/* SetFreedomAndProjectionVectorToAxis */
MIAP[1]\011/* MoveIndirectAbsPt */
SHP[0]\011/* ShiftPointByLastPoint */
DELTAP1[ ]\011/* DeltaExceptionP1 */
CALL[ ]\011/* CallFunction */
SVTCA[0]\011/* SetFreedomAndProjectionVectorToAxis */
RTG[ ]\011/* RoundToGrid */
MDAP[1]\011/* MoveDirectAbsPt */
SHP[1]\011/* ShiftPointByLastPoint */
SDS[ ]\011/* SetDeltaShiftInGState */
SDB[ ]\011/* SetDeltaBaseInGState */
DELTAP1[ ]\011/* DeltaExceptionP1 */
CALL[ ]\011/* CallFunction */
SRP1[ ]\011/* SetRefPoint1 */
SRP2[ ]\011/* SetRefPoint2 */
SVTCA[0]\011/* SetFreedomAndProjectionVectorToAxis */
SLOOP[ ]\011/* SetLoopVariable */
IP[ ]\011/* InterpolatePts */
SDS[ ]\011/* SetDeltaShiftInGState */
SDB[ ]\011/* SetDeltaBaseInGState */
DELTAP1[ ]\011/* DeltaExceptionP1 */
SDS[ ]\011/* SetDeltaShiftInGState */
DELTAP1[ ]\011/* DeltaExceptionP1 */
DELTAP1[ ]\011/* DeltaExceptionP1 */
DELTAP1[ ]\011/* DeltaExceptionP1 */
DELTAP1[ ]\011/* DeltaExceptionP1 */
DELTAP1[ ]\011/* DeltaExceptionP1 */
DELTAP1[ ]\011/* DeltaExceptionP1 */
IUP[1]\011/* InterpolateUntPts */
IUP[0]\011/* InterpolateUntPts */";
};
width = 1229;
}
);
note = section;
unicode = 00A7;
},
{
glyphname = bullet;
lastChange = "2019-12-17 17:45:32 +0000";
layers = (
{
layerId = "AF7A9115-5511-47E4-B81C-CE1A1F9990A7";
paths = (
{
closed = 1;
nodes = (
"668 386 OFFCURVE",
"837 484 OFFCURVE",
"940 649 OFFCURVE",
"940 737 QCURVE SMOOTH",
"940 839 OFFCURVE",
"802 974 OFFCURVE",
"696 974 QCURVE SMOOTH",
"610 974 OFFCURVE",
"447 880 OFFCURVE",
"343 716 OFFCURVE",
"343 625 QCURVE SMOOTH",
"343 524 OFFCURVE",
"476 386 OFFCURVE",
"582 386 QCURVE SMOOTH"
);
}
);
userData = {
assembly = "PUSHB[ ]\011/* 2 values pushed */
0 7 
SVTCA[0]\011/* SetFreedomAndProjectionVectorToAxis */
MDAP[1]\011/* MoveDirectAbsPt */
MDRP[01101]\011/* MoveDirectRelPt */
IUP[1]\011/* InterpolateUntPts */
IUP[0]\011/* InterpolateUntPts */";
};
width = 1229;
}
);
note = bullet;
unicode = 2022;
},
{
glyphname = paragraph;
lastChange = "2019-12-17 17:45:32 +0000";
layers = (
{
layerId = "AF7A9115-5511-47E4-B81C-CE1A1F9990A7";
paths = (
{
closed = 1;
nodes = (
"1244 1206 LINE",
"1272 1349 LINE",
"643 1349 LINE SMOOTH",
"511 1349 OFFCURVE",
"307 1235 OFFCURVE",
"193 1019 OFFCURVE",
"193 897 QCURVE SMOOTH",
"193 771 OFFCURVE",
"352 634 OFFCURVE",
"496 634 QCURVE",
"310 -324 LINE",
"465 -324 LINE",
"762 1206 LINE",
"957 1206 LINE",
"660 -324 LINE",
"816 -324 LINE",
"1113 1206 LINE"
);
}
);
userData = {
assembly = "NPUSHB[ ]\011/* 9 values pushed */
7 7 14 1 3 0 4 14 4 
PUSHW[ ]\011/* 1 value pushed */
256 
PUSHB[ ]\011/* 7 values pushed */
89 14 3 6 5 2 1 
SVTCA[0]\011/* SetFreedomAndProjectionVectorToAxis */
MDAP[1]\011/* MoveDirectAbsPt */
SHP[1]\011/* ShiftPointByLastPoint */
SHP[1]\011/* ShiftPointByLastPoint */
SHP[1]\011/* ShiftPointByLastPoint */
MIAP[1]\011/* MoveIndirectAbsPt */
CALL[ ]\011/* CallFunction */
SRP1[ ]\011/* SetRefPoint1 */
SVTCA[0]\011/* SetFreedomAndProjectionVectorToAxis */
SHP[1]\011/* ShiftPointByLastPoint */
SHP[1]\011/* ShiftPointByLastPoint */
SRP1[ ]\011/* SetRefPoint1 */
SRP2[ ]\011/* SetRefPoint2 */
IP[ ]\011/* InterpolatePts */
RTG[ ]\011/* RoundToGrid */
MDAP[1]\011/* MoveDirectAbsPt */
IUP[1]\011/* InterpolateUntPts */
IUP[0]\011/* InterpolateUntPts */";
};
width = 1229;
}
);
note = paragraph;
unicode = 00B6;
},
{
glyphname = germandbls;
lastChange = "2019-12-17 17:45:32 +0000";
layers = (
{
layerId = "AF7A9115-5511-47E4-B81C-CE1A1F9990A7";
paths = (
{
closed = 1;
nodes = (
"825 -20 OFFCURVE",
"1031 81 OFFCURVE",
"1141 277 OFFCURVE",
"1141 381 QCURVE SMOOTH",
"1141 523 OFFCURVE",
"1008 634 QCURVE SMOOTH",
"932 696 OFFCURVE",
"888 748 OFFCURVE",
"888 770 QCURVE SMOOTH",
"888 791 OFFCURVE",
"921 833 OFFCURVE",
"964 866 QCURVE SMOOTH",
"1054 934 OFFCURVE",
"1120 1003 OFFCURVE",
"1170 1084 OFFCURVE",
"1192 1175 OFFCURVE",
"1192 1213 QCURVE SMOOTH",
"1192 1341 OFFCURVE",
"988 1484 OFFCURVE",
"806 1484 QCURVE SMOOTH",
"565 1484 OFFCURVE",
"263 1238 OFFCURVE",
"219 1007 QCURVE SMOOTH",
"23 0 LINE",
"304 0 LINE",
"501 1013 LINE SMOOTH",
"552 1281 OFFCURVE",
"764 1281 QCURVE SMOOTH",
"842 1281 OFFCURVE",
"920 1220 OFFCURVE",
"920 1168 QCURVE SMOOTH",
"920 1112 OFFCURVE",
"849 1017 OFFCURVE",
"771 958 QCURVE SMOOTH",
"694 900 OFFCURVE",
"616 786 OFFCURVE",
"616 706 QCURVE SMOOTH",
"616 643 OFFCURVE",
"687 534 OFFCURVE",
"755 485 QCURVE SMOOTH",
"872 399 OFFCURVE",
"872 324 QCURVE",
"869 296 LINE",
"858 239 OFFCURVE",
"770 170 OFFCURVE",
"689 170 QCURVE SMOOTH",
"639 170 OFFCURVE",
"513 207 OFFCURVE",
"469 229 QCURVE",
"428 23 LINE",
"535 -20 OFFCURVE",
"682 -20 QCURVE SMOOTH"
);
}
);
userData = {
assembly = "NPUSHB[ ]\011/* 20 values pushed */
21 9 32 0 32 24 80 89 32 0 28 27 21 0 6 80 89 2 0 22 
SVTCA[0]\011/* SetFreedomAndProjectionVectorToAxis */
MIAP[1]\011/* MoveIndirectAbsPt */
SHP[0]\011/* ShiftPointByLastPoint */
CALL[ ]\011/* CallFunction */
SVTCA[0]\011/* SetFreedomAndProjectionVectorToAxis */
RTG[ ]\011/* RoundToGrid */
MIAP[1]\011/* MoveIndirectAbsPt */
SHP[1]\011/* ShiftPointByLastPoint */
MIAP[1]\011/* MoveIndirectAbsPt */
CALL[ ]\011/* CallFunction */
SRP1[ ]\011/* SetRefPoint1 */
SRP2[ ]\011/* SetRefPoint2 */
SVTCA[0]\011/* SetFreedomAndProjectionVectorToAxis */
IP[ ]\011/* InterpolatePts */
IP[ ]\011/* InterpolatePts */
IUP[1]\011/* InterpolateUntPts */
IUP[0]\011/* InterpolateUntPts */";
};
width = 1229;
}
);
note = germandbls;
unicode = 00DF;
},
{
glyphname = registered;
lastChange = "2019-12-17 17:45:32 +0000";
layers = (
{
layerId = "AF7A9115-5511-47E4-B81C-CE1A1F9990A7";
paths = (
{
closed = 1;
nodes = (
"1197 989 OFFCURVE",
"1055 1314 OFFCURVE",
"790 1484 OFFCURVE",
"614 1484 QCURVE SMOOTH",
"438 1484 OFFCURVE",
"173 1313 OFFCURVE",
"31 987 OFFCURVE",
"31 761 QCURVE SMOOTH",
"31 535 OFFCURVE",
"174 209 OFFCURVE",
"437 38 OFFCURVE",
"614 38 QCURVE SMOOTH",
"791 38 OFFCURVE",
"1055 207 OFFCURVE",
"1197 534 OFFCURVE",
"1197 761 QCURVE SMOOTH"
);
},
{
closed = 1;
nodes = (
"964 343 LINE",
"746 686 LINE",
"831 705 OFFCURVE",
"932 835 OFFCURVE",
"932 937 QCURVE SMOOTH",
"932 1048 OFFCURVE",
"781 1174 OFFCURVE",
"639 1174 QCURVE SMOOTH",
"332 1174 LINE",
"332 343 LINE",
"483 343 LINE",
"483 672 LINE",
"599 672 LINE",
"789 343 LINE"
);
},
{
closed = 1;
nodes = (
"781 860 OFFCURVE",
"697 782 OFFCURVE",
"617 782 QCURVE SMOOTH",
"483 782 LINE",
"483 1062 LINE",
"605 1062 LINE SMOOTH",
"781 1062 OFFCURVE",
"781 935 QCURVE SMOOTH"
);
},
{
closed = 1;
nodes = (
"1071 470 OFFCURVE",
"831 153 OFFCURVE",
"614 153 QCURVE SMOOTH",
"400 153 OFFCURVE",
"160 470 OFFCURVE",
"160 761 QCURVE SMOOTH",
"160 1049 OFFCURVE",
"399 1368 OFFCURVE",
"614 1368 QCURVE SMOOTH",
"832 1368 OFFCURVE",
"1071 1049 OFFCURVE",
"1071 761 QCURVE SMOOTH"
);
}
);
userData = {
assembly = "NPUSHB[ ]\011/* 57 values pushed */
29 16 20 28 17 18 34 18 200 89 21 33 200 89 15 20 31 20 79 20 95 20 111 20 5 79 34 95 34 2 0 21 16 21 2 9 3 20 34 21 21 34 20 3 4 12 12 41 203 89 12 0 4 47 203 89 4 
SVTCA[0]\011/* SetFreedomAndProjectionVectorToAxis */
MDAP[1]\011/* MoveDirectAbsPt */
CALL[ ]\011/* CallFunction */
SVTCA[0]\011/* SetFreedomAndProjectionVectorToAxis */
RTG[ ]\011/* RoundToGrid */
MIAP[1]\011/* MoveIndirectAbsPt */
CALL[ ]\011/* CallFunction */
SRP1[ ]\011/* SetRefPoint1 */
SRP2[ ]\011/* SetRefPoint2 */
SVTCA[0]\011/* SetFreedomAndProjectionVectorToAxis */
SLOOP[ ]\011/* SetLoopVariable */
IP[ ]\011/* InterpolatePts */
RTG[ ]\011/* RoundToGrid */
MDAP[1]\011/* MoveDirectAbsPt */
MDAP[1]\011/* MoveDirectAbsPt */
MDAP[1]\011/* MoveDirectAbsPt */
SDS[ ]\011/* SetDeltaShiftInGState */
SDB[ ]\011/* SetDeltaBaseInGState */
DELTAP1[ ]\011/* DeltaExceptionP1 */
DELTAP1[ ]\011/* DeltaExceptionP1 */
DELTAP1[ ]\011/* DeltaExceptionP1 */
CALL[ ]\011/* CallFunction */
CALL[ ]\011/* CallFunction */
SRP1[ ]\011/* SetRefPoint1 */
SVTCA[0]\011/* SetFreedomAndProjectionVectorToAxis */
SHP[1]\011/* ShiftPointByLastPoint */
SHP[1]\011/* ShiftPointByLastPoint */
SRP1[ ]\011/* SetRefPoint1 */
SHP[1]\011/* ShiftPointByLastPoint */
SHP[1]\011/* ShiftPointByLastPoint */
IUP[1]\011/* InterpolateUntPts */
IUP[0]\011/* InterpolateUntPts */";
};
width = 1229;
}
);
note = registered;
unicode = 00AE;
},
{
glyphname = copyright;
lastChange = "2019-12-17 17:45:32 +0000";
layers = (
{
layerId = "AF7A9115-5511-47E4-B81C-CE1A1F9990A7";
paths = (
{
closed = 1;
nodes = (
"736 333 OFFCURVE",
"891 456 OFFCURVE",
"928 569 QCURVE",
"799 611 LINE",
"741 457 OFFCURVE",
"628 457 QCURVE SMOOTH",
"535 457 OFFCURVE",
"428 621 OFFCURVE",
"428 763 QCURVE SMOOTH",
"428 909 OFFCURVE",
"528 1062 OFFCURVE",
"623 1062 QCURVE SMOOTH",
"737 1062 OFFCURVE",
"786 935 QCURVE",
"924 978 LINE",
"838 1187 OFFCURVE",
"621 1187 QCURVE SMOOTH",
"453 1187 OFFCURVE",
"275 965 OFFCURVE",
"275 763 QCURVE SMOOTH",
"275 560 OFFCURVE",
"460 333 OFFCURVE",
"628 333 QCURVE SMOOTH"
);
},
{
closed = 1;
nodes = (
"1197 989 OFFCURVE",
"1055 1314 OFFCURVE",
"790 1484 OFFCURVE",
"614 1484 QCURVE SMOOTH",
"438 1484 OFFCURVE",
"173 1313 OFFCURVE",
"31 987 OFFCURVE",
"31 761 QCURVE SMOOTH",
"31 535 OFFCURVE",
"174 209 OFFCURVE",
"437 38 OFFCURVE",
"614 38 QCURVE SMOOTH",
"791 38 OFFCURVE",
"1055 207 OFFCURVE",
"1197 534 OFFCURVE",
"1197 761 QCURVE SMOOTH"
);
},
{
closed = 1;
nodes = (
"1071 470 OFFCURVE",
"831 153 OFFCURVE",
"614 153 QCURVE SMOOTH",
"400 153 OFFCURVE",
"160 470 OFFCURVE",
"160 761 QCURVE SMOOTH",
"160 1049 OFFCURVE",
"399 1368 OFFCURVE",
"614 1368 QCURVE SMOOTH",
"832 1368 OFFCURVE",
"1071 1049 OFFCURVE",
"1071 761 QCURVE SMOOTH"
);
}
);
userData = {
assembly = "NPUSHB[ ]\011/* 58 values pushed */
19 0 0 17 201 89 6 11 201 89 9 6 15 0 31 0 239 0 255 0 4 0 64 13 17 72 0 6 16 6 112 6 128 6 224 6 240 6 6 9 3 0 6 0 6 27 35 35 42 203 89 35 0 27 48 203 89 27 
SVTCA[0]\011/* SetFreedomAndProjectionVectorToAxis */
MDAP[1]\011/* MoveDirectAbsPt */
CALL[ ]\011/* CallFunction */
SVTCA[0]\011/* SetFreedomAndProjectionVectorToAxis */
RTG[ ]\011/* RoundToGrid */
MIAP[1]\011/* MoveIndirectAbsPt */
CALL[ ]\011/* CallFunction */
SRP1[ ]\011/* SetRefPoint1 */
SRP2[ ]\011/* SetRefPoint2 */
SVTCA[0]\011/* SetFreedomAndProjectionVectorToAxis */
IP[ ]\011/* InterpolatePts */
IP[ ]\011/* InterpolatePts */
RTG[ ]\011/* RoundToGrid */
MDAP[1]\011/* MoveDirectAbsPt */
MDAP[1]\011/* MoveDirectAbsPt */
SDS[ ]\011/* SetDeltaShiftInGState */
SDB[ ]\011/* SetDeltaBaseInGState */
DELTAP1[ ]\011/* DeltaExceptionP1 */
CALL[ ]\011/* CallFunction */
DELTAP1[ ]\011/* DeltaExceptionP1 */
SRP1[ ]\011/* SetRefPoint1 */
SHP[1]\011/* ShiftPointByLastPoint */
CALL[ ]\011/* CallFunction */
CALL[ ]\011/* CallFunction */
SRP1[ ]\011/* SetRefPoint1 */
SVTCA[0]\011/* SetFreedomAndProjectionVectorToAxis */
SHP[1]\011/* ShiftPointByLastPoint */
IUP[1]\011/* InterpolateUntPts */
IUP[0]\011/* InterpolateUntPts */";
};
width = 1229;
}
);
note = copyright;
unicode = 00A9;
},
{
glyphname = trademark;
lastChange = "2019-12-17 17:45:32 +0000";
layers = (
{
layerId = "AF7A9115-5511-47E4-B81C-CE1A1F9990A7";
paths = (
{
closed = 1;
nodes = (
"477 1351 LINE",
"477 1483 LINE",
"0 1483 LINE",
"0 1351 LINE",
"158 1351 LINE",
"158 842 LINE",
"315 842 LINE",
"315 1351 LINE"
);
},
{
closed = 1;
nodes = (
"860 1075 OFFCURVE",
"846 1111 QCURVE SMOOTH",
"704 1483 LINE",
"521 1483 LINE",
"521 842 LINE",
"656 842 LINE",
"656 1195 LINE",
"653 1282 LINE",
"679 1195 LINE",
"815 842 LINE",
"912 842 LINE",
"1048 1195 LINE",
"1074 1283 LINE",
"1071 1195 LINE",
"1071 842 LINE",
"1206 842 LINE",
"1206 1483 LINE",
"1023 1483 LINE",
"890 1138 OFFCURVE",
"866 1060 OFFCURVE",
"864 1044 QCURVE"
);
}
);
userData = {
assembly = "NPUSHB[ ]\011/* 31 values pushed */
16 21 13 21 29 21 2 13 3 21 48 16 22 72 21 5 0 4 5 4 202 89 24 15 19 31 19 2 19 14 8 
PUSHW[ ]\011/* 1 value pushed */
-48 
NPUSHB[ ]\011/* 20 values pushed */
16 22 72 75 8 91 8 2 15 8 31 8 2 8 2 26 25 11 5 0 
SVTCA[0]\011/* SetFreedomAndProjectionVectorToAxis */
MIAP[1]\011/* MoveIndirectAbsPt */
SHP[1]\011/* ShiftPointByLastPoint */
SHP[1]\011/* ShiftPointByLastPoint */
SHP[1]\011/* ShiftPointByLastPoint */
MDRP[01100]\011/* MoveDirectRelPt */
SHP[0]\011/* ShiftPointByLastPoint */
DELTAP1[ ]\011/* DeltaExceptionP1 */
DELTAP1[ ]\011/* DeltaExceptionP1 */
CALL[ ]\011/* CallFunction */
SHP[0]\011/* ShiftPointByLastPoint */
SHP[0]\011/* ShiftPointByLastPoint */
DELTAP1[ ]\011/* DeltaExceptionP1 */
SHP[0]\011/* ShiftPointByLastPoint */
CALL[ ]\011/* CallFunction */
SRP1[ ]\011/* SetRefPoint1 */
SVTCA[0]\011/* SetFreedomAndProjectionVectorToAxis */
SHP[1]\011/* ShiftPointByLastPoint */
SRP1[ ]\011/* SetRefPoint1 */
SHP[1]\011/* ShiftPointByLastPoint */
CALL[ ]\011/* CallFunction */
SDS[ ]\011/* SetDeltaShiftInGState */
SDB[ ]\011/* SetDeltaBaseInGState */
DELTAP1[ ]\011/* DeltaExceptionP1 */
SRP1[ ]\011/* SetRefPoint1 */
SHP[1]\011/* ShiftPointByLastPoint */
IUP[1]\011/* InterpolateUntPts */
IUP[0]\011/* InterpolateUntPts */";
};
width = 1229;
}
);
note = trademark;
unicode = 2122;
},
{
glyphname = acute;
lastChange = "2019-12-17 17:45:32 +0000";
layers = (
{
layerId = "AF7A9115-5511-47E4-B81C-CE1A1F9990A7";
paths = (
{
closed = 1;
nodes = (
"662 1184 LINE",
"1047 1415 LINE",
"1055 1458 LINE",
"797 1458 LINE",
"498 1215 LINE",
"492 1184 LINE"
);
}
);
userData = {
assembly = "PUSHB[ ]\011/* 5 values pushed */
0 2 140 91 0 
SVTCA[0]\011/* SetFreedomAndProjectionVectorToAxis */
MDAP[1]\011/* MoveDirectAbsPt */
CALL[ ]\011/* CallFunction */
IUP[1]\011/* InterpolateUntPts */
IUP[0]\011/* InterpolateUntPts */";
};
width = 1229;
}
);
note = acute;
unicode = 00B4;
},
{
glyphname = dieresis;
lastChange = "2019-12-17 17:45:32 +0000";
layers = (
{
layerId = "AF7A9115-5511-47E4-B81C-CE1A1F9990A7";
paths = (
{
closed = 1;
nodes = (
"1072 1219 LINE",
"1115 1438 LINE",
"888 1438 LINE",
"845 1219 LINE"
);
},
{
closed = 1;
nodes = (
"645 1219 LINE",
"688 1438 LINE",
"464 1438 LINE",
"421 1219 LINE"
);
}
);
userData = {
assembly = "PUSHB[ ]\011/* 8 values pushed */
1 5 4 5 148 91 0 4 
SVTCA[0]\011/* SetFreedomAndProjectionVectorToAxis */
MDAP[1]\011/* MoveDirectAbsPt */
SHP[1]\011/* ShiftPointByLastPoint */
CALL[ ]\011/* CallFunction */
SRP1[ ]\011/* SetRefPoint1 */
SVTCA[0]\011/* SetFreedomAndProjectionVectorToAxis */
SHP[1]\011/* ShiftPointByLastPoint */
IUP[1]\011/* InterpolateUntPts */
IUP[0]\011/* InterpolateUntPts */";
};
width = 1229;
}
);
note = dieresis;
unicode = 00A8;
},
{
glyphname = notequal;
lastChange = "2019-12-17 17:45:32 +0000";
layers = (
{
layerId = "AF7A9115-5511-47E4-B81C-CE1A1F9990A7";
paths = (
{
closed = 1;
nodes = (
"1138 291 LINE",
"1138 512 LINE",
"621 512 LINE",
"787 842 LINE",
"1138 842 LINE",
"1138 1065 LINE",
"896 1065 LINE",
"1027 1323 LINE",
"816 1323 LINE",
"683 1065 LINE",
"91 1065 LINE",
"91 842 LINE",
"574 842 LINE",
"408 512 LINE",
"91 512 LINE",
"91 291 LINE",
"300 291 LINE",
"171 37 LINE",
"384 37 LINE",
"513 291 LINE"
);
}
);
userData = {
assembly = "NPUSHB[ ]\011/* 48 values pushed */
12 11 31 11 1 0 11 1 12 5 11 9 16 7 8 9 8 173 89 1 2 16 2 1 15 2 1 12 5 2 3 0 4 5 4 173 89 17 6 5 13 10 32 9 96 9 2 9 
SVTCA[0]\011/* SetFreedomAndProjectionVectorToAxis */
MDAP[1]\011/* MoveDirectAbsPt */
DELTAP1[ ]\011/* DeltaExceptionP1 */
SHP[1]\011/* ShiftPointByLastPoint */
SHP[1]\011/* ShiftPointByLastPoint */
MDRP[01110]\011/* MoveDirectRelPt */
SHP[0]\011/* ShiftPointByLastPoint */
SHP[0]\011/* ShiftPointByLastPoint */
CALL[ ]\011/* CallFunction */
SRP1[ ]\011/* SetRefPoint1 */
SVTCA[0]\011/* SetFreedomAndProjectionVectorToAxis */
SHP[1]\011/* ShiftPointByLastPoint */
SHP[1]\011/* ShiftPointByLastPoint */
SHP[1]\011/* ShiftPointByLastPoint */
SDS[ ]\011/* SetDeltaShiftInGState */
SDB[ ]\011/* SetDeltaBaseInGState */
DELTAP1[ ]\011/* DeltaExceptionP1 */
DELTAP1[ ]\011/* DeltaExceptionP1 */
SRP1[ ]\011/* SetRefPoint1 */
SHP[1]\011/* ShiftPointByLastPoint */
CALL[ ]\011/* CallFunction */
SRP1[ ]\011/* SetRefPoint1 */
SVTCA[0]\011/* SetFreedomAndProjectionVectorToAxis */
SHP[1]\011/* ShiftPointByLastPoint */
SHP[1]\011/* ShiftPointByLastPoint */
SRP1[ ]\011/* SetRefPoint1 */
SHP[1]\011/* ShiftPointByLastPoint */
SDS[ ]\011/* SetDeltaShiftInGState */
SDB[ ]\011/* SetDeltaBaseInGState */
DELTAP1[ ]\011/* DeltaExceptionP1 */
DELTAP1[ ]\011/* DeltaExceptionP1 */
SRP1[ ]\011/* SetRefPoint1 */
SHP[1]\011/* ShiftPointByLastPoint */
IUP[1]\011/* InterpolateUntPts */
IUP[0]\011/* InterpolateUntPts */";
};
width = 1229;
}
);
note = notequal;
unicode = 2260;
},
{
glyphname = AE;
lastChange = "2019-12-17 17:45:32 +0000";
layers = (
{
layerId = "AF7A9115-5511-47E4-B81C-CE1A1F9990A7";
paths = (
{
closed = 1;
nodes = (
"511 0 LINE",
"1110 0 LINE",
"1149 202 LINE",
"801 202 LINE",
"877 592 LINE",
"1174 592 LINE",
"1213 792 LINE",
"916 792 LINE",
"985 1147 LINE",
"1294 1147 LINE",
"1333 1349 LINE",
"529 1349 LINE",
"-105 0 LINE",
"156 0 LINE",
"333 387 LINE",
"586 387 LINE"
);
},
{
closed = 1;
nodes = (
"625 586 LINE",
"423 586 LINE",
"592 952 LINE",
"677 1152 LINE",
"735 1152 LINE"
);
}
);
userData = {
assembly = "NPUSHB[ ]\011/* 57 values pushed */
0 1 19 1 98 89 20 19 19 4 15 15 12 98 89 8 11 98 89 204 8 1 185 8 1 152 8 1 63 8 79 8 2 3 15 8 31 8 2 13 5 8 8 4 3 2 15 18 17 16 4 4 7 98 89 4 3 
SVTCA[0]\011/* SetFreedomAndProjectionVectorToAxis */
MIAP[1]\011/* MoveIndirectAbsPt */
CALL[ ]\011/* CallFunction */
SRP1[ ]\011/* SetRefPoint1 */
SVTCA[0]\011/* SetFreedomAndProjectionVectorToAxis */
SHP[1]\011/* ShiftPointByLastPoint */
SHP[1]\011/* ShiftPointByLastPoint */
RTG[ ]\011/* RoundToGrid */
MIAP[1]\011/* MoveIndirectAbsPt */
SHP[1]\011/* ShiftPointByLastPoint */
SHP[1]\011/* ShiftPointByLastPoint */
SRP2[ ]\011/* SetRefPoint2 */
IP[ ]\011/* InterpolatePts */
MDAP[1]\011/* MoveDirectAbsPt */
SDS[ ]\011/* SetDeltaShiftInGState */
SDB[ ]\011/* SetDeltaBaseInGState */
DELTAP1[ ]\011/* DeltaExceptionP1 */
SDS[ ]\011/* SetDeltaShiftInGState */
DELTAP1[ ]\011/* DeltaExceptionP1 */
DELTAP1[ ]\011/* DeltaExceptionP1 */
DELTAP1[ ]\011/* DeltaExceptionP1 */
DELTAP1[ ]\011/* DeltaExceptionP1 */
CALL[ ]\011/* CallFunction */
CALL[ ]\011/* CallFunction */
SRP1[ ]\011/* SetRefPoint1 */
SRP2[ ]\011/* SetRefPoint2 */
SVTCA[0]\011/* SetFreedomAndProjectionVectorToAxis */
IP[ ]\011/* InterpolatePts */
RTG[ ]\011/* RoundToGrid */
MDAP[1]\011/* MoveDirectAbsPt */
SHP[1]\011/* ShiftPointByLastPoint */
CALL[ ]\011/* CallFunction */
SRP1[ ]\011/* SetRefPoint1 */
SVTCA[0]\011/* SetFreedomAndProjectionVectorToAxis */
SHP[1]\011/* ShiftPointByLastPoint */
IUP[1]\011/* InterpolateUntPts */
IUP[0]\011/* InterpolateUntPts */";
};
width = 1229;
}
);
note = AE;
unicode = 00C6;
},
{
glyphname = Oslash;
lastChange = "2019-12-17 17:45:32 +0000";
layers = (
{
layerId = "AF7A9115-5511-47E4-B81C-CE1A1F9990A7";
paths = (
{
closed = 1;
nodes = (
"667 -20 OFFCURVE",
"923 114 OFFCURVE",
"1105 372 OFFCURVE",
"1209 753 OFFCURVE",
"1209 915 QCURVE SMOOTH",
"1209 1049 OFFCURVE",
"1168 1149 QCURVE",
"1332 1322 LINE",
"1233 1397 LINE",
"1099 1255 LINE",
"989 1370 OFFCURVE",
"776 1370 QCURVE SMOOTH",
"614 1370 OFFCURVE",
"356 1237 OFFCURVE",
"175 980 OFFCURVE",
"73 598 OFFCURVE",
"73 439 QCURVE SMOOTH",
"73 304 OFFCURVE",
"112 208 QCURVE",
"-53 32 LINE",
"47 -43 LINE",
"180 99 LINE",
"291 -20 OFFCURVE",
"506 -20 QCURVE SMOOTH"
);
},
{
closed = 1;
nodes = (
"905 730 OFFCURVE",
"808 387 OFFCURVE",
"655 212 OFFCURVE",
"551 212 QCURVE SMOOTH",
"435 212 OFFCURVE",
"394 326 QCURVE",
"908 872 LINE"
);
},
{
closed = 1;
nodes = (
"377 624 OFFCURVE",
"473 967 OFFCURVE",
"626 1138 OFFCURVE",
"731 1138 QCURVE SMOOTH",
"848 1138 OFFCURVE",
"887 1031 QCURVE",
"374 486 LINE"
);
}
);
userData = {
assembly = "NPUSHB[ ]\011/* 15 values pushed */
12 34 95 89 31 24 0 12 4 0 27 95 89 0 19 
SVTCA[0]\011/* SetFreedomAndProjectionVectorToAxis */
MIAP[1]\011/* MoveIndirectAbsPt */
CALL[ ]\011/* CallFunction */
SVTCA[0]\011/* SetFreedomAndProjectionVectorToAxis */
RTG[ ]\011/* RoundToGrid */
MIAP[1]\011/* MoveIndirectAbsPt */
SRP2[ ]\011/* SetRefPoint2 */
IP[ ]\011/* InterpolatePts */
IP[ ]\011/* InterpolatePts */
CALL[ ]\011/* CallFunction */
IUP[1]\011/* InterpolateUntPts */
IUP[0]\011/* InterpolateUntPts */";
};
width = 1229;
}
);
note = Oslash;
unicode = 00D8;
},
{
glyphname = infinity;
lastChange = "2019-12-17 17:45:32 +0000";
layers = (
{
layerId = "AF7A9115-5511-47E4-B81C-CE1A1F9990A7";
paths = (
{
closed = 1;
nodes = (
"1210 764 OFFCURVE",
"1052 975 OFFCURVE",
"908 975 QCURVE SMOOTH",
"850 975 OFFCURVE",
"755 925 OFFCURVE",
"672 830 OFFCURVE",
"614 725 QCURVE",
"542 867 OFFCURVE",
"403 984 OFFCURVE",
"311 984 QCURVE SMOOTH",
"178 984 OFFCURVE",
"19 768 OFFCURVE",
"19 597 QCURVE SMOOTH",
"19 415 OFFCURVE",
"178 206 OFFCURVE",
"311 206 QCURVE SMOOTH",
"372 206 OFFCURVE",
"473 255 OFFCURVE",
"558 347 OFFCURVE",
"614 445 QCURVE",
"685 308 OFFCURVE",
"823 196 OFFCURVE",
"920 196 QCURVE SMOOTH",
"1050 196 OFFCURVE",
"1210 415 OFFCURVE",
"1210 583 QCURVE SMOOTH"
);
},
{
closed = 1;
nodes = (
"953 802 OFFCURVE",
"1020 687 OFFCURVE",
"1020 585 QCURVE SMOOTH",
"1020 489 OFFCURVE",
"953 369 OFFCURVE",
"895 369 QCURVE SMOOTH",
"833 369 OFFCURVE",
"739 484 OFFCURVE",
"692 585 QCURVE",
"794 802 OFFCURVE",
"896 802 QCURVE SMOOTH"
);
},
{
closed = 1;
nodes = (
"485 488 OFFCURVE",
"394 380 OFFCURVE",
"343 380 QCURVE SMOOTH",
"281 380 OFFCURVE",
"209 496 OFFCURVE",
"209 595 QCURVE SMOOTH",
"209 688 OFFCURVE",
"282 813 OFFCURVE",
"342 813 QCURVE SMOOTH",
"392 813 OFFCURVE",
"477 723 OFFCURVE",
"535 595 QCURVE"
);
}
);
userData = {
assembly = "NPUSHB[ ]\011/* 20 values pushed */
6 19 23 10 10 3 46 15 31 1 31 40 26 23 16 16 15 23 1 23 
SVTCA[0]\011/* SetFreedomAndProjectionVectorToAxis */
MDAP[1]\011/* MoveDirectAbsPt */
DELTAP1[ ]\011/* DeltaExceptionP1 */
SHP[1]\011/* ShiftPointByLastPoint */
MDAP[1]\011/* MoveDirectAbsPt */
SRP0[ ]\011/* SetRefPoint0 */
MDRP[01101]\011/* MoveDirectRelPt */
SHP[0]\011/* ShiftPointByLastPoint */
MDRP[11100]\011/* MoveDirectRelPt */
DELTAP1[ ]\011/* DeltaExceptionP1 */
SHP[0]\011/* ShiftPointByLastPoint */
MDRP[01101]\011/* MoveDirectRelPt */
SHP[0]\011/* ShiftPointByLastPoint */
MDAP[1]\011/* MoveDirectAbsPt */
SRP1[ ]\011/* SetRefPoint1 */
IP[ ]\011/* InterpolatePts */
IP[ ]\011/* InterpolatePts */
IUP[1]\011/* InterpolateUntPts */
IUP[0]\011/* InterpolateUntPts */";
};
width = 1229;
}
);
note = infinity;
unicode = 221E;
},
{
glyphname = plusminus;
lastChange = "2019-12-17 17:45:32 +0000";
layers = (
{
layerId = "AF7A9115-5511-47E4-B81C-CE1A1F9990A7";
paths = (
{
closed = 1;
nodes = (
"1128 707 LINE",
"1128 930 LINE",
"726 930 LINE",
"726 1270 LINE",
"502 1270 LINE",
"502 930 LINE",
"101 930 LINE",
"101 707 LINE",
"502 707 LINE",
"502 366 LINE",
"726 366 LINE",
"726 707 LINE"
);
},
{
closed = 1;
nodes = (
"1128 0 LINE",
"1128 223 LINE",
"101 223 LINE",
"101 0 LINE"
);
}
);
userData = {
assembly = "NPUSHB[ ]\011/* 37 values pushed */
12 13 173 89 12 0 2 16 2 32 2 3 13 4 2 0 4 5 4 173 89 9 75 7 91 7 107 7 3 8 7 1 7 96 5 1 5 
SVTCA[0]\011/* SetFreedomAndProjectionVectorToAxis */
MDAP[1]\011/* MoveDirectAbsPt */
DELTAP1[ ]\011/* DeltaExceptionP1 */
SHP[1]\011/* ShiftPointByLastPoint */
DELTAP1[ ]\011/* DeltaExceptionP1 */
DELTAP1[ ]\011/* DeltaExceptionP1 */
SHP[1]\011/* ShiftPointByLastPoint */
CALL[ ]\011/* CallFunction */
SRP1[ ]\011/* SetRefPoint1 */
SVTCA[0]\011/* SetFreedomAndProjectionVectorToAxis */
SHP[1]\011/* ShiftPointByLastPoint */
SHP[1]\011/* ShiftPointByLastPoint */
SDS[ ]\011/* SetDeltaShiftInGState */
SDB[ ]\011/* SetDeltaBaseInGState */
DELTAP1[ ]\011/* DeltaExceptionP1 */
RTG[ ]\011/* RoundToGrid */
MDAP[1]\011/* MoveDirectAbsPt */
CALL[ ]\011/* CallFunction */
IUP[1]\011/* InterpolateUntPts */
IUP[0]\011/* InterpolateUntPts */";
};
width = 1229;
}
);
note = plusminus;
unicode = 00B1;
},
{
glyphname = lessequal;
lastChange = "2019-12-17 17:45:32 +0000";
layers = (
{
layerId = "AF7A9115-5511-47E4-B81C-CE1A1F9990A7";
paths = (
{
closed = 1;
nodes = (
"1117 285 LINE",
"1117 512 LINE",
"285 791 LINE",
"1117 1071 LINE",
"1117 1298 LINE",
"91 952 LINE",
"91 631 LINE"
);
},
{
closed = 1;
nodes = (
"1115 0 LINE",
"1115 223 LINE",
"91 223 LINE",
"91 0 LINE"
);
}
);
userData = {
assembly = "PUSHB[ ]\011/* 8 values pushed */
7 8 173 89 7 6 2 4 
SVTCA[0]\011/* SetFreedomAndProjectionVectorToAxis */
RTHG[ ]\011/* RoundToHalfGrid */
MDAP[1]\011/* MoveDirectAbsPt */
MDRP[01101]\011/* MoveDirectRelPt */
MDRP[01101]\011/* MoveDirectRelPt */
RTG[ ]\011/* RoundToGrid */
MDAP[1]\011/* MoveDirectAbsPt */
CALL[ ]\011/* CallFunction */
IUP[1]\011/* InterpolateUntPts */
IUP[0]\011/* InterpolateUntPts */";
};
width = 1229;
}
);
note = lessequal;
unicode = 2264;
},
{
glyphname = greaterequal;
lastChange = "2019-12-17 17:45:32 +0000";
layers = (
{
layerId = "AF7A9115-5511-47E4-B81C-CE1A1F9990A7";
paths = (
{
closed = 1;
nodes = (
"1137 631 LINE",
"1137 952 LINE",
"111 1298 LINE",
"111 1071 LINE",
"943 791 LINE",
"111 512 LINE",
"111 285 LINE"
);
},
{
closed = 1;
nodes = (
"1137 0 LINE",
"1137 223 LINE",
"113 223 LINE",
"113 0 LINE"
);
}
);
userData = {
assembly = "NPUSHB[ ]\011/* 10 values pushed */
7 8 173 89 7 6 5 4 0 2 
SVTCA[0]\011/* SetFreedomAndProjectionVectorToAxis */
RTHG[ ]\011/* RoundToHalfGrid */
MDAP[1]\011/* MoveDirectAbsPt */
MDRP[01101]\011/* MoveDirectRelPt */
MDRP[01101]\011/* MoveDirectRelPt */
SHP[1]\011/* ShiftPointByLastPoint */
SHP[1]\011/* ShiftPointByLastPoint */
RTG[ ]\011/* RoundToGrid */
MDAP[1]\011/* MoveDirectAbsPt */
CALL[ ]\011/* CallFunction */
IUP[1]\011/* InterpolateUntPts */
IUP[0]\011/* InterpolateUntPts */";
};
width = 1229;
}
);
note = greaterequal;
unicode = 2265;
},
{
glyphname = yen;
lastChange = "2019-12-17 17:45:32 +0000";
layers = (
{
layerId = "AF7A9115-5511-47E4-B81C-CE1A1F9990A7";
paths = (
{
closed = 1;
nodes = (
"1352 1349 LINE",
"1063 1349 LINE",
"665 813 LINE",
"479 1349 LINE",
"190 1349 LINE",
"446 691 LINE",
"170 691 LINE",
"142 545 LINE",
"478 545 LINE",
"446 383 LINE",
"110 383 LINE",
"82 236 LINE",
"418 236 LINE",
"372 0 LINE",
"644 0 LINE",
"690 236 LINE",
"1028 236 LINE",
"1056 383 LINE",
"718 383 LINE",
"750 545 LINE",
"1088 545 LINE",
"1116 691 LINE",
"840 691 LINE"
);
}
);
userData = {
assembly = "NPUSHB[ ]\011/* 34 values pushed */
14 3 15 16 15 99 89 10 7 11 12 11 99 89 13 4 0 12 1 12 20 17 0 16 16 8 22 21 19 18 3 9 8 18 
SVTCA[0]\011/* SetFreedomAndProjectionVectorToAxis */
MIAP[1]\011/* MoveIndirectAbsPt */
SHP[1]\011/* ShiftPointByLastPoint */
MIAP[1]\011/* MoveIndirectAbsPt */
SHP[1]\011/* ShiftPointByLastPoint */
SHP[1]\011/* ShiftPointByLastPoint */
SHP[1]\011/* ShiftPointByLastPoint */
SRP2[ ]\011/* SetRefPoint2 */
IP[ ]\011/* InterpolatePts */
MDAP[1]\011/* MoveDirectAbsPt */
SHP[1]\011/* ShiftPointByLastPoint */
SHP[1]\011/* ShiftPointByLastPoint */
SHP[1]\011/* ShiftPointByLastPoint */
MDRP[01110]\011/* MoveDirectRelPt */
DELTAP1[ ]\011/* DeltaExceptionP1 */
SHP[0]\011/* ShiftPointByLastPoint */
SHP[0]\011/* ShiftPointByLastPoint */
CALL[ ]\011/* CallFunction */
SRP1[ ]\011/* SetRefPoint1 */
SVTCA[0]\011/* SetFreedomAndProjectionVectorToAxis */
SHP[1]\011/* ShiftPointByLastPoint */
SHP[1]\011/* ShiftPointByLastPoint */
CALL[ ]\011/* CallFunction */
SRP1[ ]\011/* SetRefPoint1 */
SVTCA[0]\011/* SetFreedomAndProjectionVectorToAxis */
SHP[1]\011/* ShiftPointByLastPoint */
SHP[1]\011/* ShiftPointByLastPoint */
IUP[1]\011/* InterpolateUntPts */
IUP[0]\011/* InterpolateUntPts */";
};
width = 1229;
}
);
note = yen;
unicode = 00A5;
},
{
glyphname = mu1;
lastChange = "2019-12-17 17:45:32 +0000";
layers = (
{
layerId = "AF7A9115-5511-47E4-B81C-CE1A1F9990A7";
paths = (
{
closed = 1;
nodes = (
"997 0 LINE",
"1000 35 OFFCURVE",
"1036 242 QCURVE SMOOTH",
"1199 1082 LINE",
"918 1082 LINE",
"806 504 LINE SMOOTH",
"780 364 OFFCURVE",
"626 193 OFFCURVE",
"527 193 QCURVE SMOOTH",
"385 193 OFFCURVE",
"385 358 QCURVE SMOOTH",
"385 406 OFFCURVE",
"398 477 QCURVE SMOOTH",
"515 1082 LINE",
"234 1082 LINE",
"-57 -416 LINE",
"224 -416 LINE",
"296 -45 LINE",
"315 70 LINE",
"319 70 LINE",
"334 28 OFFCURVE",
"411 -20 OFFCURVE",
"463 -20 QCURVE SMOOTH",
"632 -20 OFFCURVE",
"749 184 QCURVE",
"752 184 LINE",
"738 112 OFFCURVE",
"729 0 QCURVE"
);
}
);
userData = {
assembly = "NPUSHB[ ]\011/* 18 values pushed */
27 21 8 2 5 24 23 14 13 15 12 11 5 19 82 89 5 22 
SVTCA[0]\011/* SetFreedomAndProjectionVectorToAxis */
MIAP[1]\011/* MoveIndirectAbsPt */
CALL[ ]\011/* CallFunction */
SVTCA[0]\011/* SetFreedomAndProjectionVectorToAxis */
RTG[ ]\011/* RoundToGrid */
MDAP[1]\011/* MoveDirectAbsPt */
SHP[1]\011/* ShiftPointByLastPoint */
MIAP[1]\011/* MoveIndirectAbsPt */
SHP[1]\011/* ShiftPointByLastPoint */
SHP[1]\011/* ShiftPointByLastPoint */
SHP[1]\011/* ShiftPointByLastPoint */
SRP2[ ]\011/* SetRefPoint2 */
IP[ ]\011/* InterpolatePts */
IP[ ]\011/* InterpolatePts */
MIAP[1]\011/* MoveIndirectAbsPt */
IUP[1]\011/* InterpolateUntPts */
IUP[0]\011/* InterpolateUntPts */";
};
width = 1229;
}
);
note = mu1;
unicode = 00B5;
},
{
glyphname = partialdiff;
lastChange = "2019-12-17 17:45:32 +0000";
layers = (
{
layerId = "AF7A9115-5511-47E4-B81C-CE1A1F9990A7";
paths = (
{
closed = 1;
nodes = (
"1137 1199 OFFCURVE",
"890 1477 OFFCURVE",
"660 1477 QCURVE SMOOTH",
"502 1477 OFFCURVE",
"389 1404 QCURVE",
"344 1196 LINE",
"396 1234 OFFCURVE",
"546 1284 OFFCURVE",
"613 1284 QCURVE SMOOTH",
"761 1284 OFFCURVE",
"910 1107 OFFCURVE",
"910 941 QCURVE SMOOTH",
"910 915 OFFCURVE",
"903 838 QCURVE",
"897 838 LINE",
"860 912 OFFCURVE",
"700 1003 OFFCURVE",
"597 1003 QCURVE SMOOTH",
"483 1003 OFFCURVE",
"297 906 OFFCURVE",
"158 726 OFFCURVE",
"77 479 OFFCURVE",
"77 361 QCURVE SMOOTH",
"77 176 OFFCURVE",
"284 -27 OFFCURVE",
"474 -27 QCURVE SMOOTH",
"598 -27 OFFCURVE",
"804 65 OFFCURVE",
"964 239 OFFCURVE",
"1079 497 OFFCURVE",
"1137 809 OFFCURVE",
"1137 937 QCURVE SMOOTH"
);
},
{
closed = 1;
nodes = (
"825 445 OFFCURVE",
"624 168 OFFCURVE",
"495 168 QCURVE SMOOTH",
"409 168 OFFCURVE",
"314 273 OFFCURVE",
"314 365 QCURVE SMOOTH",
"314 481 OFFCURVE",
"406 713 OFFCURVE",
"553 834 OFFCURVE",
"642 834 QCURVE SMOOTH",
"720 834 OFFCURVE",
"840 737 OFFCURVE",
"859 663 QCURVE"
);
}
);
userData = {
assembly = "NPUSHB[ ]\011/* 22 values pushed */
14 35 81 89 17 14 14 6 27 29 29 23 80 89 29 0 6 42 80 89 6 22 
SVTCA[0]\011/* SetFreedomAndProjectionVectorToAxis */
MIAP[1]\011/* MoveIndirectAbsPt */
CALL[ ]\011/* CallFunction */
SVTCA[0]\011/* SetFreedomAndProjectionVectorToAxis */
RTG[ ]\011/* RoundToGrid */
MIAP[1]\011/* MoveIndirectAbsPt */
CALL[ ]\011/* CallFunction */
SRP1[ ]\011/* SetRefPoint1 */
SVTCA[0]\011/* SetFreedomAndProjectionVectorToAxis */
SHP[1]\011/* ShiftPointByLastPoint */
SRP2[ ]\011/* SetRefPoint2 */
IP[ ]\011/* InterpolatePts */
RTG[ ]\011/* RoundToGrid */
MDAP[1]\011/* MoveDirectAbsPt */
SHP[1]\011/* ShiftPointByLastPoint */
CALL[ ]\011/* CallFunction */
IUP[1]\011/* InterpolateUntPts */
IUP[0]\011/* InterpolateUntPts */";
};
width = 1229;
}
);
note = partialdiff;
unicode = 2202;
},
{
glyphname = summation;
lastChange = "2019-12-17 17:45:32 +0000";
layers = (
{
layerId = "AF7A9115-5511-47E4-B81C-CE1A1F9990A7";
paths = (
{
closed = 1;
nodes = (
"1216 -455 LINE",
"1216 -227 LINE",
"393 -227 LINE",
"941 455 LINE",
"413 1122 LINE",
"1159 1122 LINE",
"1159 1349 LINE",
"42 1349 LINE",
"42 1197 LINE",
"628 451 LINE",
"22 -295 LINE",
"22 -455 LINE"
);
}
);
userData = {
assembly = "NPUSHB[ ]\011/* 19 values pushed */
3 4 7 4 7 95 89 2 8 4 3 1 0 9 0 9 95 89 0 
SVTCA[0]\011/* SetFreedomAndProjectionVectorToAxis */
MDAP[1]\011/* MoveDirectAbsPt */
CALL[ ]\011/* CallFunction */
SRP1[ ]\011/* SetRefPoint1 */
SRP2[ ]\011/* SetRefPoint2 */
SVTCA[0]\011/* SetFreedomAndProjectionVectorToAxis */
IP[ ]\011/* InterpolatePts */
RTG[ ]\011/* RoundToGrid */
MIAP[1]\011/* MoveIndirectAbsPt */
IP[ ]\011/* InterpolatePts */
IP[ ]\011/* InterpolatePts */
CALL[ ]\011/* CallFunction */
SRP1[ ]\011/* SetRefPoint1 */
SRP2[ ]\011/* SetRefPoint2 */
SVTCA[0]\011/* SetFreedomAndProjectionVectorToAxis */
IP[ ]\011/* InterpolatePts */
IUP[1]\011/* InterpolateUntPts */
IUP[0]\011/* InterpolateUntPts */";
};
width = 1229;
}
);
note = summation;
unicode = 2211;
},
{
glyphname = product;
lastChange = "2019-12-17 17:45:32 +0000";
layers = (
{
layerId = "AF7A9115-5511-47E4-B81C-CE1A1F9990A7";
paths = (
{
closed = 1;
nodes = (
"1123 -455 LINE",
"1123 1349 LINE",
"104 1349 LINE",
"104 -455 LINE",
"399 -455 LINE",
"399 1105 LINE",
"841 1105 LINE",
"841 -455 LINE"
);
}
);
userData = {
assembly = "PUSHB[ ]\011/* 8 values pushed */
5 2 96 89 5 3 4 0 
SVTCA[0]\011/* SetFreedomAndProjectionVectorToAxis */
MDAP[1]\011/* MoveDirectAbsPt */
SHP[0]\011/* ShiftPointByLastPoint */
MIAP[1]\011/* MoveIndirectAbsPt */
CALL[ ]\011/* CallFunction */
IUP[1]\011/* InterpolateUntPts */
IUP[0]\011/* InterpolateUntPts */";
};
width = 1229;
}
);
note = product;
unicode = 220F;
},
{
glyphname = integral;
lastChange = "2019-12-17 17:45:32 +0000";
layers = (
{
layerId = "AF7A9115-5511-47E4-B81C-CE1A1F9990A7";
paths = (
{
closed = 1;
nodes = (
"543 -455 OFFCURVE",
"754 -256 OFFCURVE",
"754 -74 QCURVE SMOOTH",
"754 1099 LINE SMOOTH",
"754 1193 OFFCURVE",
"834 1294 OFFCURVE",
"911 1294 QCURVE SMOOTH",
"980 1294 OFFCURVE",
"1030 1269 QCURVE",
"1030 1488 LINE",
"963 1507 OFFCURVE",
"875 1507 QCURVE SMOOTH",
"685 1507 OFFCURVE",
"473 1306 OFFCURVE",
"473 1126 QCURVE SMOOTH",
"473 -45 LINE SMOOTH",
"473 -242 OFFCURVE",
"318 -242 QCURVE SMOOTH",
"265 -242 OFFCURVE",
"199 -217 QCURVE",
"199 -434 LINE",
"219 -441 OFFCURVE",
"311 -455 OFFCURVE",
"354 -455 QCURVE SMOOTH"
);
}
);
userData = {
assembly = "NPUSHB[ ]\011/* 13 values pushed */
12 17 82 89 14 12 1 0 6 82 89 3 0 
SVTCA[0]\011/* SetFreedomAndProjectionVectorToAxis */
MDAP[1]\011/* MoveDirectAbsPt */
SHP[0]\011/* ShiftPointByLastPoint */
CALL[ ]\011/* CallFunction */
SVTCA[0]\011/* SetFreedomAndProjectionVectorToAxis */
RTG[ ]\011/* RoundToGrid */
MIAP[1]\011/* MoveIndirectAbsPt */
SHP[1]\011/* ShiftPointByLastPoint */
CALL[ ]\011/* CallFunction */
IUP[1]\011/* InterpolateUntPts */
IUP[0]\011/* InterpolateUntPts */";
};
width = 1229;
}
);
note = integral;
unicode = 222B;
},
{
glyphname = ordfeminine;
lastChange = "2019-12-17 17:45:32 +0000";
layers = (
{
layerId = "AF7A9115-5511-47E4-B81C-CE1A1F9990A7";
paths = (
{
closed = 1;
nodes = (
"637 643 OFFCURVE",
"752 800 QCURVE",
"755 800 LINE",
"754 777 LINE SMOOTH",
"754 723 OFFCURVE",
"825 646 OFFCURVE",
"906 646 QCURVE SMOOTH",
"973 646 OFFCURVE",
"1046 667 QCURVE",
"1070 792 LINE",
"1013 787 LINE",
"968 787 OFFCURVE",
"968 836 QCURVE SMOOTH",
"968 860 OFFCURVE",
"976 898 QCURVE SMOOTH",
"1029 1171 LINE SMOOTH",
"1035 1204 OFFCURVE",
"1035 1233 QCURVE SMOOTH",
"1035 1333 OFFCURVE",
"890 1441 OFFCURVE",
"751 1441 QCURVE SMOOTH",
"606 1441 OFFCURVE",
"400 1317 OFFCURVE",
"360 1208 QCURVE",
"577 1197 LINE",
"610 1305 OFFCURVE",
"727 1305 QCURVE SMOOTH",
"824 1305 OFFCURVE",
"824 1215 QCURVE SMOOTH",
"824 1195 OFFCURVE",
"810 1120 QCURVE",
"640 1118 LINE SMOOTH",
"315 1113 OFFCURVE",
"267 875 QCURVE SMOOTH",
"261 845 OFFCURVE",
"261 818 QCURVE SMOOTH",
"261 733 OFFCURVE",
"368 643 OFFCURVE",
"465 643 QCURVE SMOOTH"
);
},
{
closed = 1;
nodes = (
"484 794 OFFCURVE",
"484 865 QCURVE SMOOTH",
"484 903 OFFCURVE",
"522 971 OFFCURVE",
"599 1005 OFFCURVE",
"682 1007 QCURVE SMOOTH",
"788 1010 LINE",
"782 979 LINE SMOOTH",
"768 905 OFFCURVE",
"648 794 OFFCURVE",
"576 794 QCURVE SMOOTH"
);
}
);
userData = {
assembly = "NPUSHB[ ]\011/* 23 values pushed */
36 28 39 0 39 229 89 8 43 228 89 14 64 12 16 72 8 14 8 14 18 32 0 
PUSHW[ ]\011/* 1 value pushed */
278 
PUSHB[ ]\011/* 5 values pushed */
18 12 228 89 18 
PUSHW[ ]\011/* 1 value pushed */
277 
SVTCA[0]\011/* SetFreedomAndProjectionVectorToAxis */
MIAP[1]\011/* MoveIndirectAbsPt */
CALL[ ]\011/* CallFunction */
SVTCA[0]\011/* SetFreedomAndProjectionVectorToAxis */
RTG[ ]\011/* RoundToGrid */
MIAP[1]\011/* MoveIndirectAbsPt */
SHP[1]\011/* ShiftPointByLastPoint */
SRP2[ ]\011/* SetRefPoint2 */
IP[ ]\011/* InterpolatePts */
IP[ ]\011/* InterpolatePts */
MDAP[1]\011/* MoveDirectAbsPt */
MDAP[1]\011/* MoveDirectAbsPt */
CALL[ ]\011/* CallFunction */
CALL[ ]\011/* CallFunction */
CALL[ ]\011/* CallFunction */
SRP1[ ]\011/* SetRefPoint1 */
SVTCA[0]\011/* SetFreedomAndProjectionVectorToAxis */
SHP[1]\011/* ShiftPointByLastPoint */
SHP[1]\011/* ShiftPointByLastPoint */
IUP[1]\011/* InterpolateUntPts */
IUP[0]\011/* InterpolateUntPts */";
};
width = 1229;
}
);
note = ordfeminine;
unicode = 00AA;
},
{
glyphname = ordmasculine;
lastChange = "2019-12-17 17:45:32 +0000";
layers = (
{
layerId = "AF7A9115-5511-47E4-B81C-CE1A1F9990A7";
paths = (
{
closed = 1;
nodes = (
"736 643 OFFCURVE",
"915 718 OFFCURVE",
"1042 856 OFFCURVE",
"1112 1053 OFFCURVE",
"1112 1152 QCURVE SMOOTH",
"1112 1294 OFFCURVE",
"945 1441 OFFCURVE",
"790 1441 QCURVE SMOOTH",
"683 1441 OFFCURVE",
"508 1367 OFFCURVE",
"383 1227 OFFCURVE",
"314 1032 OFFCURVE",
"314 939 QCURVE SMOOTH",
"314 799 OFFCURVE",
"479 643 OFFCURVE",
"630 643 QCURVE SMOOTH"
);
},
{
closed = 1;
nodes = (
"883 1073 OFFCURVE",
"831 892 OFFCURVE",
"736 804 OFFCURVE",
"660 804 QCURVE SMOOTH",
"542 804 OFFCURVE",
"542 943 QCURVE SMOOTH",
"542 1016 OFFCURVE",
"593 1192 OFFCURVE",
"686 1277 OFFCURVE",
"760 1277 QCURVE SMOOTH",
"819 1277 OFFCURVE",
"883 1220 OFFCURVE",
"883 1146 QCURVE SMOOTH"
);
}
);
userData = {
assembly = "PUSHB[ ]\011/* 5 values pushed */
0 25 230 89 0 
PUSHW[ ]\011/* 1 value pushed */
278 
PUSHB[ ]\011/* 5 values pushed */
8 19 230 89 8 
PUSHW[ ]\011/* 1 value pushed */
277 
SVTCA[0]\011/* SetFreedomAndProjectionVectorToAxis */
MIAP[1]\011/* MoveIndirectAbsPt */
CALL[ ]\011/* CallFunction */
SVTCA[0]\011/* SetFreedomAndProjectionVectorToAxis */
RTG[ ]\011/* RoundToGrid */
MIAP[1]\011/* MoveIndirectAbsPt */
CALL[ ]\011/* CallFunction */
IUP[1]\011/* InterpolateUntPts */
IUP[0]\011/* InterpolateUntPts */";
};
width = 1229;
}
);
note = ordmasculine;
unicode = 00BA;
},
{
glyphname = Ohm;
lastChange = "2019-12-17 17:45:32 +0000";
layers = (
{
layerId = "AF7A9115-5511-47E4-B81C-CE1A1F9990A7";
paths = (
{
closed = 1;
nodes = (
"734 1143 OFFCURVE",
"876 937 OFFCURVE",
"876 754 QCURVE SMOOTH",
"876 618 OFFCURVE",
"789 414 OFFCURVE",
"683 304 QCURVE",
"683 0 LINE",
"1178 0 LINE",
"1178 228 LINE",
"1066 228 LINE SMOOTH",
"1002 228 OFFCURVE",
"888 217 QCURVE",
"1160 434 OFFCURVE",
"1160 798 QCURVE SMOOTH",
"1160 966 OFFCURVE",
"1018 1228 OFFCURVE",
"766 1370 OFFCURVE",
"614 1370 QCURVE SMOOTH",
"461 1370 OFFCURVE",
"210 1228 OFFCURVE",
"68 967 OFFCURVE",
"68 798 QCURVE SMOOTH",
"68 434 OFFCURVE",
"340 217 QCURVE",
"230 228 OFFCURVE",
"166 228 QCURVE SMOOTH",
"50 228 LINE",
"50 0 LINE",
"545 0 LINE",
"545 304 LINE",
"439 414 OFFCURVE",
"352 620 OFFCURVE",
"352 754 QCURVE SMOOTH",
"352 937 OFFCURVE",
"494 1143 OFFCURVE",
"614 1143 QCURVE SMOOTH"
);
}
);
userData = {
assembly = "NPUSHB[ ]\011/* 19 values pushed */
18 0 95 89 18 4 30 26 24 12 6 9 8 9 95 89 29 8 18 
SVTCA[0]\011/* SetFreedomAndProjectionVectorToAxis */
MIAP[1]\011/* MoveIndirectAbsPt */
SHP[1]\011/* ShiftPointByLastPoint */
CALL[ ]\011/* CallFunction */
SRP1[ ]\011/* SetRefPoint1 */
SVTCA[0]\011/* SetFreedomAndProjectionVectorToAxis */
SHP[1]\011/* ShiftPointByLastPoint */
SHP[1]\011/* ShiftPointByLastPoint */
SHP[1]\011/* ShiftPointByLastPoint */
SHP[1]\011/* ShiftPointByLastPoint */
SHP[1]\011/* ShiftPointByLastPoint */
RTG[ ]\011/* RoundToGrid */
MIAP[1]\011/* MoveIndirectAbsPt */
CALL[ ]\011/* CallFunction */
IUP[1]\011/* InterpolateUntPts */
IUP[0]\011/* InterpolateUntPts */";
};
width = 1229;
}
);
note = Ohm;
unicode = 2126;
},
{
glyphname = ae;
lastChange = "2019-12-17 17:45:32 +0000";
layers = (
{
layerId = "AF7A9115-5511-47E4-B81C-CE1A1F9990A7";
paths = (
{
closed = 1;
nodes = (
"1197 484 LINE",
"1223 623 OFFCURVE",
"1234 732 OFFCURVE",
"1234 781 QCURVE SMOOTH",
"1234 1102 OFFCURVE",
"982 1102 QCURVE SMOOTH",
"820 1102 OFFCURVE",
"709 963 QCURVE",
"667 1102 OFFCURVE",
"489 1102 QCURVE SMOOTH",
"353 1102 OFFCURVE",
"163 946 OFFCURVE",
"114 790 QCURVE",
"318 773 LINE",
"362 920 OFFCURVE",
"455 920 QCURVE SMOOTH",
"541 920 OFFCURVE",
"541 799 QCURVE SMOOTH",
"541 764 OFFCURVE",
"521 664 QCURVE",
"373 660 LINE SMOOTH",
"43 655 OFFCURVE",
"-26 302 QCURVE SMOOTH",
"-36 248 OFFCURVE",
"-36 202 QCURVE SMOOTH",
"-36 96 OFFCURVE",
"68 -20 OFFCURVE",
"169 -20 QCURVE SMOOTH",
"268 -20 OFFCURVE",
"451 96 OFFCURVE",
"522 212 QCURVE",
"534 89 OFFCURVE",
"645 -20 OFFCURVE",
"759 -20 QCURVE SMOOTH",
"998 -20 OFFCURVE",
"1127 256 QCURVE",
"958 301 LINE",
"929 236 OFFCURVE",
"850 160 OFFCURVE",
"790 160 QCURVE SMOOTH",
"732 160 OFFCURVE",
"673 258 OFFCURVE",
"673 345 QCURVE SMOOTH",
"673 409 OFFCURVE",
"688 482 QCURVE",
"688 484 LINE"
);
},
{
closed = 1;
nodes = (
"176 299 OFFCURVE",
"223 430 OFFCURVE",
"307 494 OFFCURVE",
"386 496 QCURVE SMOOTH",
"489 499 LINE",
"478 445 LINE SMOOTH",
"455 332 OFFCURVE",
"312 162 OFFCURVE",
"234 162 QCURVE SMOOTH",
"176 162 OFFCURVE",
"176 244 QCURVE SMOOTH"
);
},
{
closed = 1;
nodes = (
"988 924 OFFCURVE",
"1033 844 OFFCURVE",
"1033 769 QCURVE SMOOTH",
"1033 722 OFFCURVE",
"1025 660 QCURVE",
"724 660 LINE",
"742 742 OFFCURVE",
"810 859 OFFCURVE",
"894 924 OFFCURVE",
"934 924 QCURVE SMOOTH"
);
}
);
userData = {
assembly = "NPUSHB[ ]\011/* 55 values pushed */
52 0 61 0 81 89 26 95 61 111 61 2 15 32 1 11 3 61 32 61 32 38 15 40 12 40 57 81 89 40 16 36 30 81 89 36 16 18 48 81 89 18 22 12 6 81 89 4 9 20 9 2 9 12 22 
SVTCA[0]\011/* SetFreedomAndProjectionVectorToAxis */
MIAP[1]\011/* MoveIndirectAbsPt */
SHP[1]\011/* ShiftPointByLastPoint */
DELTAP1[ ]\011/* DeltaExceptionP1 */
CALL[ ]\011/* CallFunction */
SVTCA[0]\011/* SetFreedomAndProjectionVectorToAxis */
RTG[ ]\011/* RoundToGrid */
MIAP[1]\011/* MoveIndirectAbsPt */
CALL[ ]\011/* CallFunction */
SVTCA[0]\011/* SetFreedomAndProjectionVectorToAxis */
RTG[ ]\011/* RoundToGrid */
MIAP[1]\011/* MoveIndirectAbsPt */
CALL[ ]\011/* CallFunction */
SVTCA[0]\011/* SetFreedomAndProjectionVectorToAxis */
RTG[ ]\011/* RoundToGrid */
MIAP[1]\011/* MoveIndirectAbsPt */
CALL[ ]\011/* CallFunction */
SRP1[ ]\011/* SetRefPoint1 */
SRP2[ ]\011/* SetRefPoint2 */
SVTCA[0]\011/* SetFreedomAndProjectionVectorToAxis */
IP[ ]\011/* InterpolatePts */
IP[ ]\011/* InterpolatePts */
IP[ ]\011/* InterpolatePts */
IP[ ]\011/* InterpolatePts */
RTG[ ]\011/* RoundToGrid */
MDAP[1]\011/* MoveDirectAbsPt */
MDAP[1]\011/* MoveDirectAbsPt */
SDS[ ]\011/* SetDeltaShiftInGState */
SDB[ ]\011/* SetDeltaBaseInGState */
DELTAP1[ ]\011/* DeltaExceptionP1 */
DELTAP1[ ]\011/* DeltaExceptionP1 */
SHP[1]\011/* ShiftPointByLastPoint */
CALL[ ]\011/* CallFunction */
SRP1[ ]\011/* SetRefPoint1 */
SVTCA[0]\011/* SetFreedomAndProjectionVectorToAxis */
SHP[1]\011/* ShiftPointByLastPoint */
IUP[1]\011/* InterpolateUntPts */
IUP[0]\011/* InterpolateUntPts */";
};
width = 1229;
}
);
note = ae;
unicode = 00E6;
},
{
glyphname = oslash;
lastChange = "2019-12-17 17:45:32 +0000";
layers = (
{
layerId = "AF7A9115-5511-47E4-B81C-CE1A1F9990A7";
paths = (
{
closed = 1;
nodes = (
"655 -20 OFFCURVE",
"895 87 OFFCURVE",
"1064 288 OFFCURVE",
"1156 580 OFFCURVE",
"1156 718 QCURVE SMOOTH",
"1156 844 OFFCURVE",
"1110 928 QCURVE",
"1216 1026 LINE",
"1134 1104 LINE",
"1037 1015 LINE",
"931 1102 OFFCURVE",
"725 1102 QCURVE SMOOTH",
"527 1102 OFFCURVE",
"235 920 OFFCURVE",
"76 567 OFFCURVE",
"76 382 QCURVE SMOOTH",
"76 255 OFFCURVE",
"123 165 QCURVE",
"7 58 LINE",
"88 -20 LINE",
"192 77 LINE",
"301 -20 OFFCURVE",
"501 -20 QCURVE SMOOTH"
);
},
{
closed = 1;
nodes = (
"854 554 OFFCURVE",
"773 293 OFFCURVE",
"639 172 OFFCURVE",
"535 172 QCURVE SMOOTH",
"426 172 OFFCURVE",
"388 259 QCURVE",
"863 698 LINE"
);
},
{
closed = 1;
nodes = (
"373 513 OFFCURVE",
"453 784 OFFCURVE",
"587 909 OFFCURVE",
"692 909 QCURVE SMOOTH",
"803 909 OFFCURVE",
"841 832 QCURVE",
"369 394 LINE"
);
}
);
userData = {
assembly = "NPUSHB[ ]\011/* 15 values pushed */
11 33 80 89 30 23 0 11 16 0 26 80 89 0 22 
SVTCA[0]\011/* SetFreedomAndProjectionVectorToAxis */
MIAP[1]\011/* MoveIndirectAbsPt */
CALL[ ]\011/* CallFunction */
SVTCA[0]\011/* SetFreedomAndProjectionVectorToAxis */
RTG[ ]\011/* RoundToGrid */
MIAP[1]\011/* MoveIndirectAbsPt */
SRP2[ ]\011/* SetRefPoint2 */
IP[ ]\011/* InterpolatePts */
IP[ ]\011/* InterpolatePts */
CALL[ ]\011/* CallFunction */
IUP[1]\011/* InterpolateUntPts */
IUP[0]\011/* InterpolateUntPts */";
};
width = 1229;
}
);
note = oslash;
unicode = 00F8;
},
{
glyphname = questiondown;
lastChange = "2019-12-17 17:45:32 +0000";
layers = (
{
layerId = "AF7A9115-5511-47E4-B81C-CE1A1F9990A7";
paths = (
{
closed = 1;
nodes = (
"546 569 OFFCURVE",
"394 474 QCURVE SMOOTH",
"230 372 OFFCURVE",
"127 281 OFFCURVE",
"61 181 OFFCURVE",
"30 72 OFFCURVE",
"30 22 QCURVE SMOOTH",
"30 -123 OFFCURVE",
"265 -288 OFFCURVE",
"471 -288 QCURVE SMOOTH",
"696 -288 OFFCURVE",
"1021 -59 OFFCURVE",
"1085 141 QCURVE",
"803 153 LINE",
"772 54 OFFCURVE",
"611 -62 OFFCURVE",
"511 -62 QCURVE SMOOTH",
"417 -62 OFFCURVE",
"320 17 OFFCURVE",
"320 77 QCURVE SMOOTH",
"320 149 OFFCURVE",
"427 260 OFFCURVE",
"564 343 QCURVE SMOOTH",
"675 411 OFFCURVE",
"812 574 OFFCURVE",
"837 676 QCURVE",
"570 676 LINE"
);
},
{
closed = 1;
nodes = (
"635 1082 LINE",
"583 812 LINE",
"872 812 LINE",
"924 1082 LINE"
);
}
);
userData = {
assembly = "NPUSHB[ ]\011/* 30 values pushed */
7 20 0 0 1 11 3 0 0 17 30 30 29 158 91 30 15 0 13 1 12 4 13 17 17 10 95 89 17 160 
SVTCA[0]\011/* SetFreedomAndProjectionVectorToAxis */
MIAP[1]\011/* MoveIndirectAbsPt */
CALL[ ]\011/* CallFunction */
SRP1[ ]\011/* SetRefPoint1 */
SVTCA[0]\011/* SetFreedomAndProjectionVectorToAxis */
SHP[1]\011/* ShiftPointByLastPoint */
SDS[ ]\011/* SetDeltaShiftInGState */
SDB[ ]\011/* SetDeltaBaseInGState */
DELTAP1[ ]\011/* DeltaExceptionP1 */
RTG[ ]\011/* RoundToGrid */
MIAP[1]\011/* MoveIndirectAbsPt */
CALL[ ]\011/* CallFunction */
SRP1[ ]\011/* SetRefPoint1 */
SRP2[ ]\011/* SetRefPoint2 */
SVTCA[0]\011/* SetFreedomAndProjectionVectorToAxis */
IP[ ]\011/* InterpolatePts */
RTG[ ]\011/* RoundToGrid */
MDAP[1]\011/* MoveDirectAbsPt */
SDS[ ]\011/* SetDeltaShiftInGState */
SDB[ ]\011/* SetDeltaBaseInGState */
DELTAP1[ ]\011/* DeltaExceptionP1 */
IP[ ]\011/* InterpolatePts */
IP[ ]\011/* InterpolatePts */
IUP[1]\011/* InterpolateUntPts */
IUP[0]\011/* InterpolateUntPts */";
};
width = 1229;
}
);
note = questiondown;
unicode = 00BF;
},
{
glyphname = exclamdown;
lastChange = "2019-12-17 17:45:32 +0000";
layers = (
{
layerId = "AF7A9115-5511-47E4-B81C-CE1A1F9990A7";
paths = (
{
closed = 1;
nodes = (
"311 -270 LINE",
"605 -270 LINE",
"752 653 LINE",
"522 653 LINE"
);
},
{
closed = 1;
nodes = (
"579 1079 LINE",
"526 809 LINE",
"814 809 LINE",
"867 1079 LINE"
);
}
);
userData = {
assembly = "NPUSHB[ ]\011/* 12 values pushed */
0 6 64 4 6 158 91 4 15 2 3 159 
SVTCA[0]\011/* SetFreedomAndProjectionVectorToAxis */
MIAP[1]\011/* MoveIndirectAbsPt */
SHP[1]\011/* ShiftPointByLastPoint */
MIAP[1]\011/* MoveIndirectAbsPt */
CALL[ ]\011/* CallFunction */
SVTCA[0]\011/* SetFreedomAndProjectionVectorToAxis */
SMD[ ]\011/* SetMinimumDistance */
RTG[ ]\011/* RoundToGrid */
SRP0[ ]\011/* SetRefPoint0 */
MDRP[01110]\011/* MoveDirectRelPt */
IUP[1]\011/* InterpolateUntPts */
IUP[0]\011/* InterpolateUntPts */";
};
width = 1229;
}
);
note = exclamdown;
unicode = 00A1;
},
{
glyphname = logicalnot;
lastChange = "2019-12-17 17:45:32 +0000";
layers = (
{
layerId = "AF7A9115-5511-47E4-B81C-CE1A1F9990A7";
paths = (
{
closed = 1;
nodes = (
"1111 141 LINE",
"1111 793 LINE",
"84 793 LINE",
"84 569 LINE",
"887 569 LINE",
"887 141 LINE"
);
}
);
userData = {
assembly = "NPUSHB[ ]\011/* 14 values pushed */
3 2 173 89 47 0 63 0 111 0 3 0 3 179 
SVTCA[0]\011/* SetFreedomAndProjectionVectorToAxis */
MIAP[1]\011/* MoveIndirectAbsPt */
MDRP[01100]\011/* MoveDirectRelPt */
DELTAP1[ ]\011/* DeltaExceptionP1 */
CALL[ ]\011/* CallFunction */
IUP[1]\011/* InterpolateUntPts */
IUP[0]\011/* InterpolateUntPts */";
};
width = 1229;
}
);
note = logicalnot;
unicode = 00AC;
},
{
glyphname = radical;
lastChange = "2019-12-17 17:45:32 +0000";
layers = (
{
layerId = "AF7A9115-5511-47E4-B81C-CE1A1F9990A7";
paths = (
{
closed = 1;
nodes = (
"1188 1620 LINE",
"1002 1620 LINE",
"590 260 LINE",
"371 895 LINE",
"60 895 LINE",
"60 729 LINE",
"244 729 LINE",
"514 -25 LINE",
"682 -25 LINE"
);
}
);
userData = {
assembly = "NPUSHB[ ]\011/* 21 values pushed */
2 116 3 132 3 148 3 3 3 5 4 4 8 7 10 6 1 6 1 0 19 
SVTCA[0]\011/* SetFreedomAndProjectionVectorToAxis */
MIAP[1]\011/* MoveIndirectAbsPt */
SHP[0]\011/* ShiftPointByLastPoint */
SHP[0]\011/* ShiftPointByLastPoint */
DELTAP1[ ]\011/* DeltaExceptionP1 */
MDAP[1]\011/* MoveDirectAbsPt */
SHP[1]\011/* ShiftPointByLastPoint */
IP[ ]\011/* InterpolatePts */
MDAP[1]\011/* MoveDirectAbsPt */
SHP[1]\011/* ShiftPointByLastPoint */
MDRP[01101]\011/* MoveDirectRelPt */
DELTAP1[ ]\011/* DeltaExceptionP1 */
SHP[0]\011/* ShiftPointByLastPoint */
IUP[1]\011/* InterpolateUntPts */
IUP[0]\011/* InterpolateUntPts */";
};
width = 1229;
}
);
note = radical;
unicode = 221A;
},
{
glyphname = florin;
lastChange = "2019-12-17 17:45:32 +0000";
layers = (
{
layerId = "AF7A9115-5511-47E4-B81C-CE1A1F9990A7";
paths = (
{
closed = 1;
nodes = (
"970 774 LINE",
"1007 964 LINE",
"802 964 LINE",
"818 1049 LINE SMOOTH",
"831 1114 OFFCURVE",
"901 1181 OFFCURVE",
"968 1181 QCURVE",
"977 1180 OFFCURVE",
"992 1180 QCURVE SMOOTH",
"1022 1178 LINE",
"1051 1175 LINE SMOOTH",
"1065 1173 OFFCURVE",
"1074 1171 QCURVE",
"1110 1352 LINE",
"1081 1358 OFFCURVE",
"989 1369 OFFCURVE",
"945 1369 QCURVE SMOOTH",
"770 1369 OFFCURVE",
"573 1228 OFFCURVE",
"544 1077 QCURVE SMOOTH",
"522 964 LINE",
"346 964 LINE",
"309 774 LINE",
"485 774 LINE",
"250 -425 LINE",
"530 -425 LINE",
"765 774 LINE"
);
}
);
userData = {
assembly = "NPUSHB[ ]\011/* 19 values pushed */
0 3 6 3 118 89 24 6 6 10 2 10 20 118 89 10 7 2 27 
SVTCA[0]\011/* SetFreedomAndProjectionVectorToAxis */
MIAP[1]\011/* MoveIndirectAbsPt */
MIAP[1]\011/* MoveIndirectAbsPt */
CALL[ ]\011/* CallFunction */
SRP1[ ]\011/* SetRefPoint1 */
SRP2[ ]\011/* SetRefPoint2 */
SVTCA[0]\011/* SetFreedomAndProjectionVectorToAxis */
IP[ ]\011/* InterpolatePts */
RTG[ ]\011/* RoundToGrid */
MDAP[1]\011/* MoveDirectAbsPt */
SHP[1]\011/* ShiftPointByLastPoint */
CALL[ ]\011/* CallFunction */
SRP1[ ]\011/* SetRefPoint1 */
SVTCA[0]\011/* SetFreedomAndProjectionVectorToAxis */
SHP[1]\011/* ShiftPointByLastPoint */
IUP[1]\011/* InterpolateUntPts */
IUP[0]\011/* InterpolateUntPts */";
};
width = 1229;
}
);
note = florin;
unicode = 0192;
},
{
glyphname = approxequal;
lastChange = "2019-12-17 17:45:32 +0000";
layers = (
{
layerId = "AF7A9115-5511-47E4-B81C-CE1A1F9990A7";
paths = (
{
closed = 1;
nodes = (
"950 756 OFFCURVE",
"1070 791 OFFCURVE",
"1133 836 QCURVE",
"1133 1055 LINE",
"1019 963 OFFCURVE",
"885 963 QCURVE SMOOTH",
"806 963 OFFCURVE",
"685 1006 QCURVE SMOOTH",
"543 1054 OFFCURVE",
"419 1079 OFFCURVE",
"366 1079 QCURVE SMOOTH",
"205 1079 OFFCURVE",
"95 995 QCURVE",
"95 782 LINE",
"165 831 OFFCURVE",
"283 870 OFFCURVE",
"350 870 QCURVE SMOOTH",
"439 870 OFFCURVE",
"571 823 QCURVE SMOOTH",
"646 797 OFFCURVE",
"791 756 OFFCURVE",
"866 756 QCURVE SMOOTH"
);
},
{
closed = 1;
nodes = (
"952 274 OFFCURVE",
"1069 310 OFFCURVE",
"1133 354 QCURVE",
"1133 573 LINE",
"1019 481 OFFCURVE",
"885 481 QCURVE SMOOTH",
"857 481 OFFCURVE",
"787 494 OFFCURVE",
"685 526 QCURVE SMOOTH",
"609 552 OFFCURVE",
"449 598 OFFCURVE",
"366 598 QCURVE SMOOTH",
"208 598 OFFCURVE",
"95 514 QCURVE",
"95 301 LINE",
"160 346 OFFCURVE",
"279 389 OFFCURVE",
"350 389 QCURVE SMOOTH",
"442 389 OFFCURVE",
"571 344 QCURVE SMOOTH",
"646 318 OFFCURVE",
"791 274 OFFCURVE",
"866 274 QCURVE SMOOTH"
);
}
);
userData = {
assembly = "NPUSHB[ ]\011/* 61 values pushed */
22 39 173 89 30 0 22 1 0 22 1 9 3 22 64 41 33 33 27 173 89 0 33 16 33 2 9 3 33 11 64 0 16 173 89 8 0 0 1 0 0 1 9 3 0 64 18 11 11 5 173 89 160 11 1 15 11 31 11 2 11 
SVTCA[0]\011/* SetFreedomAndProjectionVectorToAxis */
MDAP[1]\011/* MoveDirectAbsPt */
DELTAP1[ ]\011/* DeltaExceptionP1 */
DELTAP1[ ]\011/* DeltaExceptionP1 */
CALL[ ]\011/* CallFunction */
SVTCA[0]\011/* SetFreedomAndProjectionVectorToAxis */
RTG[ ]\011/* RoundToGrid */
SRP0[ ]\011/* SetRefPoint0 */
MDRP[00100]\011/* MoveDirectRelPt */
SMD[ ]\011/* SetMinimumDistance */
MDRP[11101]\011/* MoveDirectRelPt */
SDS[ ]\011/* SetDeltaShiftInGState */
SDB[ ]\011/* SetDeltaBaseInGState */
DELTAP1[ ]\011/* DeltaExceptionP1 */
DELTAP3[ ]\011/* DeltaExceptionP3 */
MDRP[00100]\011/* MoveDirectRelPt */
CALL[ ]\011/* CallFunction */
SVTCA[0]\011/* SetFreedomAndProjectionVectorToAxis */
SMD[ ]\011/* SetMinimumDistance */
RTG[ ]\011/* RoundToGrid */
SRP0[ ]\011/* SetRefPoint0 */
MDRP[01100]\011/* MoveDirectRelPt */
SDS[ ]\011/* SetDeltaShiftInGState */
SDB[ ]\011/* SetDeltaBaseInGState */
DELTAP1[ ]\011/* DeltaExceptionP1 */
CALL[ ]\011/* CallFunction */
SVTCA[0]\011/* SetFreedomAndProjectionVectorToAxis */
RTG[ ]\011/* RoundToGrid */
SRP0[ ]\011/* SetRefPoint0 */
MDRP[00100]\011/* MoveDirectRelPt */
SMD[ ]\011/* SetMinimumDistance */
MDRP[11101]\011/* MoveDirectRelPt */
SDS[ ]\011/* SetDeltaShiftInGState */
SDB[ ]\011/* SetDeltaBaseInGState */
DELTAP1[ ]\011/* DeltaExceptionP1 */
DELTAP3[ ]\011/* DeltaExceptionP3 */
MDRP[00100]\011/* MoveDirectRelPt */
CALL[ ]\011/* CallFunction */
IUP[1]\011/* InterpolateUntPts */
IUP[0]\011/* InterpolateUntPts */";
};
width = 1229;
}
);
note = approxequal;
unicode = 2248;
},
{
glyphname = uni2206;
lastChange = "2019-12-17 17:45:32 +0000";
layers = (
{
layerId = "AF7A9115-5511-47E4-B81C-CE1A1F9990A7";
paths = (
{
closed = 1;
nodes = (
"18 0 LINE",
"1212 0 LINE",
"1212 226 LINE",
"791 1349 LINE",
"446 1349 LINE",
"18 226 LINE"
);
},
{
closed = 1;
nodes = (
"317 244 LINE",
"537 860 LINE",
"560 933 OFFCURVE",
"615 1149 OFFCURVE",
"616 1159 QCURVE",
"625 1120 LINE SMOOTH",
"651 1000 OFFCURVE",
"695 862 QCURVE",
"918 244 LINE"
);
}
);
userData = {
assembly = "NPUSHB[ ]\011/* 14 values pushed */
14 3 0 6 4 6 96 89 4 18 10 2 1 3 
SVTCA[0]\011/* SetFreedomAndProjectionVectorToAxis */
MIAP[1]\011/* MoveIndirectAbsPt */
SHP[1]\011/* ShiftPointByLastPoint */
SHP[1]\011/* ShiftPointByLastPoint */
MIAP[1]\011/* MoveIndirectAbsPt */
CALL[ ]\011/* CallFunction */
SRP1[ ]\011/* SetRefPoint1 */
SVTCA[0]\011/* SetFreedomAndProjectionVectorToAxis */
SHP[1]\011/* ShiftPointByLastPoint */
SHP[1]\011/* ShiftPointByLastPoint */
SHP[1]\011/* ShiftPointByLastPoint */
IUP[1]\011/* InterpolateUntPts */
IUP[0]\011/* InterpolateUntPts */";
};
width = 1229;
}
);
note = uni2206;
unicode = 2206;
},
{
glyphname = guillemotleft;
lastChange = "2019-12-17 17:45:32 +0000";
layers = (
{
layerId = "AF7A9115-5511-47E4-B81C-CE1A1F9990A7";
paths = (
{
closed = 1;
nodes = (
"1019 141 LINE",
"1026 176 LINE",
"840 537 LINE",
"1166 903 LINE",
"1173 940 LINE",
"935 940 LINE",
"607 573 LINE",
"594 502 LINE",
"779 141 LINE"
);
},
{
closed = 1;
nodes = (
"550 141 LINE",
"557 176 LINE",
"371 537 LINE",
"697 903 LINE",
"704 940 LINE",
"468 940 LINE",
"138 573 LINE",
"125 502 LINE",
"312 141 LINE"
);
}
);
userData = {
assembly = "PUSHB[ ]\011/* 8 values pushed */
9 0 3 0 237 91 12 3 
SVTCA[0]\011/* SetFreedomAndProjectionVectorToAxis */
MDAP[1]\011/* MoveDirectAbsPt */
SHP[1]\011/* ShiftPointByLastPoint */
CALL[ ]\011/* CallFunction */
SRP1[ ]\011/* SetRefPoint1 */
SVTCA[0]\011/* SetFreedomAndProjectionVectorToAxis */
SHP[1]\011/* ShiftPointByLastPoint */
IUP[1]\011/* InterpolateUntPts */
IUP[0]\011/* InterpolateUntPts */";
};
width = 1229;
}
);
note = guillemotleft;
unicode = 00AB;
},
{
glyphname = guillemotright;
lastChange = "2019-12-17 17:45:32 +0000";
layers = (
{
layerId = "AF7A9115-5511-47E4-B81C-CE1A1F9990A7";
paths = (
{
closed = 1;
nodes = (
"294 141 LINE",
"621 502 LINE",
"634 573 LINE",
"450 940 LINE",
"212 940 LINE",
"205 903 LINE",
"387 537 LINE",
"61 176 LINE",
"54 141 LINE"
);
},
{
closed = 1;
nodes = (
"761 141 LINE",
"1090 502 LINE",
"1103 573 LINE",
"917 940 LINE",
"681 940 LINE",
"674 903 LINE",
"856 537 LINE",
"530 176 LINE",
"523 141 LINE"
);
}
);
userData = {
assembly = "PUSHB[ ]\011/* 8 values pushed */
9 0 4 0 237 91 13 4 
SVTCA[0]\011/* SetFreedomAndProjectionVectorToAxis */
MDAP[1]\011/* MoveDirectAbsPt */
SHP[1]\011/* ShiftPointByLastPoint */
CALL[ ]\011/* CallFunction */
SRP1[ ]\011/* SetRefPoint1 */
SVTCA[0]\011/* SetFreedomAndProjectionVectorToAxis */
SHP[1]\011/* ShiftPointByLastPoint */
IUP[1]\011/* InterpolateUntPts */
IUP[0]\011/* InterpolateUntPts */";
};
width = 1229;
}
);
note = guillemotright;
unicode = 00BB;
},
{
glyphname = ellipsis;
lastChange = "2019-12-17 17:45:32 +0000";
layers = (
{
layerId = "AF7A9115-5511-47E4-B81C-CE1A1F9990A7";
paths = (
{
closed = 1;
nodes = (
"1074 0 LINE",
"1133 305 LINE",
"875 305 LINE",
"816 0 LINE"
);
},
{
closed = 1;
nodes = (
"642 0 LINE",
"701 305 LINE",
"445 305 LINE",
"386 0 LINE"
);
},
{
closed = 1;
nodes = (
"212 0 LINE",
"271 305 LINE",
"13 305 LINE",
"-46 0 LINE"
);
}
);
userData = {
assembly = "NPUSHB[ ]\011/* 10 values pushed */
9 5 1 0 1 155 91 8 4 0 
SVTCA[0]\011/* SetFreedomAndProjectionVectorToAxis */
MDAP[1]\011/* MoveDirectAbsPt */
SHP[0]\011/* ShiftPointByLastPoint */
SHP[0]\011/* ShiftPointByLastPoint */
CALL[ ]\011/* CallFunction */
SRP1[ ]\011/* SetRefPoint1 */
SVTCA[0]\011/* SetFreedomAndProjectionVectorToAxis */
SHP[1]\011/* ShiftPointByLastPoint */
SHP[1]\011/* ShiftPointByLastPoint */
IUP[1]\011/* InterpolateUntPts */
IUP[0]\011/* InterpolateUntPts */";
};
width = 1229;
}
);
note = ellipsis;
unicode = 2026;
},
{
glyphname = OE;
lastChange = "2019-12-17 17:45:32 +0000";
layers = (
{
layerId = "AF7A9115-5511-47E4-B81C-CE1A1F9990A7";
paths = (
{
closed = 1;
nodes = (
"1106 0 LINE",
"1145 202 LINE",
"791 202 LINE",
"867 592 LINE",
"1154 592 LINE",
"1193 792 LINE",
"906 792 LINE",
"975 1147 LINE",
"1288 1147 LINE",
"1327 1349 LINE",
"769 1349 LINE",
"720 1355 OFFCURVE",
"681 1355 QCURVE SMOOTH",
"519 1355 OFFCURVE",
"285 1228 OFFCURVE",
"124 970 OFFCURVE",
"27 564 OFFCURVE",
"27 406 QCURVE SMOOTH",
"27 197 OFFCURVE",
"216 -5 OFFCURVE",
"415 -5 QCURVE",
"494 0 LINE"
);
},
{
closed = 1;
nodes = (
"290 190 OFFCURVE",
"290 431 QCURVE SMOOTH",
"290 569 OFFCURVE",
"386 971 OFFCURVE",
"531 1159 OFFCURVE",
"643 1159 QCURVE SMOOTH",
"689 1159 OFFCURVE",
"725 1153 QCURVE",
"539 196 LINE",
"509 190 OFFCURVE",
"454 190 QCURVE SMOOTH"
);
}
);
userData = {
assembly = "NPUSHB[ ]\011/* 59 values pushed */
21 19 98 89 15 18 98 89 204 15 1 185 15 1 152 15 1 63 15 79 15 2 3 15 15 31 15 2 13 5 15 15 12 21 18 12 14 98 89 12 3 25 25 27 9 27 98 89 9 4 24 24 22 1 22 98 89 1 19 
SVTCA[0]\011/* SetFreedomAndProjectionVectorToAxis */
MIAP[1]\011/* MoveIndirectAbsPt */
CALL[ ]\011/* CallFunction */
SRP1[ ]\011/* SetRefPoint1 */
SVTCA[0]\011/* SetFreedomAndProjectionVectorToAxis */
SHP[1]\011/* ShiftPointByLastPoint */
RTG[ ]\011/* RoundToGrid */
MDAP[1]\011/* MoveDirectAbsPt */
MIAP[1]\011/* MoveIndirectAbsPt */
CALL[ ]\011/* CallFunction */
SRP1[ ]\011/* SetRefPoint1 */
SVTCA[0]\011/* SetFreedomAndProjectionVectorToAxis */
SHP[1]\011/* ShiftPointByLastPoint */
RTG[ ]\011/* RoundToGrid */
MDAP[1]\011/* MoveDirectAbsPt */
MIAP[1]\011/* MoveIndirectAbsPt */
CALL[ ]\011/* CallFunction */
SVTCA[0]\011/* SetFreedomAndProjectionVectorToAxis */
RTG[ ]\011/* RoundToGrid */
MIAP[1]\011/* MoveIndirectAbsPt */
SRP2[ ]\011/* SetRefPoint2 */
IP[ ]\011/* InterpolatePts */
MDAP[1]\011/* MoveDirectAbsPt */
SDS[ ]\011/* SetDeltaShiftInGState */
SDB[ ]\011/* SetDeltaBaseInGState */
DELTAP1[ ]\011/* DeltaExceptionP1 */
SDS[ ]\011/* SetDeltaShiftInGState */
DELTAP1[ ]\011/* DeltaExceptionP1 */
DELTAP1[ ]\011/* DeltaExceptionP1 */
DELTAP1[ ]\011/* DeltaExceptionP1 */
DELTAP1[ ]\011/* DeltaExceptionP1 */
CALL[ ]\011/* CallFunction */
CALL[ ]\011/* CallFunction */
IUP[1]\011/* InterpolateUntPts */
IUP[0]\011/* InterpolateUntPts */";
};
width = 1229;
}
);
note = OE;
unicode = 0152;
},
